M48
; DRILL file {KiCad 8.0.4} date 2024-08-19T13:54:43+0200
; FORMAT={-:-/ absolute / metric / decimal}
; #@! TF.CreationDate,2024-08-19T13:54:43+02:00
; #@! TF.GenerationSoftware,Kicad,Pcbnew,8.0.4
; #@! TF.FileFunction,Plated,1,4,PTH
FMAT,2
METRIC
; #@! TA.AperFunction,Plated,PTH,ViaDrill
T1C0.200
; #@! TA.AperFunction,Plated,PTH,ViaDrill
T2C0.250
; #@! TA.AperFunction,Plated,PTH,ViaDrill
T3C0.300
; #@! TA.AperFunction,Plated,PTH,ViaDrill
T4C0.400
; #@! TA.AperFunction,Plated,PTH,ComponentDrill
T5C0.800
; #@! TA.AperFunction,Plated,PTH,ComponentDrill
T6C0.850
; #@! TA.AperFunction,Plated,PTH,ComponentDrill
T7C0.950
; #@! TA.AperFunction,Plated,PTH,ComponentDrill
T8C1.000
; #@! TA.AperFunction,Plated,PTH,ComponentDrill
T9C1.050
; #@! TA.AperFunction,Plated,PTH,ComponentDrill
T10C1.300
; #@! TA.AperFunction,Plated,PTH,ComponentDrill
T11C1.500
; #@! TA.AperFunction,Plated,PTH,ComponentDrill
T12C1.600
; #@! TA.AperFunction,Plated,PTH,ComponentDrill
T13C1.700
; #@! TA.AperFunction,Plated,PTH,ComponentDrill
T14C1.800
%
G90
G05
T1
X68.405Y-131.805
X68.405Y-133.435
X73.765Y-133.365
X81.995Y-145.475
X96.45Y-155.39
X98.345Y-172.145
X98.435Y-169.795
X98.445Y-152.395
X98.445Y-168.975
X98.445Y-172.995
X98.465Y-156.385
X98.465Y-173.775
X98.475Y-151.575
X98.485Y-154.805
X98.535Y-174.615
X100.875Y-168.185
X100.935Y-175.405
X101.25Y-151.61
X103.275Y-113.675
X103.556Y-168.808
X104.81Y-174.8
X105.842Y-168.485
X106.33Y-166.553
X106.385Y-170.205
X106.425Y-172.595
X106.475Y-167.785
X106.495Y-174.965
X108.128Y-166.548
X111.42Y-171.36
X112.012Y-154.07
X113.96Y-171.37
X114.232Y-154.043
X115.53Y-175.75
X115.9Y-179.71
X115.9Y-181.75
X116.14Y-176.25
X117.55Y-135.2
X117.57Y-160.43
X118.09Y-159.85
X118.22Y-135.2
X118.995Y-187.854
X119.654Y-186.954
X119.84Y-187.51
X121.71Y-138.92
X122.189Y-140.069
X122.52Y-135.18
X123.19Y-135.18
X123.308Y-89.102
X123.35Y-181.35
X123.65Y-140.07
X123.782Y-88.628
X124.029Y-91.509
X124.44Y-140.07
X124.814Y-88.614
X124.825Y-91.995
X125.152Y-172.86
X125.325Y-91.495
X125.375Y-92.325
X125.609Y-173.74
X126.235Y-171.34
X126.255Y-173.684
X126.411Y-88.18
X126.596Y-176.042
X127.064Y-176.557
X127.135Y-84.815
X127.535Y-86.075
X127.57Y-174.16
X127.575Y-85.335
X127.61Y-176.26
X127.848Y-87.248
X128.095Y-173.7
X128.322Y-87.722
X128.62Y-173.922
X128.656Y-184.869
X128.945Y-176.67
X129.0Y-121.9
X129.303Y-179.013
X129.477Y-179.555
X129.575Y-123.075
X129.685Y-120.025
X130.005Y-118.6
X130.005Y-121.457
X130.275Y-117.935
X130.29Y-173.87
X130.335Y-120.165
X130.391Y-179.55
X130.52Y-84.69
X130.625Y-118.6
X130.625Y-121.457
X130.859Y-179.02
X130.96Y-173.87
X131.095Y-121.065
X131.145Y-117.745
X131.155Y-89.205
X131.205Y-118.377
X131.205Y-121.681
X131.233Y-84.727
X131.825Y-84.797
X131.825Y-117.635
X131.825Y-118.377
X131.825Y-121.681
X132.315Y-123.115
X132.369Y-84.719
X132.435Y-120.115
X132.545Y-117.725
X132.956Y-84.754
X133.604Y-84.346
X133.705Y-118.615
X134.105Y-121.725
X134.225Y-84.346
X134.325Y-179.39
X134.515Y-87.835
X134.767Y-84.729
X134.995Y-179.39
X135.11Y-111.16
X135.13Y-111.77
X135.35Y-112.38
X135.61Y-178.59
X135.625Y-89.355
X135.67Y-112.91
X135.698Y-89.9
X135.72Y-84.81
X135.895Y-120.155
X136.095Y-87.775
X136.285Y-89.885
X136.49Y-121.55
X136.525Y-105.88
X136.525Y-106.55
X136.705Y-104.28
X136.705Y-104.95
X136.875Y-90.119
X136.888Y-87.879
X136.915Y-84.855
X136.985Y-102.4
X136.985Y-103.07
X137.175Y-100.58
X137.175Y-101.25
X137.312Y-179.629
X137.705Y-84.625
X138.7Y-120.1
X138.7Y-121.7
X138.96Y-179.034
X138.98Y-176.71
X139.795Y-84.395
X139.899Y-129.575
X139.946Y-170.575
X140.085Y-121.765
X140.175Y-84.695
X140.3Y-120.0
X140.3Y-129.2
X140.6Y-105.725
X140.691Y-170.663
X140.96Y-177.04
X141.27Y-105.725
X141.44Y-120.81
X141.791Y-177.831
X142.01Y-118.33
X142.55Y-121.52
X143.35Y-118.56
X143.785Y-143.175
X143.865Y-87.725
X143.9Y-121.7
X144.125Y-118.665
X144.56Y-121.76
X144.565Y-84.695
X144.75Y-142.99
X144.995Y-84.695
X145.165Y-121.825
X145.195Y-141.665
X145.395Y-140.945
X145.58Y-98.635
X145.625Y-171.128
X145.968Y-121.853
X146.075Y-171.602
X146.25Y-98.635
X146.736Y-121.844
X148.114Y-87.304
X148.4Y-87.8
X148.4Y-167.97
X148.555Y-84.795
X148.895Y-118.645
X148.895Y-89.122
X149.305Y-97.595
X149.335Y-94.795
X149.77Y-167.98
X149.89Y-122.52
X150.075Y-98.025
X150.51Y-168.22
X150.899Y-95.145
X151.13Y-168.48
X153.15Y-121.45
X154.067Y-120.277
X154.595Y-116.005
X155.36Y-120.84
X155.446Y-119.636
X155.57Y-171.76
X156.0Y-119.15
X157.095Y-101.255
X158.035Y-100.975
X158.395Y-104.015
X158.755Y-100.915
X158.755Y-126.645
X159.535Y-100.785
X160.345Y-100.635
X160.825Y-129.655
X161.025Y-100.605
X161.975Y-111.745
X164.06Y-173.08
X165.245Y-123.025
X165.245Y-142.035
X166.255Y-122.425
X166.255Y-142.185
X166.775Y-178.665
X168.23Y-166.54
X169.795Y-178.635
X170.295Y-171.005
X172.535Y-88.485
X174.085Y-88.545
X175.535Y-88.505
X177.225Y-88.565
X178.725Y-88.505
X207.485Y-149.825
X208.695Y-151.195
X209.345Y-150.595
X209.775Y-152.255
X210.635Y-152.775
T2
X68.738Y-140.402
X69.198Y-137.522
X69.212Y-139.928
X69.365Y-138.44
X69.365Y-139.11
X69.575Y-135.49
X69.575Y-136.16
X69.661Y-137.225
X73.2Y-133.3
X73.2Y-135.9
X73.2Y-140.4
X73.3Y-137.0
X73.3Y-138.3
X74.0Y-135.1
X74.0Y-136.155
X75.898Y-138.482
X76.372Y-138.008
X76.645Y-133.88
X76.645Y-134.55
X76.9Y-140.755
X77.57Y-140.755
X83.065Y-105.155
X91.107Y-92.362
X91.768Y-101.792
X92.262Y-101.298
X96.428Y-91.638
X97.455Y-100.865
X97.455Y-101.565
X101.2Y-154.7
X115.218Y-185.675
X115.655Y-186.111
X116.649Y-186.861
X116.69Y-184.79
X116.73Y-182.793
X117.159Y-187.371
X117.6Y-188.0
X118.548Y-187.5
X118.827Y-185.3
X118.85Y-186.41
X119.315Y-89.625
X119.341Y-90.299
X120.06Y-181.67
X120.139Y-179.799
X121.06Y-184.549
X123.901Y-178.283
X125.171Y-178.285
X126.442Y-174.222
X132.435Y-89.285
X132.885Y-87.075
X133.135Y-150.317
X133.756Y-150.038
X134.975Y-87.505
X135.36Y-87.09
X135.612Y-150.217
X136.635Y-97.345
X136.645Y-97.925
X136.655Y-95.155
X136.675Y-96.525
X136.681Y-95.946
X136.695Y-94.565
X136.825Y-93.225
X136.855Y-93.834
X137.058Y-150.266
X137.165Y-86.565
X137.165Y-92.699
X137.4Y-176.72
X137.865Y-86.565
X137.907Y-92.677
X138.216Y-176.334
X138.365Y-84.686
X139.048Y-84.677
X139.195Y-176.119
X139.565Y-86.585
X140.17Y-176.119
X140.265Y-86.585
X140.501Y-87.894
X140.765Y-84.672
X141.415Y-84.662
X141.705Y-87.894
X141.965Y-86.615
X141.995Y-84.675
X142.265Y-149.885
X142.495Y-84.71
X142.665Y-86.615
X142.701Y-150.254
X143.181Y-84.674
X143.849Y-84.674
X144.365Y-86.168
X145.065Y-86.168
X145.305Y-87.775
X145.5Y-150.3
X145.565Y-84.638
X145.78Y-116.14
X146.05Y-150.343
X146.265Y-84.638
X146.505Y-87.834
X146.765Y-86.468
X146.925Y-84.605
X147.43Y-86.248
X147.49Y-121.71
X147.715Y-84.725
X149.101Y-84.65
X149.198Y-87.582
X149.692Y-87.088
X150.76Y-135.245
X151.43Y-135.245
T3
X74.585Y-131.595
X94.56Y-154.65
X94.6Y-150.57
X94.965Y-171.785
X95.015Y-173.365
X95.03Y-174.92
X95.03Y-176.74
X95.045Y-170.165
X95.21Y-152.72
X95.215Y-168.625
X95.255Y-156.255
X100.155Y-133.065
X100.444Y-150.775
X100.775Y-157.995
X102.175Y-150.715
X102.233Y-157.752
X102.305Y-130.745
X105.175Y-157.715
X106.1Y-151.5
X106.415Y-170.995
X106.445Y-171.775
X106.625Y-152.795
X106.625Y-153.595
X106.625Y-154.395
X106.625Y-155.215
X106.625Y-157.595
X106.715Y-150.375
X111.125Y-188.0
X112.125Y-188.0
X113.125Y-188.0
X116.5Y-125.28
X119.05Y-125.26
X120.8Y-127.2
X124.0Y-127.2
X124.125Y-185.5
X124.125Y-186.5
X124.125Y-187.5
X126.195Y-126.295
X126.625Y-185.5
X126.625Y-186.5
X126.625Y-187.5
X128.82Y-180.66
X129.125Y-185.5
X129.125Y-186.5
X129.125Y-187.5
X130.2Y-125.5
X131.625Y-185.5
X131.625Y-186.5
X131.625Y-187.5
X131.7Y-180.63
X132.38Y-126.3
X133.171Y-157.471
X133.215Y-155.62
X133.625Y-185.5
X133.625Y-186.5
X133.625Y-187.5
X133.9Y-157.4
X134.065Y-155.62
X134.96Y-126.34
X135.625Y-185.5
X135.625Y-186.5
X135.625Y-187.5
X137.625Y-185.5
X137.625Y-186.5
X137.625Y-187.5
X139.625Y-185.5
X139.625Y-186.5
X139.625Y-187.5
X140.19Y-126.3
X141.69Y-126.3
X142.041Y-163.401
X142.11Y-160.57
X142.61Y-162.9
X142.96Y-160.57
X143.125Y-185.5
X143.125Y-186.5
X143.125Y-187.5
X145.14Y-126.26
X146.75Y-126.24
X150.54Y-126.3
X152.96Y-126.22
X154.068Y-168.897
X155.7Y-126.22
X156.65Y-126.86
X161.625Y-166.545
X161.675Y-161.495
X161.675Y-163.145
X161.675Y-164.855
X164.095Y-129.455
X167.905Y-87.175
X170.035Y-93.305
X171.425Y-163.155
X171.425Y-164.755
X171.435Y-161.485
X171.935Y-129.495
X172.545Y-91.655
X173.615Y-97.845
X174.075Y-91.675
X174.905Y-86.085
X175.555Y-91.695
X176.865Y-87.985
X177.155Y-91.845
X178.695Y-91.815
X179.815Y-97.845
X180.115Y-172.655
X180.115Y-173.885
X180.195Y-176.435
X180.215Y-175.175
X180.295Y-129.495
X180.405Y-88.785
X185.385Y-175.225
X188.125Y-173.775
X188.415Y-129.455
X190.445Y-172.725
X194.565Y-129.475
X200.825Y-114.465
X202.355Y-114.465
X204.845Y-129.565
X211.245Y-110.615
X222.4Y-121.8
X224.9Y-129.4
X225.0Y-126.9
X225.0Y-131.8
T4
X111.125Y-186.655
X112.335Y-174.895
X114.085Y-175.275
X116.12Y-187.975
X147.15Y-136.95
X154.955Y-167.705
X157.72Y-117.93
X171.805Y-166.375
X174.145Y-163.155
X193.905Y-145.095
X194.845Y-140.785
X200.505Y-133.855
X201.35Y-140.77
X202.395Y-110.965
X202.825Y-148.455
X203.495Y-108.405
X207.035Y-105.795
X207.875Y-100.765
X208.675Y-133.855
X210.485Y-107.935
X211.645Y-102.035
X211.975Y-107.935
T5
X72.825Y-117.875
X72.825Y-120.415
X72.825Y-122.955
X72.845Y-105.105
X72.845Y-107.645
X72.845Y-110.185
T6
X102.8Y-164.45
X102.81Y-147.07
T7
X95.6Y-164.45
X95.6Y-178.7
X95.61Y-147.07
X95.61Y-161.32
X100.3Y-164.45
X100.3Y-178.7
X100.31Y-147.07
X100.31Y-161.32
X105.3Y-164.45
X105.3Y-178.7
X105.31Y-147.07
X105.31Y-161.32
X109.9Y-166.775
X109.9Y-171.575
X109.9Y-176.375
X109.91Y-149.395
X109.91Y-154.195
X109.91Y-158.995
T8
X87.735Y-93.475
X87.735Y-96.015
X90.275Y-93.475
X90.275Y-96.015
X92.815Y-93.475
X92.815Y-96.015
X95.355Y-93.475
X95.355Y-96.015
X97.45Y-106.62
X97.45Y-109.16
X97.45Y-111.7
X97.45Y-114.24
X97.45Y-116.78
X97.895Y-93.475
X97.895Y-96.015
X99.99Y-106.62
X99.99Y-109.16
X99.99Y-111.7
X99.99Y-114.24
X99.99Y-116.78
X100.435Y-93.475
X100.435Y-96.015
X119.715Y-150.085
X119.715Y-152.625
X119.715Y-155.165
X119.715Y-157.705
X119.715Y-160.245
X119.715Y-162.785
X119.715Y-165.325
X119.715Y-167.865
X154.63Y-147.905
X154.63Y-150.445
X154.63Y-152.985
X154.63Y-155.525
X157.17Y-147.905
X157.17Y-150.445
X157.17Y-152.985
X157.17Y-155.525
X159.1Y-169.24
X159.1Y-171.78
X159.1Y-175.48
X159.1Y-178.02
X160.98Y-152.95
X160.98Y-155.49
X161.64Y-169.24
X161.64Y-171.78
X161.64Y-175.48
X161.64Y-178.02
X163.52Y-152.95
X163.52Y-155.49
X165.345Y-169.255
X165.345Y-171.795
X166.06Y-152.95
X166.06Y-155.49
X167.885Y-169.255
X167.885Y-171.795
X203.445Y-102.445
X203.445Y-104.985
X215.0Y-172.31
X215.0Y-174.85
X217.54Y-172.31
X217.54Y-174.85
X221.09Y-120.45
X221.09Y-122.99
X221.09Y-125.53
X221.09Y-128.07
X221.09Y-130.61
X221.09Y-133.15
X221.09Y-135.69
X221.09Y-138.23
X221.09Y-140.77
X221.09Y-143.31
X221.09Y-145.85
X221.09Y-148.39
X221.09Y-150.93
X221.09Y-153.47
X221.09Y-156.01
X221.09Y-158.55
X221.09Y-161.09
X221.09Y-163.63
X221.09Y-166.17
X221.09Y-168.71
X223.63Y-120.45
X223.63Y-122.99
X223.63Y-125.53
X223.63Y-128.07
X223.63Y-130.61
X223.63Y-133.15
X223.63Y-135.69
X223.63Y-138.23
X223.63Y-140.77
X223.63Y-143.31
X223.63Y-145.85
X223.63Y-148.39
X223.63Y-150.93
X223.63Y-153.47
X223.63Y-156.01
X223.63Y-158.55
X223.63Y-161.09
X223.63Y-163.63
X223.63Y-166.17
X223.63Y-168.71
T9
X72.8Y-164.45
X72.8Y-173.025
X72.81Y-147.07
X72.81Y-155.645
X77.8Y-178.7
X77.81Y-161.32
X82.8Y-164.45
X82.81Y-147.07
X87.8Y-178.7
X87.81Y-161.32
X92.8Y-164.45
X92.8Y-170.125
X92.8Y-175.525
X92.81Y-147.07
X92.81Y-152.745
X92.81Y-158.145
X97.8Y-178.7
X97.81Y-161.32
X107.8Y-178.7
X107.81Y-161.32
T10
X66.0Y-128.25
X66.0Y-143.95
X70.9Y-128.85
X70.9Y-143.35
T11
X88.155Y-111.585
X88.275Y-122.635
X174.445Y-106.865
T12
X206.915Y-94.957
X211.995Y-94.957
X217.075Y-94.957
X222.155Y-94.957
T13
X85.615Y-109.045
X85.615Y-114.125
X85.735Y-120.095
X85.735Y-125.175
X90.695Y-109.045
X90.695Y-114.125
X90.815Y-120.095
X90.815Y-125.175
X171.905Y-104.325
X171.905Y-109.405
X176.985Y-104.325
X176.985Y-109.405
T14
X187.227Y-97.761
X187.227Y-103.261
X191.427Y-97.761
X191.427Y-103.261
X195.627Y-97.761
X195.627Y-103.261
T8
X218.195Y-105.602G85X218.195Y-103.602
G05
X222.195Y-99.902G85X220.195Y-99.902
G05
X224.195Y-105.602G85X224.195Y-103.602
G05
M30
