%TF.GenerationSoftware,KiCad,Pcbnew,8.0.4*%
%TF.CreationDate,2024-08-19T13:54:43+02:00*%
%TF.ProjectId,ULX4M-PCIe-IO_x4_half,554c5834-4d2d-4504-9349-652d494f5f78,rev?*%
%TF.SameCoordinates,Original*%
%TF.FileFunction,Drillmap*%
%TF.FilePolarity,Positive*%
%FSLAX45Y45*%
G04 Gerber Fmt 4.5, Leading zero omitted, Abs format (unit mm)*
G04 Created by KiCad (PCBNEW 8.0.4) date 2024-08-19 13:54:43*
%MOMM*%
%LPD*%
G01*
G04 APERTURE LIST*
%ADD10C,0.150000*%
%ADD11C,0.200000*%
%ADD12C,0.155000*%
%ADD13C,0.270000*%
%ADD14C,0.320000*%
G04 APERTURE END LIST*
D10*
X23212770Y-18137500D02*
X14377500Y-18137500D01*
X10997500Y-19412500D02*
X12017500Y-19412500D01*
X12257500Y-19362500D02*
X12307500Y-19412500D01*
X10582500Y-18320000D02*
G75*
G02*
X10947500Y-18320000I182500J0D01*
G01*
X7947500Y-18962500D02*
X7947500Y-18137500D01*
X14327500Y-19412500D02*
X12307500Y-19412500D01*
X9782500Y-18137500D02*
X9782500Y-18962500D01*
X23212500Y-8297500D02*
X23212770Y-18137500D01*
X7947500Y-18137500D02*
X9782500Y-18137500D01*
X9782500Y-18962500D02*
X10582500Y-18962500D01*
X7357500Y-9937500D02*
G75*
G02*
X7037500Y-9937500I-160000J0D01*
G01*
X7037500Y-9937500D02*
G75*
G02*
X7357500Y-9937500I160000J0D01*
G01*
X6447500Y-8297500D02*
X23212500Y-8297500D01*
X12257500Y-18667500D02*
X12257500Y-19362500D01*
X12067500Y-19362500D02*
X12067500Y-18667500D01*
X10947500Y-19362500D02*
X10997500Y-19412500D01*
X12067500Y-18667500D02*
G75*
G02*
X12257500Y-18667500I95000J0D01*
G01*
X6447500Y-8297500D02*
X6447500Y-18962500D01*
X12017500Y-19412500D02*
X12067500Y-19362500D01*
X14377500Y-18137500D02*
X14377500Y-19362500D01*
X7357500Y-18477500D02*
G75*
G02*
X7037500Y-18477500I-160000J0D01*
G01*
X7037500Y-18477500D02*
G75*
G02*
X7357500Y-18477500I160000J0D01*
G01*
X14377500Y-19362500D02*
X14327500Y-19412500D01*
X6447500Y-18962500D02*
X7947500Y-18962500D01*
X10582500Y-18962500D02*
X10582500Y-18320000D01*
X10947500Y-18320000D02*
X10947500Y-19362500D01*
D11*
D12*
X10292500Y-16600000D02*
X10447500Y-16755000D01*
X10447500Y-16600000D02*
X10292500Y-16755000D01*
X10292500Y-17560000D02*
X10447500Y-17715000D01*
X10447500Y-17560000D02*
X10292500Y-17715000D01*
X10293500Y-14862000D02*
X10448500Y-15017000D01*
X10448500Y-14862000D02*
X10293500Y-15017000D01*
X10293500Y-15822000D02*
X10448500Y-15977000D01*
X10448500Y-15822000D02*
X10293500Y-15977000D01*
D13*
X11436500Y-8741500D02*
G75*
G02*
X11166500Y-8741500I-135000J0D01*
G01*
X11166500Y-8741500D02*
G75*
G02*
X11436500Y-8741500I135000J0D01*
G01*
X11436500Y-12041500D02*
G75*
G02*
X11166500Y-12041500I-135000J0D01*
G01*
X11166500Y-12041500D02*
G75*
G02*
X11436500Y-12041500I135000J0D01*
G01*
X16236500Y-8741500D02*
G75*
G02*
X15966500Y-8741500I-135000J0D01*
G01*
X15966500Y-8741500D02*
G75*
G02*
X16236500Y-8741500I135000J0D01*
G01*
X16236500Y-12041500D02*
G75*
G02*
X15966500Y-12041500I-135000J0D01*
G01*
X15966500Y-12041500D02*
G75*
G02*
X16236500Y-12041500I135000J0D01*
G01*
D14*
X12023500Y-14369500D02*
X12023500Y-14689500D01*
X11863500Y-14529500D02*
X12183500Y-14529500D01*
X12023500Y-17387500D02*
X12023500Y-17707500D01*
X11863500Y-17547500D02*
X12183500Y-17547500D01*
X14947774Y-17405816D02*
X14947774Y-17725816D01*
X14787774Y-17565816D02*
X15107774Y-17565816D01*
X14951500Y-14369500D02*
X14951500Y-14689500D01*
X14791500Y-14529500D02*
X15111500Y-14529500D01*
X17339000Y-17198000D02*
X17339000Y-17518000D01*
X17179000Y-17358000D02*
X17499000Y-17358000D01*
X17341000Y-11397000D02*
X17341000Y-11717000D01*
X17181000Y-11557000D02*
X17501000Y-11557000D01*
X22240000Y-17197000D02*
X22240000Y-17517000D01*
X22080000Y-17357000D02*
X22400000Y-17357000D01*
X22241000Y-11397000D02*
X22241000Y-11717000D01*
X22081000Y-11557000D02*
X22401000Y-11557000D01*
D11*
X6700777Y-19731484D02*
X6700777Y-19531484D01*
X6700777Y-19531484D02*
X6748396Y-19531484D01*
X6748396Y-19531484D02*
X6776967Y-19541008D01*
X6776967Y-19541008D02*
X6796015Y-19560055D01*
X6796015Y-19560055D02*
X6805539Y-19579103D01*
X6805539Y-19579103D02*
X6815062Y-19617198D01*
X6815062Y-19617198D02*
X6815062Y-19645770D01*
X6815062Y-19645770D02*
X6805539Y-19683865D01*
X6805539Y-19683865D02*
X6796015Y-19702912D01*
X6796015Y-19702912D02*
X6776967Y-19721960D01*
X6776967Y-19721960D02*
X6748396Y-19731484D01*
X6748396Y-19731484D02*
X6700777Y-19731484D01*
X6900777Y-19731484D02*
X6900777Y-19598150D01*
X6900777Y-19636246D02*
X6910301Y-19617198D01*
X6910301Y-19617198D02*
X6919824Y-19607674D01*
X6919824Y-19607674D02*
X6938872Y-19598150D01*
X6938872Y-19598150D02*
X6957920Y-19598150D01*
X7024586Y-19731484D02*
X7024586Y-19598150D01*
X7024586Y-19531484D02*
X7015062Y-19541008D01*
X7015062Y-19541008D02*
X7024586Y-19550531D01*
X7024586Y-19550531D02*
X7034110Y-19541008D01*
X7034110Y-19541008D02*
X7024586Y-19531484D01*
X7024586Y-19531484D02*
X7024586Y-19550531D01*
X7148396Y-19731484D02*
X7129348Y-19721960D01*
X7129348Y-19721960D02*
X7119824Y-19702912D01*
X7119824Y-19702912D02*
X7119824Y-19531484D01*
X7253158Y-19731484D02*
X7234110Y-19721960D01*
X7234110Y-19721960D02*
X7224586Y-19702912D01*
X7224586Y-19702912D02*
X7224586Y-19531484D01*
X7481729Y-19731484D02*
X7481729Y-19531484D01*
X7481729Y-19531484D02*
X7548396Y-19674341D01*
X7548396Y-19674341D02*
X7615062Y-19531484D01*
X7615062Y-19531484D02*
X7615062Y-19731484D01*
X7796015Y-19731484D02*
X7796015Y-19626722D01*
X7796015Y-19626722D02*
X7786491Y-19607674D01*
X7786491Y-19607674D02*
X7767443Y-19598150D01*
X7767443Y-19598150D02*
X7729348Y-19598150D01*
X7729348Y-19598150D02*
X7710301Y-19607674D01*
X7796015Y-19721960D02*
X7776967Y-19731484D01*
X7776967Y-19731484D02*
X7729348Y-19731484D01*
X7729348Y-19731484D02*
X7710301Y-19721960D01*
X7710301Y-19721960D02*
X7700777Y-19702912D01*
X7700777Y-19702912D02*
X7700777Y-19683865D01*
X7700777Y-19683865D02*
X7710301Y-19664817D01*
X7710301Y-19664817D02*
X7729348Y-19655293D01*
X7729348Y-19655293D02*
X7776967Y-19655293D01*
X7776967Y-19655293D02*
X7796015Y-19645770D01*
X7891253Y-19598150D02*
X7891253Y-19798150D01*
X7891253Y-19607674D02*
X7910301Y-19598150D01*
X7910301Y-19598150D02*
X7948396Y-19598150D01*
X7948396Y-19598150D02*
X7967443Y-19607674D01*
X7967443Y-19607674D02*
X7976967Y-19617198D01*
X7976967Y-19617198D02*
X7986491Y-19636246D01*
X7986491Y-19636246D02*
X7986491Y-19693389D01*
X7986491Y-19693389D02*
X7976967Y-19712436D01*
X7976967Y-19712436D02*
X7967443Y-19721960D01*
X7967443Y-19721960D02*
X7948396Y-19731484D01*
X7948396Y-19731484D02*
X7910301Y-19731484D01*
X7910301Y-19731484D02*
X7891253Y-19721960D01*
X8072205Y-19712436D02*
X8081729Y-19721960D01*
X8081729Y-19721960D02*
X8072205Y-19731484D01*
X8072205Y-19731484D02*
X8062682Y-19721960D01*
X8062682Y-19721960D02*
X8072205Y-19712436D01*
X8072205Y-19712436D02*
X8072205Y-19731484D01*
X8072205Y-19607674D02*
X8081729Y-19617198D01*
X8081729Y-19617198D02*
X8072205Y-19626722D01*
X8072205Y-19626722D02*
X8062682Y-19617198D01*
X8062682Y-19617198D02*
X8072205Y-19607674D01*
X8072205Y-19607674D02*
X8072205Y-19626722D01*
D12*
X6285000Y-19982500D02*
X6440000Y-20137500D01*
X6440000Y-19982500D02*
X6285000Y-20137500D01*
D11*
X6805539Y-20151484D02*
X6691253Y-20151484D01*
X6748396Y-20151484D02*
X6748396Y-19951484D01*
X6748396Y-19951484D02*
X6729348Y-19980055D01*
X6729348Y-19980055D02*
X6710301Y-19999103D01*
X6710301Y-19999103D02*
X6691253Y-20008627D01*
X6891253Y-20132436D02*
X6900777Y-20141960D01*
X6900777Y-20141960D02*
X6891253Y-20151484D01*
X6891253Y-20151484D02*
X6881729Y-20141960D01*
X6881729Y-20141960D02*
X6891253Y-20132436D01*
X6891253Y-20132436D02*
X6891253Y-20151484D01*
X7081729Y-19951484D02*
X6986491Y-19951484D01*
X6986491Y-19951484D02*
X6976967Y-20046722D01*
X6976967Y-20046722D02*
X6986491Y-20037198D01*
X6986491Y-20037198D02*
X7005539Y-20027674D01*
X7005539Y-20027674D02*
X7053158Y-20027674D01*
X7053158Y-20027674D02*
X7072205Y-20037198D01*
X7072205Y-20037198D02*
X7081729Y-20046722D01*
X7081729Y-20046722D02*
X7091253Y-20065770D01*
X7091253Y-20065770D02*
X7091253Y-20113389D01*
X7091253Y-20113389D02*
X7081729Y-20132436D01*
X7081729Y-20132436D02*
X7072205Y-20141960D01*
X7072205Y-20141960D02*
X7053158Y-20151484D01*
X7053158Y-20151484D02*
X7005539Y-20151484D01*
X7005539Y-20151484D02*
X6986491Y-20141960D01*
X6986491Y-20141960D02*
X6976967Y-20132436D01*
X7272205Y-19951484D02*
X7176967Y-19951484D01*
X7176967Y-19951484D02*
X7167443Y-20046722D01*
X7167443Y-20046722D02*
X7176967Y-20037198D01*
X7176967Y-20037198D02*
X7196015Y-20027674D01*
X7196015Y-20027674D02*
X7243634Y-20027674D01*
X7243634Y-20027674D02*
X7262682Y-20037198D01*
X7262682Y-20037198D02*
X7272205Y-20046722D01*
X7272205Y-20046722D02*
X7281729Y-20065770D01*
X7281729Y-20065770D02*
X7281729Y-20113389D01*
X7281729Y-20113389D02*
X7272205Y-20132436D01*
X7272205Y-20132436D02*
X7262682Y-20141960D01*
X7262682Y-20141960D02*
X7243634Y-20151484D01*
X7243634Y-20151484D02*
X7196015Y-20151484D01*
X7196015Y-20151484D02*
X7176967Y-20141960D01*
X7176967Y-20141960D02*
X7167443Y-20132436D01*
X7405539Y-19951484D02*
X7424586Y-19951484D01*
X7424586Y-19951484D02*
X7443634Y-19961008D01*
X7443634Y-19961008D02*
X7453158Y-19970531D01*
X7453158Y-19970531D02*
X7462682Y-19989579D01*
X7462682Y-19989579D02*
X7472205Y-20027674D01*
X7472205Y-20027674D02*
X7472205Y-20075293D01*
X7472205Y-20075293D02*
X7462682Y-20113389D01*
X7462682Y-20113389D02*
X7453158Y-20132436D01*
X7453158Y-20132436D02*
X7443634Y-20141960D01*
X7443634Y-20141960D02*
X7424586Y-20151484D01*
X7424586Y-20151484D02*
X7405539Y-20151484D01*
X7405539Y-20151484D02*
X7386491Y-20141960D01*
X7386491Y-20141960D02*
X7376967Y-20132436D01*
X7376967Y-20132436D02*
X7367443Y-20113389D01*
X7367443Y-20113389D02*
X7357920Y-20075293D01*
X7357920Y-20075293D02*
X7357920Y-20027674D01*
X7357920Y-20027674D02*
X7367443Y-19989579D01*
X7367443Y-19989579D02*
X7376967Y-19970531D01*
X7376967Y-19970531D02*
X7386491Y-19961008D01*
X7386491Y-19961008D02*
X7405539Y-19951484D01*
X7557920Y-20151484D02*
X7557920Y-20018150D01*
X7557920Y-20037198D02*
X7567443Y-20027674D01*
X7567443Y-20027674D02*
X7586491Y-20018150D01*
X7586491Y-20018150D02*
X7615063Y-20018150D01*
X7615063Y-20018150D02*
X7634110Y-20027674D01*
X7634110Y-20027674D02*
X7643634Y-20046722D01*
X7643634Y-20046722D02*
X7643634Y-20151484D01*
X7643634Y-20046722D02*
X7653158Y-20027674D01*
X7653158Y-20027674D02*
X7672205Y-20018150D01*
X7672205Y-20018150D02*
X7700777Y-20018150D01*
X7700777Y-20018150D02*
X7719824Y-20027674D01*
X7719824Y-20027674D02*
X7729348Y-20046722D01*
X7729348Y-20046722D02*
X7729348Y-20151484D01*
X7824586Y-20151484D02*
X7824586Y-20018150D01*
X7824586Y-20037198D02*
X7834110Y-20027674D01*
X7834110Y-20027674D02*
X7853158Y-20018150D01*
X7853158Y-20018150D02*
X7881729Y-20018150D01*
X7881729Y-20018150D02*
X7900777Y-20027674D01*
X7900777Y-20027674D02*
X7910301Y-20046722D01*
X7910301Y-20046722D02*
X7910301Y-20151484D01*
X7910301Y-20046722D02*
X7919824Y-20027674D01*
X7919824Y-20027674D02*
X7938872Y-20018150D01*
X7938872Y-20018150D02*
X7967443Y-20018150D01*
X7967443Y-20018150D02*
X7986491Y-20027674D01*
X7986491Y-20027674D02*
X7996015Y-20046722D01*
X7996015Y-20046722D02*
X7996015Y-20151484D01*
X8386491Y-19941960D02*
X8215063Y-20199103D01*
X8643634Y-19951484D02*
X8662682Y-19951484D01*
X8662682Y-19951484D02*
X8681729Y-19961008D01*
X8681729Y-19961008D02*
X8691253Y-19970531D01*
X8691253Y-19970531D02*
X8700777Y-19989579D01*
X8700777Y-19989579D02*
X8710301Y-20027674D01*
X8710301Y-20027674D02*
X8710301Y-20075293D01*
X8710301Y-20075293D02*
X8700777Y-20113389D01*
X8700777Y-20113389D02*
X8691253Y-20132436D01*
X8691253Y-20132436D02*
X8681729Y-20141960D01*
X8681729Y-20141960D02*
X8662682Y-20151484D01*
X8662682Y-20151484D02*
X8643634Y-20151484D01*
X8643634Y-20151484D02*
X8624587Y-20141960D01*
X8624587Y-20141960D02*
X8615063Y-20132436D01*
X8615063Y-20132436D02*
X8605539Y-20113389D01*
X8605539Y-20113389D02*
X8596015Y-20075293D01*
X8596015Y-20075293D02*
X8596015Y-20027674D01*
X8596015Y-20027674D02*
X8605539Y-19989579D01*
X8605539Y-19989579D02*
X8615063Y-19970531D01*
X8615063Y-19970531D02*
X8624587Y-19961008D01*
X8624587Y-19961008D02*
X8643634Y-19951484D01*
X8796015Y-20132436D02*
X8805539Y-20141960D01*
X8805539Y-20141960D02*
X8796015Y-20151484D01*
X8796015Y-20151484D02*
X8786491Y-20141960D01*
X8786491Y-20141960D02*
X8796015Y-20132436D01*
X8796015Y-20132436D02*
X8796015Y-20151484D01*
X8929348Y-19951484D02*
X8948396Y-19951484D01*
X8948396Y-19951484D02*
X8967444Y-19961008D01*
X8967444Y-19961008D02*
X8976968Y-19970531D01*
X8976968Y-19970531D02*
X8986491Y-19989579D01*
X8986491Y-19989579D02*
X8996015Y-20027674D01*
X8996015Y-20027674D02*
X8996015Y-20075293D01*
X8996015Y-20075293D02*
X8986491Y-20113389D01*
X8986491Y-20113389D02*
X8976968Y-20132436D01*
X8976968Y-20132436D02*
X8967444Y-20141960D01*
X8967444Y-20141960D02*
X8948396Y-20151484D01*
X8948396Y-20151484D02*
X8929348Y-20151484D01*
X8929348Y-20151484D02*
X8910301Y-20141960D01*
X8910301Y-20141960D02*
X8900777Y-20132436D01*
X8900777Y-20132436D02*
X8891253Y-20113389D01*
X8891253Y-20113389D02*
X8881729Y-20075293D01*
X8881729Y-20075293D02*
X8881729Y-20027674D01*
X8881729Y-20027674D02*
X8891253Y-19989579D01*
X8891253Y-19989579D02*
X8900777Y-19970531D01*
X8900777Y-19970531D02*
X8910301Y-19961008D01*
X8910301Y-19961008D02*
X8929348Y-19951484D01*
X9167444Y-19951484D02*
X9129348Y-19951484D01*
X9129348Y-19951484D02*
X9110301Y-19961008D01*
X9110301Y-19961008D02*
X9100777Y-19970531D01*
X9100777Y-19970531D02*
X9081729Y-19999103D01*
X9081729Y-19999103D02*
X9072206Y-20037198D01*
X9072206Y-20037198D02*
X9072206Y-20113389D01*
X9072206Y-20113389D02*
X9081729Y-20132436D01*
X9081729Y-20132436D02*
X9091253Y-20141960D01*
X9091253Y-20141960D02*
X9110301Y-20151484D01*
X9110301Y-20151484D02*
X9148396Y-20151484D01*
X9148396Y-20151484D02*
X9167444Y-20141960D01*
X9167444Y-20141960D02*
X9176968Y-20132436D01*
X9176968Y-20132436D02*
X9186491Y-20113389D01*
X9186491Y-20113389D02*
X9186491Y-20065770D01*
X9186491Y-20065770D02*
X9176968Y-20046722D01*
X9176968Y-20046722D02*
X9167444Y-20037198D01*
X9167444Y-20037198D02*
X9148396Y-20027674D01*
X9148396Y-20027674D02*
X9110301Y-20027674D01*
X9110301Y-20027674D02*
X9091253Y-20037198D01*
X9091253Y-20037198D02*
X9081729Y-20046722D01*
X9081729Y-20046722D02*
X9072206Y-20065770D01*
X9376968Y-20151484D02*
X9262682Y-20151484D01*
X9319825Y-20151484D02*
X9319825Y-19951484D01*
X9319825Y-19951484D02*
X9300777Y-19980055D01*
X9300777Y-19980055D02*
X9281729Y-19999103D01*
X9281729Y-19999103D02*
X9262682Y-20008627D01*
X9500777Y-19951484D02*
X9519825Y-19951484D01*
X9519825Y-19951484D02*
X9538872Y-19961008D01*
X9538872Y-19961008D02*
X9548396Y-19970531D01*
X9548396Y-19970531D02*
X9557920Y-19989579D01*
X9557920Y-19989579D02*
X9567444Y-20027674D01*
X9567444Y-20027674D02*
X9567444Y-20075293D01*
X9567444Y-20075293D02*
X9557920Y-20113389D01*
X9557920Y-20113389D02*
X9548396Y-20132436D01*
X9548396Y-20132436D02*
X9538872Y-20141960D01*
X9538872Y-20141960D02*
X9519825Y-20151484D01*
X9519825Y-20151484D02*
X9500777Y-20151484D01*
X9500777Y-20151484D02*
X9481729Y-20141960D01*
X9481729Y-20141960D02*
X9472206Y-20132436D01*
X9472206Y-20132436D02*
X9462682Y-20113389D01*
X9462682Y-20113389D02*
X9453158Y-20075293D01*
X9453158Y-20075293D02*
X9453158Y-20027674D01*
X9453158Y-20027674D02*
X9462682Y-19989579D01*
X9462682Y-19989579D02*
X9472206Y-19970531D01*
X9472206Y-19970531D02*
X9481729Y-19961008D01*
X9481729Y-19961008D02*
X9500777Y-19951484D01*
X9643634Y-19951484D02*
X9643634Y-19989579D01*
X9719825Y-19951484D02*
X9719825Y-19989579D01*
X10015063Y-20227674D02*
X10005539Y-20218150D01*
X10005539Y-20218150D02*
X9986491Y-20189579D01*
X9986491Y-20189579D02*
X9976968Y-20170531D01*
X9976968Y-20170531D02*
X9967444Y-20141960D01*
X9967444Y-20141960D02*
X9957920Y-20094341D01*
X9957920Y-20094341D02*
X9957920Y-20056246D01*
X9957920Y-20056246D02*
X9967444Y-20008627D01*
X9967444Y-20008627D02*
X9976968Y-19980055D01*
X9976968Y-19980055D02*
X9986491Y-19961008D01*
X9986491Y-19961008D02*
X10005539Y-19932436D01*
X10005539Y-19932436D02*
X10015063Y-19922912D01*
X10176968Y-20018150D02*
X10176968Y-20151484D01*
X10129349Y-19941960D02*
X10081730Y-20084817D01*
X10081730Y-20084817D02*
X10205539Y-20084817D01*
X10434111Y-20151484D02*
X10434111Y-19951484D01*
X10519825Y-20151484D02*
X10519825Y-20046722D01*
X10519825Y-20046722D02*
X10510301Y-20027674D01*
X10510301Y-20027674D02*
X10491253Y-20018150D01*
X10491253Y-20018150D02*
X10462682Y-20018150D01*
X10462682Y-20018150D02*
X10443634Y-20027674D01*
X10443634Y-20027674D02*
X10434111Y-20037198D01*
X10643634Y-20151484D02*
X10624587Y-20141960D01*
X10624587Y-20141960D02*
X10615063Y-20132436D01*
X10615063Y-20132436D02*
X10605539Y-20113389D01*
X10605539Y-20113389D02*
X10605539Y-20056246D01*
X10605539Y-20056246D02*
X10615063Y-20037198D01*
X10615063Y-20037198D02*
X10624587Y-20027674D01*
X10624587Y-20027674D02*
X10643634Y-20018150D01*
X10643634Y-20018150D02*
X10672206Y-20018150D01*
X10672206Y-20018150D02*
X10691253Y-20027674D01*
X10691253Y-20027674D02*
X10700777Y-20037198D01*
X10700777Y-20037198D02*
X10710301Y-20056246D01*
X10710301Y-20056246D02*
X10710301Y-20113389D01*
X10710301Y-20113389D02*
X10700777Y-20132436D01*
X10700777Y-20132436D02*
X10691253Y-20141960D01*
X10691253Y-20141960D02*
X10672206Y-20151484D01*
X10672206Y-20151484D02*
X10643634Y-20151484D01*
X10824587Y-20151484D02*
X10805539Y-20141960D01*
X10805539Y-20141960D02*
X10796015Y-20122912D01*
X10796015Y-20122912D02*
X10796015Y-19951484D01*
X10976968Y-20141960D02*
X10957920Y-20151484D01*
X10957920Y-20151484D02*
X10919825Y-20151484D01*
X10919825Y-20151484D02*
X10900777Y-20141960D01*
X10900777Y-20141960D02*
X10891253Y-20122912D01*
X10891253Y-20122912D02*
X10891253Y-20046722D01*
X10891253Y-20046722D02*
X10900777Y-20027674D01*
X10900777Y-20027674D02*
X10919825Y-20018150D01*
X10919825Y-20018150D02*
X10957920Y-20018150D01*
X10957920Y-20018150D02*
X10976968Y-20027674D01*
X10976968Y-20027674D02*
X10986492Y-20046722D01*
X10986492Y-20046722D02*
X10986492Y-20065770D01*
X10986492Y-20065770D02*
X10891253Y-20084817D01*
X11062682Y-20141960D02*
X11081730Y-20151484D01*
X11081730Y-20151484D02*
X11119825Y-20151484D01*
X11119825Y-20151484D02*
X11138873Y-20141960D01*
X11138873Y-20141960D02*
X11148396Y-20122912D01*
X11148396Y-20122912D02*
X11148396Y-20113389D01*
X11148396Y-20113389D02*
X11138873Y-20094341D01*
X11138873Y-20094341D02*
X11119825Y-20084817D01*
X11119825Y-20084817D02*
X11091253Y-20084817D01*
X11091253Y-20084817D02*
X11072206Y-20075293D01*
X11072206Y-20075293D02*
X11062682Y-20056246D01*
X11062682Y-20056246D02*
X11062682Y-20046722D01*
X11062682Y-20046722D02*
X11072206Y-20027674D01*
X11072206Y-20027674D02*
X11091253Y-20018150D01*
X11091253Y-20018150D02*
X11119825Y-20018150D01*
X11119825Y-20018150D02*
X11138873Y-20027674D01*
X11215063Y-20227674D02*
X11224587Y-20218150D01*
X11224587Y-20218150D02*
X11243634Y-20189579D01*
X11243634Y-20189579D02*
X11253158Y-20170531D01*
X11253158Y-20170531D02*
X11262682Y-20141960D01*
X11262682Y-20141960D02*
X11272206Y-20094341D01*
X11272206Y-20094341D02*
X11272206Y-20056246D01*
X11272206Y-20056246D02*
X11262682Y-20008627D01*
X11262682Y-20008627D02*
X11253158Y-19980055D01*
X11253158Y-19980055D02*
X11243634Y-19961008D01*
X11243634Y-19961008D02*
X11224587Y-19932436D01*
X11224587Y-19932436D02*
X11215063Y-19922912D01*
X11576968Y-20227674D02*
X11567444Y-20218150D01*
X11567444Y-20218150D02*
X11548396Y-20189579D01*
X11548396Y-20189579D02*
X11538872Y-20170531D01*
X11538872Y-20170531D02*
X11529349Y-20141960D01*
X11529349Y-20141960D02*
X11519825Y-20094341D01*
X11519825Y-20094341D02*
X11519825Y-20056246D01*
X11519825Y-20056246D02*
X11529349Y-20008627D01*
X11529349Y-20008627D02*
X11538872Y-19980055D01*
X11538872Y-19980055D02*
X11548396Y-19961008D01*
X11548396Y-19961008D02*
X11567444Y-19932436D01*
X11567444Y-19932436D02*
X11576968Y-19922912D01*
X11653158Y-20018150D02*
X11653158Y-20151484D01*
X11653158Y-20037198D02*
X11662682Y-20027674D01*
X11662682Y-20027674D02*
X11681730Y-20018150D01*
X11681730Y-20018150D02*
X11710301Y-20018150D01*
X11710301Y-20018150D02*
X11729349Y-20027674D01*
X11729349Y-20027674D02*
X11738872Y-20046722D01*
X11738872Y-20046722D02*
X11738872Y-20151484D01*
X11862682Y-20151484D02*
X11843634Y-20141960D01*
X11843634Y-20141960D02*
X11834111Y-20132436D01*
X11834111Y-20132436D02*
X11824587Y-20113389D01*
X11824587Y-20113389D02*
X11824587Y-20056246D01*
X11824587Y-20056246D02*
X11834111Y-20037198D01*
X11834111Y-20037198D02*
X11843634Y-20027674D01*
X11843634Y-20027674D02*
X11862682Y-20018150D01*
X11862682Y-20018150D02*
X11891253Y-20018150D01*
X11891253Y-20018150D02*
X11910301Y-20027674D01*
X11910301Y-20027674D02*
X11919825Y-20037198D01*
X11919825Y-20037198D02*
X11929349Y-20056246D01*
X11929349Y-20056246D02*
X11929349Y-20113389D01*
X11929349Y-20113389D02*
X11919825Y-20132436D01*
X11919825Y-20132436D02*
X11910301Y-20141960D01*
X11910301Y-20141960D02*
X11891253Y-20151484D01*
X11891253Y-20151484D02*
X11862682Y-20151484D01*
X11986492Y-20018150D02*
X12062682Y-20018150D01*
X12015063Y-19951484D02*
X12015063Y-20122912D01*
X12015063Y-20122912D02*
X12024587Y-20141960D01*
X12024587Y-20141960D02*
X12043634Y-20151484D01*
X12043634Y-20151484D02*
X12062682Y-20151484D01*
X12281730Y-20018150D02*
X12281730Y-20218150D01*
X12281730Y-20027674D02*
X12300777Y-20018150D01*
X12300777Y-20018150D02*
X12338873Y-20018150D01*
X12338873Y-20018150D02*
X12357920Y-20027674D01*
X12357920Y-20027674D02*
X12367444Y-20037198D01*
X12367444Y-20037198D02*
X12376968Y-20056246D01*
X12376968Y-20056246D02*
X12376968Y-20113389D01*
X12376968Y-20113389D02*
X12367444Y-20132436D01*
X12367444Y-20132436D02*
X12357920Y-20141960D01*
X12357920Y-20141960D02*
X12338873Y-20151484D01*
X12338873Y-20151484D02*
X12300777Y-20151484D01*
X12300777Y-20151484D02*
X12281730Y-20141960D01*
X12491253Y-20151484D02*
X12472206Y-20141960D01*
X12472206Y-20141960D02*
X12462682Y-20122912D01*
X12462682Y-20122912D02*
X12462682Y-19951484D01*
X12653158Y-20151484D02*
X12653158Y-20046722D01*
X12653158Y-20046722D02*
X12643634Y-20027674D01*
X12643634Y-20027674D02*
X12624587Y-20018150D01*
X12624587Y-20018150D02*
X12586492Y-20018150D01*
X12586492Y-20018150D02*
X12567444Y-20027674D01*
X12653158Y-20141960D02*
X12634111Y-20151484D01*
X12634111Y-20151484D02*
X12586492Y-20151484D01*
X12586492Y-20151484D02*
X12567444Y-20141960D01*
X12567444Y-20141960D02*
X12557920Y-20122912D01*
X12557920Y-20122912D02*
X12557920Y-20103865D01*
X12557920Y-20103865D02*
X12567444Y-20084817D01*
X12567444Y-20084817D02*
X12586492Y-20075293D01*
X12586492Y-20075293D02*
X12634111Y-20075293D01*
X12634111Y-20075293D02*
X12653158Y-20065770D01*
X12719825Y-20018150D02*
X12796015Y-20018150D01*
X12748396Y-19951484D02*
X12748396Y-20122912D01*
X12748396Y-20122912D02*
X12757920Y-20141960D01*
X12757920Y-20141960D02*
X12776968Y-20151484D01*
X12776968Y-20151484D02*
X12796015Y-20151484D01*
X12938873Y-20141960D02*
X12919825Y-20151484D01*
X12919825Y-20151484D02*
X12881730Y-20151484D01*
X12881730Y-20151484D02*
X12862682Y-20141960D01*
X12862682Y-20141960D02*
X12853158Y-20122912D01*
X12853158Y-20122912D02*
X12853158Y-20046722D01*
X12853158Y-20046722D02*
X12862682Y-20027674D01*
X12862682Y-20027674D02*
X12881730Y-20018150D01*
X12881730Y-20018150D02*
X12919825Y-20018150D01*
X12919825Y-20018150D02*
X12938873Y-20027674D01*
X12938873Y-20027674D02*
X12948396Y-20046722D01*
X12948396Y-20046722D02*
X12948396Y-20065770D01*
X12948396Y-20065770D02*
X12853158Y-20084817D01*
X13119825Y-20151484D02*
X13119825Y-19951484D01*
X13119825Y-20141960D02*
X13100777Y-20151484D01*
X13100777Y-20151484D02*
X13062682Y-20151484D01*
X13062682Y-20151484D02*
X13043634Y-20141960D01*
X13043634Y-20141960D02*
X13034111Y-20132436D01*
X13034111Y-20132436D02*
X13024587Y-20113389D01*
X13024587Y-20113389D02*
X13024587Y-20056246D01*
X13024587Y-20056246D02*
X13034111Y-20037198D01*
X13034111Y-20037198D02*
X13043634Y-20027674D01*
X13043634Y-20027674D02*
X13062682Y-20018150D01*
X13062682Y-20018150D02*
X13100777Y-20018150D01*
X13100777Y-20018150D02*
X13119825Y-20027674D01*
X13196015Y-20227674D02*
X13205539Y-20218150D01*
X13205539Y-20218150D02*
X13224587Y-20189579D01*
X13224587Y-20189579D02*
X13234111Y-20170531D01*
X13234111Y-20170531D02*
X13243634Y-20141960D01*
X13243634Y-20141960D02*
X13253158Y-20094341D01*
X13253158Y-20094341D02*
X13253158Y-20056246D01*
X13253158Y-20056246D02*
X13243634Y-20008627D01*
X13243634Y-20008627D02*
X13234111Y-19980055D01*
X13234111Y-19980055D02*
X13224587Y-19961008D01*
X13224587Y-19961008D02*
X13205539Y-19932436D01*
X13205539Y-19932436D02*
X13196015Y-19922912D01*
X6440000Y-20335000D02*
G75*
G02*
X6240000Y-20335000I-100000J0D01*
G01*
X6240000Y-20335000D02*
G75*
G02*
X6440000Y-20335000I100000J0D01*
G01*
X6691253Y-20245531D02*
X6700777Y-20236008D01*
X6700777Y-20236008D02*
X6719824Y-20226484D01*
X6719824Y-20226484D02*
X6767443Y-20226484D01*
X6767443Y-20226484D02*
X6786491Y-20236008D01*
X6786491Y-20236008D02*
X6796015Y-20245531D01*
X6796015Y-20245531D02*
X6805539Y-20264579D01*
X6805539Y-20264579D02*
X6805539Y-20283627D01*
X6805539Y-20283627D02*
X6796015Y-20312198D01*
X6796015Y-20312198D02*
X6681729Y-20426484D01*
X6681729Y-20426484D02*
X6805539Y-20426484D01*
X6891253Y-20407436D02*
X6900777Y-20416960D01*
X6900777Y-20416960D02*
X6891253Y-20426484D01*
X6891253Y-20426484D02*
X6881729Y-20416960D01*
X6881729Y-20416960D02*
X6891253Y-20407436D01*
X6891253Y-20407436D02*
X6891253Y-20426484D01*
X6967443Y-20226484D02*
X7100777Y-20226484D01*
X7100777Y-20226484D02*
X7015062Y-20426484D01*
X7215062Y-20226484D02*
X7234110Y-20226484D01*
X7234110Y-20226484D02*
X7253158Y-20236008D01*
X7253158Y-20236008D02*
X7262682Y-20245531D01*
X7262682Y-20245531D02*
X7272205Y-20264579D01*
X7272205Y-20264579D02*
X7281729Y-20302674D01*
X7281729Y-20302674D02*
X7281729Y-20350293D01*
X7281729Y-20350293D02*
X7272205Y-20388389D01*
X7272205Y-20388389D02*
X7262682Y-20407436D01*
X7262682Y-20407436D02*
X7253158Y-20416960D01*
X7253158Y-20416960D02*
X7234110Y-20426484D01*
X7234110Y-20426484D02*
X7215062Y-20426484D01*
X7215062Y-20426484D02*
X7196015Y-20416960D01*
X7196015Y-20416960D02*
X7186491Y-20407436D01*
X7186491Y-20407436D02*
X7176967Y-20388389D01*
X7176967Y-20388389D02*
X7167443Y-20350293D01*
X7167443Y-20350293D02*
X7167443Y-20302674D01*
X7167443Y-20302674D02*
X7176967Y-20264579D01*
X7176967Y-20264579D02*
X7186491Y-20245531D01*
X7186491Y-20245531D02*
X7196015Y-20236008D01*
X7196015Y-20236008D02*
X7215062Y-20226484D01*
X7405539Y-20226484D02*
X7424586Y-20226484D01*
X7424586Y-20226484D02*
X7443634Y-20236008D01*
X7443634Y-20236008D02*
X7453158Y-20245531D01*
X7453158Y-20245531D02*
X7462682Y-20264579D01*
X7462682Y-20264579D02*
X7472205Y-20302674D01*
X7472205Y-20302674D02*
X7472205Y-20350293D01*
X7472205Y-20350293D02*
X7462682Y-20388389D01*
X7462682Y-20388389D02*
X7453158Y-20407436D01*
X7453158Y-20407436D02*
X7443634Y-20416960D01*
X7443634Y-20416960D02*
X7424586Y-20426484D01*
X7424586Y-20426484D02*
X7405539Y-20426484D01*
X7405539Y-20426484D02*
X7386491Y-20416960D01*
X7386491Y-20416960D02*
X7376967Y-20407436D01*
X7376967Y-20407436D02*
X7367443Y-20388389D01*
X7367443Y-20388389D02*
X7357920Y-20350293D01*
X7357920Y-20350293D02*
X7357920Y-20302674D01*
X7357920Y-20302674D02*
X7367443Y-20264579D01*
X7367443Y-20264579D02*
X7376967Y-20245531D01*
X7376967Y-20245531D02*
X7386491Y-20236008D01*
X7386491Y-20236008D02*
X7405539Y-20226484D01*
X7557920Y-20426484D02*
X7557920Y-20293150D01*
X7557920Y-20312198D02*
X7567443Y-20302674D01*
X7567443Y-20302674D02*
X7586491Y-20293150D01*
X7586491Y-20293150D02*
X7615063Y-20293150D01*
X7615063Y-20293150D02*
X7634110Y-20302674D01*
X7634110Y-20302674D02*
X7643634Y-20321722D01*
X7643634Y-20321722D02*
X7643634Y-20426484D01*
X7643634Y-20321722D02*
X7653158Y-20302674D01*
X7653158Y-20302674D02*
X7672205Y-20293150D01*
X7672205Y-20293150D02*
X7700777Y-20293150D01*
X7700777Y-20293150D02*
X7719824Y-20302674D01*
X7719824Y-20302674D02*
X7729348Y-20321722D01*
X7729348Y-20321722D02*
X7729348Y-20426484D01*
X7824586Y-20426484D02*
X7824586Y-20293150D01*
X7824586Y-20312198D02*
X7834110Y-20302674D01*
X7834110Y-20302674D02*
X7853158Y-20293150D01*
X7853158Y-20293150D02*
X7881729Y-20293150D01*
X7881729Y-20293150D02*
X7900777Y-20302674D01*
X7900777Y-20302674D02*
X7910301Y-20321722D01*
X7910301Y-20321722D02*
X7910301Y-20426484D01*
X7910301Y-20321722D02*
X7919824Y-20302674D01*
X7919824Y-20302674D02*
X7938872Y-20293150D01*
X7938872Y-20293150D02*
X7967443Y-20293150D01*
X7967443Y-20293150D02*
X7986491Y-20302674D01*
X7986491Y-20302674D02*
X7996015Y-20321722D01*
X7996015Y-20321722D02*
X7996015Y-20426484D01*
X8386491Y-20216960D02*
X8215063Y-20474103D01*
X8643634Y-20226484D02*
X8662682Y-20226484D01*
X8662682Y-20226484D02*
X8681729Y-20236008D01*
X8681729Y-20236008D02*
X8691253Y-20245531D01*
X8691253Y-20245531D02*
X8700777Y-20264579D01*
X8700777Y-20264579D02*
X8710301Y-20302674D01*
X8710301Y-20302674D02*
X8710301Y-20350293D01*
X8710301Y-20350293D02*
X8700777Y-20388389D01*
X8700777Y-20388389D02*
X8691253Y-20407436D01*
X8691253Y-20407436D02*
X8681729Y-20416960D01*
X8681729Y-20416960D02*
X8662682Y-20426484D01*
X8662682Y-20426484D02*
X8643634Y-20426484D01*
X8643634Y-20426484D02*
X8624587Y-20416960D01*
X8624587Y-20416960D02*
X8615063Y-20407436D01*
X8615063Y-20407436D02*
X8605539Y-20388389D01*
X8605539Y-20388389D02*
X8596015Y-20350293D01*
X8596015Y-20350293D02*
X8596015Y-20302674D01*
X8596015Y-20302674D02*
X8605539Y-20264579D01*
X8605539Y-20264579D02*
X8615063Y-20245531D01*
X8615063Y-20245531D02*
X8624587Y-20236008D01*
X8624587Y-20236008D02*
X8643634Y-20226484D01*
X8796015Y-20407436D02*
X8805539Y-20416960D01*
X8805539Y-20416960D02*
X8796015Y-20426484D01*
X8796015Y-20426484D02*
X8786491Y-20416960D01*
X8786491Y-20416960D02*
X8796015Y-20407436D01*
X8796015Y-20407436D02*
X8796015Y-20426484D01*
X8996015Y-20426484D02*
X8881729Y-20426484D01*
X8938872Y-20426484D02*
X8938872Y-20226484D01*
X8938872Y-20226484D02*
X8919825Y-20255055D01*
X8919825Y-20255055D02*
X8900777Y-20274103D01*
X8900777Y-20274103D02*
X8881729Y-20283627D01*
X9119825Y-20226484D02*
X9138872Y-20226484D01*
X9138872Y-20226484D02*
X9157920Y-20236008D01*
X9157920Y-20236008D02*
X9167444Y-20245531D01*
X9167444Y-20245531D02*
X9176968Y-20264579D01*
X9176968Y-20264579D02*
X9186491Y-20302674D01*
X9186491Y-20302674D02*
X9186491Y-20350293D01*
X9186491Y-20350293D02*
X9176968Y-20388389D01*
X9176968Y-20388389D02*
X9167444Y-20407436D01*
X9167444Y-20407436D02*
X9157920Y-20416960D01*
X9157920Y-20416960D02*
X9138872Y-20426484D01*
X9138872Y-20426484D02*
X9119825Y-20426484D01*
X9119825Y-20426484D02*
X9100777Y-20416960D01*
X9100777Y-20416960D02*
X9091253Y-20407436D01*
X9091253Y-20407436D02*
X9081729Y-20388389D01*
X9081729Y-20388389D02*
X9072206Y-20350293D01*
X9072206Y-20350293D02*
X9072206Y-20302674D01*
X9072206Y-20302674D02*
X9081729Y-20264579D01*
X9081729Y-20264579D02*
X9091253Y-20245531D01*
X9091253Y-20245531D02*
X9100777Y-20236008D01*
X9100777Y-20236008D02*
X9119825Y-20226484D01*
X9357920Y-20226484D02*
X9319825Y-20226484D01*
X9319825Y-20226484D02*
X9300777Y-20236008D01*
X9300777Y-20236008D02*
X9291253Y-20245531D01*
X9291253Y-20245531D02*
X9272206Y-20274103D01*
X9272206Y-20274103D02*
X9262682Y-20312198D01*
X9262682Y-20312198D02*
X9262682Y-20388389D01*
X9262682Y-20388389D02*
X9272206Y-20407436D01*
X9272206Y-20407436D02*
X9281729Y-20416960D01*
X9281729Y-20416960D02*
X9300777Y-20426484D01*
X9300777Y-20426484D02*
X9338872Y-20426484D01*
X9338872Y-20426484D02*
X9357920Y-20416960D01*
X9357920Y-20416960D02*
X9367444Y-20407436D01*
X9367444Y-20407436D02*
X9376968Y-20388389D01*
X9376968Y-20388389D02*
X9376968Y-20340770D01*
X9376968Y-20340770D02*
X9367444Y-20321722D01*
X9367444Y-20321722D02*
X9357920Y-20312198D01*
X9357920Y-20312198D02*
X9338872Y-20302674D01*
X9338872Y-20302674D02*
X9300777Y-20302674D01*
X9300777Y-20302674D02*
X9281729Y-20312198D01*
X9281729Y-20312198D02*
X9272206Y-20321722D01*
X9272206Y-20321722D02*
X9262682Y-20340770D01*
X9443634Y-20226484D02*
X9567444Y-20226484D01*
X9567444Y-20226484D02*
X9500777Y-20302674D01*
X9500777Y-20302674D02*
X9529349Y-20302674D01*
X9529349Y-20302674D02*
X9548396Y-20312198D01*
X9548396Y-20312198D02*
X9557920Y-20321722D01*
X9557920Y-20321722D02*
X9567444Y-20340770D01*
X9567444Y-20340770D02*
X9567444Y-20388389D01*
X9567444Y-20388389D02*
X9557920Y-20407436D01*
X9557920Y-20407436D02*
X9548396Y-20416960D01*
X9548396Y-20416960D02*
X9529349Y-20426484D01*
X9529349Y-20426484D02*
X9472206Y-20426484D01*
X9472206Y-20426484D02*
X9453158Y-20416960D01*
X9453158Y-20416960D02*
X9443634Y-20407436D01*
X9643634Y-20226484D02*
X9643634Y-20264579D01*
X9719825Y-20226484D02*
X9719825Y-20264579D01*
X10015063Y-20502674D02*
X10005539Y-20493150D01*
X10005539Y-20493150D02*
X9986491Y-20464579D01*
X9986491Y-20464579D02*
X9976968Y-20445531D01*
X9976968Y-20445531D02*
X9967444Y-20416960D01*
X9967444Y-20416960D02*
X9957920Y-20369341D01*
X9957920Y-20369341D02*
X9957920Y-20331246D01*
X9957920Y-20331246D02*
X9967444Y-20283627D01*
X9967444Y-20283627D02*
X9976968Y-20255055D01*
X9976968Y-20255055D02*
X9986491Y-20236008D01*
X9986491Y-20236008D02*
X10005539Y-20207436D01*
X10005539Y-20207436D02*
X10015063Y-20197912D01*
X10176968Y-20293150D02*
X10176968Y-20426484D01*
X10129349Y-20216960D02*
X10081730Y-20359817D01*
X10081730Y-20359817D02*
X10205539Y-20359817D01*
X10434111Y-20426484D02*
X10434111Y-20226484D01*
X10519825Y-20426484D02*
X10519825Y-20321722D01*
X10519825Y-20321722D02*
X10510301Y-20302674D01*
X10510301Y-20302674D02*
X10491253Y-20293150D01*
X10491253Y-20293150D02*
X10462682Y-20293150D01*
X10462682Y-20293150D02*
X10443634Y-20302674D01*
X10443634Y-20302674D02*
X10434111Y-20312198D01*
X10643634Y-20426484D02*
X10624587Y-20416960D01*
X10624587Y-20416960D02*
X10615063Y-20407436D01*
X10615063Y-20407436D02*
X10605539Y-20388389D01*
X10605539Y-20388389D02*
X10605539Y-20331246D01*
X10605539Y-20331246D02*
X10615063Y-20312198D01*
X10615063Y-20312198D02*
X10624587Y-20302674D01*
X10624587Y-20302674D02*
X10643634Y-20293150D01*
X10643634Y-20293150D02*
X10672206Y-20293150D01*
X10672206Y-20293150D02*
X10691253Y-20302674D01*
X10691253Y-20302674D02*
X10700777Y-20312198D01*
X10700777Y-20312198D02*
X10710301Y-20331246D01*
X10710301Y-20331246D02*
X10710301Y-20388389D01*
X10710301Y-20388389D02*
X10700777Y-20407436D01*
X10700777Y-20407436D02*
X10691253Y-20416960D01*
X10691253Y-20416960D02*
X10672206Y-20426484D01*
X10672206Y-20426484D02*
X10643634Y-20426484D01*
X10824587Y-20426484D02*
X10805539Y-20416960D01*
X10805539Y-20416960D02*
X10796015Y-20397912D01*
X10796015Y-20397912D02*
X10796015Y-20226484D01*
X10976968Y-20416960D02*
X10957920Y-20426484D01*
X10957920Y-20426484D02*
X10919825Y-20426484D01*
X10919825Y-20426484D02*
X10900777Y-20416960D01*
X10900777Y-20416960D02*
X10891253Y-20397912D01*
X10891253Y-20397912D02*
X10891253Y-20321722D01*
X10891253Y-20321722D02*
X10900777Y-20302674D01*
X10900777Y-20302674D02*
X10919825Y-20293150D01*
X10919825Y-20293150D02*
X10957920Y-20293150D01*
X10957920Y-20293150D02*
X10976968Y-20302674D01*
X10976968Y-20302674D02*
X10986492Y-20321722D01*
X10986492Y-20321722D02*
X10986492Y-20340770D01*
X10986492Y-20340770D02*
X10891253Y-20359817D01*
X11062682Y-20416960D02*
X11081730Y-20426484D01*
X11081730Y-20426484D02*
X11119825Y-20426484D01*
X11119825Y-20426484D02*
X11138873Y-20416960D01*
X11138873Y-20416960D02*
X11148396Y-20397912D01*
X11148396Y-20397912D02*
X11148396Y-20388389D01*
X11148396Y-20388389D02*
X11138873Y-20369341D01*
X11138873Y-20369341D02*
X11119825Y-20359817D01*
X11119825Y-20359817D02*
X11091253Y-20359817D01*
X11091253Y-20359817D02*
X11072206Y-20350293D01*
X11072206Y-20350293D02*
X11062682Y-20331246D01*
X11062682Y-20331246D02*
X11062682Y-20321722D01*
X11062682Y-20321722D02*
X11072206Y-20302674D01*
X11072206Y-20302674D02*
X11091253Y-20293150D01*
X11091253Y-20293150D02*
X11119825Y-20293150D01*
X11119825Y-20293150D02*
X11138873Y-20302674D01*
X11215063Y-20502674D02*
X11224587Y-20493150D01*
X11224587Y-20493150D02*
X11243634Y-20464579D01*
X11243634Y-20464579D02*
X11253158Y-20445531D01*
X11253158Y-20445531D02*
X11262682Y-20416960D01*
X11262682Y-20416960D02*
X11272206Y-20369341D01*
X11272206Y-20369341D02*
X11272206Y-20331246D01*
X11272206Y-20331246D02*
X11262682Y-20283627D01*
X11262682Y-20283627D02*
X11253158Y-20255055D01*
X11253158Y-20255055D02*
X11243634Y-20236008D01*
X11243634Y-20236008D02*
X11224587Y-20207436D01*
X11224587Y-20207436D02*
X11215063Y-20197912D01*
X11576968Y-20502674D02*
X11567444Y-20493150D01*
X11567444Y-20493150D02*
X11548396Y-20464579D01*
X11548396Y-20464579D02*
X11538872Y-20445531D01*
X11538872Y-20445531D02*
X11529349Y-20416960D01*
X11529349Y-20416960D02*
X11519825Y-20369341D01*
X11519825Y-20369341D02*
X11519825Y-20331246D01*
X11519825Y-20331246D02*
X11529349Y-20283627D01*
X11529349Y-20283627D02*
X11538872Y-20255055D01*
X11538872Y-20255055D02*
X11548396Y-20236008D01*
X11548396Y-20236008D02*
X11567444Y-20207436D01*
X11567444Y-20207436D02*
X11576968Y-20197912D01*
X11653158Y-20293150D02*
X11653158Y-20426484D01*
X11653158Y-20312198D02*
X11662682Y-20302674D01*
X11662682Y-20302674D02*
X11681730Y-20293150D01*
X11681730Y-20293150D02*
X11710301Y-20293150D01*
X11710301Y-20293150D02*
X11729349Y-20302674D01*
X11729349Y-20302674D02*
X11738872Y-20321722D01*
X11738872Y-20321722D02*
X11738872Y-20426484D01*
X11862682Y-20426484D02*
X11843634Y-20416960D01*
X11843634Y-20416960D02*
X11834111Y-20407436D01*
X11834111Y-20407436D02*
X11824587Y-20388389D01*
X11824587Y-20388389D02*
X11824587Y-20331246D01*
X11824587Y-20331246D02*
X11834111Y-20312198D01*
X11834111Y-20312198D02*
X11843634Y-20302674D01*
X11843634Y-20302674D02*
X11862682Y-20293150D01*
X11862682Y-20293150D02*
X11891253Y-20293150D01*
X11891253Y-20293150D02*
X11910301Y-20302674D01*
X11910301Y-20302674D02*
X11919825Y-20312198D01*
X11919825Y-20312198D02*
X11929349Y-20331246D01*
X11929349Y-20331246D02*
X11929349Y-20388389D01*
X11929349Y-20388389D02*
X11919825Y-20407436D01*
X11919825Y-20407436D02*
X11910301Y-20416960D01*
X11910301Y-20416960D02*
X11891253Y-20426484D01*
X11891253Y-20426484D02*
X11862682Y-20426484D01*
X11986492Y-20293150D02*
X12062682Y-20293150D01*
X12015063Y-20226484D02*
X12015063Y-20397912D01*
X12015063Y-20397912D02*
X12024587Y-20416960D01*
X12024587Y-20416960D02*
X12043634Y-20426484D01*
X12043634Y-20426484D02*
X12062682Y-20426484D01*
X12281730Y-20293150D02*
X12281730Y-20493150D01*
X12281730Y-20302674D02*
X12300777Y-20293150D01*
X12300777Y-20293150D02*
X12338873Y-20293150D01*
X12338873Y-20293150D02*
X12357920Y-20302674D01*
X12357920Y-20302674D02*
X12367444Y-20312198D01*
X12367444Y-20312198D02*
X12376968Y-20331246D01*
X12376968Y-20331246D02*
X12376968Y-20388389D01*
X12376968Y-20388389D02*
X12367444Y-20407436D01*
X12367444Y-20407436D02*
X12357920Y-20416960D01*
X12357920Y-20416960D02*
X12338873Y-20426484D01*
X12338873Y-20426484D02*
X12300777Y-20426484D01*
X12300777Y-20426484D02*
X12281730Y-20416960D01*
X12491253Y-20426484D02*
X12472206Y-20416960D01*
X12472206Y-20416960D02*
X12462682Y-20397912D01*
X12462682Y-20397912D02*
X12462682Y-20226484D01*
X12653158Y-20426484D02*
X12653158Y-20321722D01*
X12653158Y-20321722D02*
X12643634Y-20302674D01*
X12643634Y-20302674D02*
X12624587Y-20293150D01*
X12624587Y-20293150D02*
X12586492Y-20293150D01*
X12586492Y-20293150D02*
X12567444Y-20302674D01*
X12653158Y-20416960D02*
X12634111Y-20426484D01*
X12634111Y-20426484D02*
X12586492Y-20426484D01*
X12586492Y-20426484D02*
X12567444Y-20416960D01*
X12567444Y-20416960D02*
X12557920Y-20397912D01*
X12557920Y-20397912D02*
X12557920Y-20378865D01*
X12557920Y-20378865D02*
X12567444Y-20359817D01*
X12567444Y-20359817D02*
X12586492Y-20350293D01*
X12586492Y-20350293D02*
X12634111Y-20350293D01*
X12634111Y-20350293D02*
X12653158Y-20340770D01*
X12719825Y-20293150D02*
X12796015Y-20293150D01*
X12748396Y-20226484D02*
X12748396Y-20397912D01*
X12748396Y-20397912D02*
X12757920Y-20416960D01*
X12757920Y-20416960D02*
X12776968Y-20426484D01*
X12776968Y-20426484D02*
X12796015Y-20426484D01*
X12938873Y-20416960D02*
X12919825Y-20426484D01*
X12919825Y-20426484D02*
X12881730Y-20426484D01*
X12881730Y-20426484D02*
X12862682Y-20416960D01*
X12862682Y-20416960D02*
X12853158Y-20397912D01*
X12853158Y-20397912D02*
X12853158Y-20321722D01*
X12853158Y-20321722D02*
X12862682Y-20302674D01*
X12862682Y-20302674D02*
X12881730Y-20293150D01*
X12881730Y-20293150D02*
X12919825Y-20293150D01*
X12919825Y-20293150D02*
X12938873Y-20302674D01*
X12938873Y-20302674D02*
X12948396Y-20321722D01*
X12948396Y-20321722D02*
X12948396Y-20340770D01*
X12948396Y-20340770D02*
X12853158Y-20359817D01*
X13119825Y-20426484D02*
X13119825Y-20226484D01*
X13119825Y-20416960D02*
X13100777Y-20426484D01*
X13100777Y-20426484D02*
X13062682Y-20426484D01*
X13062682Y-20426484D02*
X13043634Y-20416960D01*
X13043634Y-20416960D02*
X13034111Y-20407436D01*
X13034111Y-20407436D02*
X13024587Y-20388389D01*
X13024587Y-20388389D02*
X13024587Y-20331246D01*
X13024587Y-20331246D02*
X13034111Y-20312198D01*
X13034111Y-20312198D02*
X13043634Y-20302674D01*
X13043634Y-20302674D02*
X13062682Y-20293150D01*
X13062682Y-20293150D02*
X13100777Y-20293150D01*
X13100777Y-20293150D02*
X13119825Y-20302674D01*
X13196015Y-20502674D02*
X13205539Y-20493150D01*
X13205539Y-20493150D02*
X13224587Y-20464579D01*
X13224587Y-20464579D02*
X13234111Y-20445531D01*
X13234111Y-20445531D02*
X13243634Y-20416960D01*
X13243634Y-20416960D02*
X13253158Y-20369341D01*
X13253158Y-20369341D02*
X13253158Y-20331246D01*
X13253158Y-20331246D02*
X13243634Y-20283627D01*
X13243634Y-20283627D02*
X13234111Y-20255055D01*
X13234111Y-20255055D02*
X13224587Y-20236008D01*
X13224587Y-20236008D02*
X13205539Y-20207436D01*
X13205539Y-20207436D02*
X13196015Y-20197912D01*
X6340000Y-20555000D02*
X6340000Y-20755000D01*
X6240000Y-20655000D02*
X6440000Y-20655000D01*
X6681729Y-20546484D02*
X6805539Y-20546484D01*
X6805539Y-20546484D02*
X6738872Y-20622674D01*
X6738872Y-20622674D02*
X6767443Y-20622674D01*
X6767443Y-20622674D02*
X6786491Y-20632198D01*
X6786491Y-20632198D02*
X6796015Y-20641722D01*
X6796015Y-20641722D02*
X6805539Y-20660770D01*
X6805539Y-20660770D02*
X6805539Y-20708389D01*
X6805539Y-20708389D02*
X6796015Y-20727436D01*
X6796015Y-20727436D02*
X6786491Y-20736960D01*
X6786491Y-20736960D02*
X6767443Y-20746484D01*
X6767443Y-20746484D02*
X6710301Y-20746484D01*
X6710301Y-20746484D02*
X6691253Y-20736960D01*
X6691253Y-20736960D02*
X6681729Y-20727436D01*
X6891253Y-20727436D02*
X6900777Y-20736960D01*
X6900777Y-20736960D02*
X6891253Y-20746484D01*
X6891253Y-20746484D02*
X6881729Y-20736960D01*
X6881729Y-20736960D02*
X6891253Y-20727436D01*
X6891253Y-20727436D02*
X6891253Y-20746484D01*
X6976967Y-20565531D02*
X6986491Y-20556008D01*
X6986491Y-20556008D02*
X7005539Y-20546484D01*
X7005539Y-20546484D02*
X7053158Y-20546484D01*
X7053158Y-20546484D02*
X7072205Y-20556008D01*
X7072205Y-20556008D02*
X7081729Y-20565531D01*
X7081729Y-20565531D02*
X7091253Y-20584579D01*
X7091253Y-20584579D02*
X7091253Y-20603627D01*
X7091253Y-20603627D02*
X7081729Y-20632198D01*
X7081729Y-20632198D02*
X6967443Y-20746484D01*
X6967443Y-20746484D02*
X7091253Y-20746484D01*
X7215062Y-20546484D02*
X7234110Y-20546484D01*
X7234110Y-20546484D02*
X7253158Y-20556008D01*
X7253158Y-20556008D02*
X7262682Y-20565531D01*
X7262682Y-20565531D02*
X7272205Y-20584579D01*
X7272205Y-20584579D02*
X7281729Y-20622674D01*
X7281729Y-20622674D02*
X7281729Y-20670293D01*
X7281729Y-20670293D02*
X7272205Y-20708389D01*
X7272205Y-20708389D02*
X7262682Y-20727436D01*
X7262682Y-20727436D02*
X7253158Y-20736960D01*
X7253158Y-20736960D02*
X7234110Y-20746484D01*
X7234110Y-20746484D02*
X7215062Y-20746484D01*
X7215062Y-20746484D02*
X7196015Y-20736960D01*
X7196015Y-20736960D02*
X7186491Y-20727436D01*
X7186491Y-20727436D02*
X7176967Y-20708389D01*
X7176967Y-20708389D02*
X7167443Y-20670293D01*
X7167443Y-20670293D02*
X7167443Y-20622674D01*
X7167443Y-20622674D02*
X7176967Y-20584579D01*
X7176967Y-20584579D02*
X7186491Y-20565531D01*
X7186491Y-20565531D02*
X7196015Y-20556008D01*
X7196015Y-20556008D02*
X7215062Y-20546484D01*
X7405539Y-20546484D02*
X7424586Y-20546484D01*
X7424586Y-20546484D02*
X7443634Y-20556008D01*
X7443634Y-20556008D02*
X7453158Y-20565531D01*
X7453158Y-20565531D02*
X7462682Y-20584579D01*
X7462682Y-20584579D02*
X7472205Y-20622674D01*
X7472205Y-20622674D02*
X7472205Y-20670293D01*
X7472205Y-20670293D02*
X7462682Y-20708389D01*
X7462682Y-20708389D02*
X7453158Y-20727436D01*
X7453158Y-20727436D02*
X7443634Y-20736960D01*
X7443634Y-20736960D02*
X7424586Y-20746484D01*
X7424586Y-20746484D02*
X7405539Y-20746484D01*
X7405539Y-20746484D02*
X7386491Y-20736960D01*
X7386491Y-20736960D02*
X7376967Y-20727436D01*
X7376967Y-20727436D02*
X7367443Y-20708389D01*
X7367443Y-20708389D02*
X7357920Y-20670293D01*
X7357920Y-20670293D02*
X7357920Y-20622674D01*
X7357920Y-20622674D02*
X7367443Y-20584579D01*
X7367443Y-20584579D02*
X7376967Y-20565531D01*
X7376967Y-20565531D02*
X7386491Y-20556008D01*
X7386491Y-20556008D02*
X7405539Y-20546484D01*
X7557920Y-20746484D02*
X7557920Y-20613150D01*
X7557920Y-20632198D02*
X7567443Y-20622674D01*
X7567443Y-20622674D02*
X7586491Y-20613150D01*
X7586491Y-20613150D02*
X7615063Y-20613150D01*
X7615063Y-20613150D02*
X7634110Y-20622674D01*
X7634110Y-20622674D02*
X7643634Y-20641722D01*
X7643634Y-20641722D02*
X7643634Y-20746484D01*
X7643634Y-20641722D02*
X7653158Y-20622674D01*
X7653158Y-20622674D02*
X7672205Y-20613150D01*
X7672205Y-20613150D02*
X7700777Y-20613150D01*
X7700777Y-20613150D02*
X7719824Y-20622674D01*
X7719824Y-20622674D02*
X7729348Y-20641722D01*
X7729348Y-20641722D02*
X7729348Y-20746484D01*
X7824586Y-20746484D02*
X7824586Y-20613150D01*
X7824586Y-20632198D02*
X7834110Y-20622674D01*
X7834110Y-20622674D02*
X7853158Y-20613150D01*
X7853158Y-20613150D02*
X7881729Y-20613150D01*
X7881729Y-20613150D02*
X7900777Y-20622674D01*
X7900777Y-20622674D02*
X7910301Y-20641722D01*
X7910301Y-20641722D02*
X7910301Y-20746484D01*
X7910301Y-20641722D02*
X7919824Y-20622674D01*
X7919824Y-20622674D02*
X7938872Y-20613150D01*
X7938872Y-20613150D02*
X7967443Y-20613150D01*
X7967443Y-20613150D02*
X7986491Y-20622674D01*
X7986491Y-20622674D02*
X7996015Y-20641722D01*
X7996015Y-20641722D02*
X7996015Y-20746484D01*
X8386491Y-20536960D02*
X8215063Y-20794103D01*
X8643634Y-20546484D02*
X8662682Y-20546484D01*
X8662682Y-20546484D02*
X8681729Y-20556008D01*
X8681729Y-20556008D02*
X8691253Y-20565531D01*
X8691253Y-20565531D02*
X8700777Y-20584579D01*
X8700777Y-20584579D02*
X8710301Y-20622674D01*
X8710301Y-20622674D02*
X8710301Y-20670293D01*
X8710301Y-20670293D02*
X8700777Y-20708389D01*
X8700777Y-20708389D02*
X8691253Y-20727436D01*
X8691253Y-20727436D02*
X8681729Y-20736960D01*
X8681729Y-20736960D02*
X8662682Y-20746484D01*
X8662682Y-20746484D02*
X8643634Y-20746484D01*
X8643634Y-20746484D02*
X8624587Y-20736960D01*
X8624587Y-20736960D02*
X8615063Y-20727436D01*
X8615063Y-20727436D02*
X8605539Y-20708389D01*
X8605539Y-20708389D02*
X8596015Y-20670293D01*
X8596015Y-20670293D02*
X8596015Y-20622674D01*
X8596015Y-20622674D02*
X8605539Y-20584579D01*
X8605539Y-20584579D02*
X8615063Y-20565531D01*
X8615063Y-20565531D02*
X8624587Y-20556008D01*
X8624587Y-20556008D02*
X8643634Y-20546484D01*
X8796015Y-20727436D02*
X8805539Y-20736960D01*
X8805539Y-20736960D02*
X8796015Y-20746484D01*
X8796015Y-20746484D02*
X8786491Y-20736960D01*
X8786491Y-20736960D02*
X8796015Y-20727436D01*
X8796015Y-20727436D02*
X8796015Y-20746484D01*
X8996015Y-20746484D02*
X8881729Y-20746484D01*
X8938872Y-20746484D02*
X8938872Y-20546484D01*
X8938872Y-20546484D02*
X8919825Y-20575055D01*
X8919825Y-20575055D02*
X8900777Y-20594103D01*
X8900777Y-20594103D02*
X8881729Y-20603627D01*
X9072206Y-20565531D02*
X9081729Y-20556008D01*
X9081729Y-20556008D02*
X9100777Y-20546484D01*
X9100777Y-20546484D02*
X9148396Y-20546484D01*
X9148396Y-20546484D02*
X9167444Y-20556008D01*
X9167444Y-20556008D02*
X9176968Y-20565531D01*
X9176968Y-20565531D02*
X9186491Y-20584579D01*
X9186491Y-20584579D02*
X9186491Y-20603627D01*
X9186491Y-20603627D02*
X9176968Y-20632198D01*
X9176968Y-20632198D02*
X9062682Y-20746484D01*
X9062682Y-20746484D02*
X9186491Y-20746484D01*
X9357920Y-20546484D02*
X9319825Y-20546484D01*
X9319825Y-20546484D02*
X9300777Y-20556008D01*
X9300777Y-20556008D02*
X9291253Y-20565531D01*
X9291253Y-20565531D02*
X9272206Y-20594103D01*
X9272206Y-20594103D02*
X9262682Y-20632198D01*
X9262682Y-20632198D02*
X9262682Y-20708389D01*
X9262682Y-20708389D02*
X9272206Y-20727436D01*
X9272206Y-20727436D02*
X9281729Y-20736960D01*
X9281729Y-20736960D02*
X9300777Y-20746484D01*
X9300777Y-20746484D02*
X9338872Y-20746484D01*
X9338872Y-20746484D02*
X9357920Y-20736960D01*
X9357920Y-20736960D02*
X9367444Y-20727436D01*
X9367444Y-20727436D02*
X9376968Y-20708389D01*
X9376968Y-20708389D02*
X9376968Y-20660770D01*
X9376968Y-20660770D02*
X9367444Y-20641722D01*
X9367444Y-20641722D02*
X9357920Y-20632198D01*
X9357920Y-20632198D02*
X9338872Y-20622674D01*
X9338872Y-20622674D02*
X9300777Y-20622674D01*
X9300777Y-20622674D02*
X9281729Y-20632198D01*
X9281729Y-20632198D02*
X9272206Y-20641722D01*
X9272206Y-20641722D02*
X9262682Y-20660770D01*
X9500777Y-20546484D02*
X9519825Y-20546484D01*
X9519825Y-20546484D02*
X9538872Y-20556008D01*
X9538872Y-20556008D02*
X9548396Y-20565531D01*
X9548396Y-20565531D02*
X9557920Y-20584579D01*
X9557920Y-20584579D02*
X9567444Y-20622674D01*
X9567444Y-20622674D02*
X9567444Y-20670293D01*
X9567444Y-20670293D02*
X9557920Y-20708389D01*
X9557920Y-20708389D02*
X9548396Y-20727436D01*
X9548396Y-20727436D02*
X9538872Y-20736960D01*
X9538872Y-20736960D02*
X9519825Y-20746484D01*
X9519825Y-20746484D02*
X9500777Y-20746484D01*
X9500777Y-20746484D02*
X9481729Y-20736960D01*
X9481729Y-20736960D02*
X9472206Y-20727436D01*
X9472206Y-20727436D02*
X9462682Y-20708389D01*
X9462682Y-20708389D02*
X9453158Y-20670293D01*
X9453158Y-20670293D02*
X9453158Y-20622674D01*
X9453158Y-20622674D02*
X9462682Y-20584579D01*
X9462682Y-20584579D02*
X9472206Y-20565531D01*
X9472206Y-20565531D02*
X9481729Y-20556008D01*
X9481729Y-20556008D02*
X9500777Y-20546484D01*
X9643634Y-20546484D02*
X9643634Y-20584579D01*
X9719825Y-20546484D02*
X9719825Y-20584579D01*
X10015063Y-20822674D02*
X10005539Y-20813150D01*
X10005539Y-20813150D02*
X9986491Y-20784579D01*
X9986491Y-20784579D02*
X9976968Y-20765531D01*
X9976968Y-20765531D02*
X9967444Y-20736960D01*
X9967444Y-20736960D02*
X9957920Y-20689341D01*
X9957920Y-20689341D02*
X9957920Y-20651246D01*
X9957920Y-20651246D02*
X9967444Y-20603627D01*
X9967444Y-20603627D02*
X9976968Y-20575055D01*
X9976968Y-20575055D02*
X9986491Y-20556008D01*
X9986491Y-20556008D02*
X10005539Y-20527436D01*
X10005539Y-20527436D02*
X10015063Y-20517912D01*
X10119825Y-20632198D02*
X10100777Y-20622674D01*
X10100777Y-20622674D02*
X10091253Y-20613150D01*
X10091253Y-20613150D02*
X10081730Y-20594103D01*
X10081730Y-20594103D02*
X10081730Y-20584579D01*
X10081730Y-20584579D02*
X10091253Y-20565531D01*
X10091253Y-20565531D02*
X10100777Y-20556008D01*
X10100777Y-20556008D02*
X10119825Y-20546484D01*
X10119825Y-20546484D02*
X10157920Y-20546484D01*
X10157920Y-20546484D02*
X10176968Y-20556008D01*
X10176968Y-20556008D02*
X10186491Y-20565531D01*
X10186491Y-20565531D02*
X10196015Y-20584579D01*
X10196015Y-20584579D02*
X10196015Y-20594103D01*
X10196015Y-20594103D02*
X10186491Y-20613150D01*
X10186491Y-20613150D02*
X10176968Y-20622674D01*
X10176968Y-20622674D02*
X10157920Y-20632198D01*
X10157920Y-20632198D02*
X10119825Y-20632198D01*
X10119825Y-20632198D02*
X10100777Y-20641722D01*
X10100777Y-20641722D02*
X10091253Y-20651246D01*
X10091253Y-20651246D02*
X10081730Y-20670293D01*
X10081730Y-20670293D02*
X10081730Y-20708389D01*
X10081730Y-20708389D02*
X10091253Y-20727436D01*
X10091253Y-20727436D02*
X10100777Y-20736960D01*
X10100777Y-20736960D02*
X10119825Y-20746484D01*
X10119825Y-20746484D02*
X10157920Y-20746484D01*
X10157920Y-20746484D02*
X10176968Y-20736960D01*
X10176968Y-20736960D02*
X10186491Y-20727436D01*
X10186491Y-20727436D02*
X10196015Y-20708389D01*
X10196015Y-20708389D02*
X10196015Y-20670293D01*
X10196015Y-20670293D02*
X10186491Y-20651246D01*
X10186491Y-20651246D02*
X10176968Y-20641722D01*
X10176968Y-20641722D02*
X10157920Y-20632198D01*
X10434111Y-20746484D02*
X10434111Y-20546484D01*
X10519825Y-20746484D02*
X10519825Y-20641722D01*
X10519825Y-20641722D02*
X10510301Y-20622674D01*
X10510301Y-20622674D02*
X10491253Y-20613150D01*
X10491253Y-20613150D02*
X10462682Y-20613150D01*
X10462682Y-20613150D02*
X10443634Y-20622674D01*
X10443634Y-20622674D02*
X10434111Y-20632198D01*
X10643634Y-20746484D02*
X10624587Y-20736960D01*
X10624587Y-20736960D02*
X10615063Y-20727436D01*
X10615063Y-20727436D02*
X10605539Y-20708389D01*
X10605539Y-20708389D02*
X10605539Y-20651246D01*
X10605539Y-20651246D02*
X10615063Y-20632198D01*
X10615063Y-20632198D02*
X10624587Y-20622674D01*
X10624587Y-20622674D02*
X10643634Y-20613150D01*
X10643634Y-20613150D02*
X10672206Y-20613150D01*
X10672206Y-20613150D02*
X10691253Y-20622674D01*
X10691253Y-20622674D02*
X10700777Y-20632198D01*
X10700777Y-20632198D02*
X10710301Y-20651246D01*
X10710301Y-20651246D02*
X10710301Y-20708389D01*
X10710301Y-20708389D02*
X10700777Y-20727436D01*
X10700777Y-20727436D02*
X10691253Y-20736960D01*
X10691253Y-20736960D02*
X10672206Y-20746484D01*
X10672206Y-20746484D02*
X10643634Y-20746484D01*
X10824587Y-20746484D02*
X10805539Y-20736960D01*
X10805539Y-20736960D02*
X10796015Y-20717912D01*
X10796015Y-20717912D02*
X10796015Y-20546484D01*
X10976968Y-20736960D02*
X10957920Y-20746484D01*
X10957920Y-20746484D02*
X10919825Y-20746484D01*
X10919825Y-20746484D02*
X10900777Y-20736960D01*
X10900777Y-20736960D02*
X10891253Y-20717912D01*
X10891253Y-20717912D02*
X10891253Y-20641722D01*
X10891253Y-20641722D02*
X10900777Y-20622674D01*
X10900777Y-20622674D02*
X10919825Y-20613150D01*
X10919825Y-20613150D02*
X10957920Y-20613150D01*
X10957920Y-20613150D02*
X10976968Y-20622674D01*
X10976968Y-20622674D02*
X10986492Y-20641722D01*
X10986492Y-20641722D02*
X10986492Y-20660770D01*
X10986492Y-20660770D02*
X10891253Y-20679817D01*
X11062682Y-20736960D02*
X11081730Y-20746484D01*
X11081730Y-20746484D02*
X11119825Y-20746484D01*
X11119825Y-20746484D02*
X11138873Y-20736960D01*
X11138873Y-20736960D02*
X11148396Y-20717912D01*
X11148396Y-20717912D02*
X11148396Y-20708389D01*
X11148396Y-20708389D02*
X11138873Y-20689341D01*
X11138873Y-20689341D02*
X11119825Y-20679817D01*
X11119825Y-20679817D02*
X11091253Y-20679817D01*
X11091253Y-20679817D02*
X11072206Y-20670293D01*
X11072206Y-20670293D02*
X11062682Y-20651246D01*
X11062682Y-20651246D02*
X11062682Y-20641722D01*
X11062682Y-20641722D02*
X11072206Y-20622674D01*
X11072206Y-20622674D02*
X11091253Y-20613150D01*
X11091253Y-20613150D02*
X11119825Y-20613150D01*
X11119825Y-20613150D02*
X11138873Y-20622674D01*
X11215063Y-20822674D02*
X11224587Y-20813150D01*
X11224587Y-20813150D02*
X11243634Y-20784579D01*
X11243634Y-20784579D02*
X11253158Y-20765531D01*
X11253158Y-20765531D02*
X11262682Y-20736960D01*
X11262682Y-20736960D02*
X11272206Y-20689341D01*
X11272206Y-20689341D02*
X11272206Y-20651246D01*
X11272206Y-20651246D02*
X11262682Y-20603627D01*
X11262682Y-20603627D02*
X11253158Y-20575055D01*
X11253158Y-20575055D02*
X11243634Y-20556008D01*
X11243634Y-20556008D02*
X11224587Y-20527436D01*
X11224587Y-20527436D02*
X11215063Y-20517912D01*
X11576968Y-20822674D02*
X11567444Y-20813150D01*
X11567444Y-20813150D02*
X11548396Y-20784579D01*
X11548396Y-20784579D02*
X11538872Y-20765531D01*
X11538872Y-20765531D02*
X11529349Y-20736960D01*
X11529349Y-20736960D02*
X11519825Y-20689341D01*
X11519825Y-20689341D02*
X11519825Y-20651246D01*
X11519825Y-20651246D02*
X11529349Y-20603627D01*
X11529349Y-20603627D02*
X11538872Y-20575055D01*
X11538872Y-20575055D02*
X11548396Y-20556008D01*
X11548396Y-20556008D02*
X11567444Y-20527436D01*
X11567444Y-20527436D02*
X11576968Y-20517912D01*
X11653158Y-20613150D02*
X11653158Y-20746484D01*
X11653158Y-20632198D02*
X11662682Y-20622674D01*
X11662682Y-20622674D02*
X11681730Y-20613150D01*
X11681730Y-20613150D02*
X11710301Y-20613150D01*
X11710301Y-20613150D02*
X11729349Y-20622674D01*
X11729349Y-20622674D02*
X11738872Y-20641722D01*
X11738872Y-20641722D02*
X11738872Y-20746484D01*
X11862682Y-20746484D02*
X11843634Y-20736960D01*
X11843634Y-20736960D02*
X11834111Y-20727436D01*
X11834111Y-20727436D02*
X11824587Y-20708389D01*
X11824587Y-20708389D02*
X11824587Y-20651246D01*
X11824587Y-20651246D02*
X11834111Y-20632198D01*
X11834111Y-20632198D02*
X11843634Y-20622674D01*
X11843634Y-20622674D02*
X11862682Y-20613150D01*
X11862682Y-20613150D02*
X11891253Y-20613150D01*
X11891253Y-20613150D02*
X11910301Y-20622674D01*
X11910301Y-20622674D02*
X11919825Y-20632198D01*
X11919825Y-20632198D02*
X11929349Y-20651246D01*
X11929349Y-20651246D02*
X11929349Y-20708389D01*
X11929349Y-20708389D02*
X11919825Y-20727436D01*
X11919825Y-20727436D02*
X11910301Y-20736960D01*
X11910301Y-20736960D02*
X11891253Y-20746484D01*
X11891253Y-20746484D02*
X11862682Y-20746484D01*
X11986492Y-20613150D02*
X12062682Y-20613150D01*
X12015063Y-20546484D02*
X12015063Y-20717912D01*
X12015063Y-20717912D02*
X12024587Y-20736960D01*
X12024587Y-20736960D02*
X12043634Y-20746484D01*
X12043634Y-20746484D02*
X12062682Y-20746484D01*
X12281730Y-20613150D02*
X12281730Y-20813150D01*
X12281730Y-20622674D02*
X12300777Y-20613150D01*
X12300777Y-20613150D02*
X12338873Y-20613150D01*
X12338873Y-20613150D02*
X12357920Y-20622674D01*
X12357920Y-20622674D02*
X12367444Y-20632198D01*
X12367444Y-20632198D02*
X12376968Y-20651246D01*
X12376968Y-20651246D02*
X12376968Y-20708389D01*
X12376968Y-20708389D02*
X12367444Y-20727436D01*
X12367444Y-20727436D02*
X12357920Y-20736960D01*
X12357920Y-20736960D02*
X12338873Y-20746484D01*
X12338873Y-20746484D02*
X12300777Y-20746484D01*
X12300777Y-20746484D02*
X12281730Y-20736960D01*
X12491253Y-20746484D02*
X12472206Y-20736960D01*
X12472206Y-20736960D02*
X12462682Y-20717912D01*
X12462682Y-20717912D02*
X12462682Y-20546484D01*
X12653158Y-20746484D02*
X12653158Y-20641722D01*
X12653158Y-20641722D02*
X12643634Y-20622674D01*
X12643634Y-20622674D02*
X12624587Y-20613150D01*
X12624587Y-20613150D02*
X12586492Y-20613150D01*
X12586492Y-20613150D02*
X12567444Y-20622674D01*
X12653158Y-20736960D02*
X12634111Y-20746484D01*
X12634111Y-20746484D02*
X12586492Y-20746484D01*
X12586492Y-20746484D02*
X12567444Y-20736960D01*
X12567444Y-20736960D02*
X12557920Y-20717912D01*
X12557920Y-20717912D02*
X12557920Y-20698865D01*
X12557920Y-20698865D02*
X12567444Y-20679817D01*
X12567444Y-20679817D02*
X12586492Y-20670293D01*
X12586492Y-20670293D02*
X12634111Y-20670293D01*
X12634111Y-20670293D02*
X12653158Y-20660770D01*
X12719825Y-20613150D02*
X12796015Y-20613150D01*
X12748396Y-20546484D02*
X12748396Y-20717912D01*
X12748396Y-20717912D02*
X12757920Y-20736960D01*
X12757920Y-20736960D02*
X12776968Y-20746484D01*
X12776968Y-20746484D02*
X12796015Y-20746484D01*
X12938873Y-20736960D02*
X12919825Y-20746484D01*
X12919825Y-20746484D02*
X12881730Y-20746484D01*
X12881730Y-20746484D02*
X12862682Y-20736960D01*
X12862682Y-20736960D02*
X12853158Y-20717912D01*
X12853158Y-20717912D02*
X12853158Y-20641722D01*
X12853158Y-20641722D02*
X12862682Y-20622674D01*
X12862682Y-20622674D02*
X12881730Y-20613150D01*
X12881730Y-20613150D02*
X12919825Y-20613150D01*
X12919825Y-20613150D02*
X12938873Y-20622674D01*
X12938873Y-20622674D02*
X12948396Y-20641722D01*
X12948396Y-20641722D02*
X12948396Y-20660770D01*
X12948396Y-20660770D02*
X12853158Y-20679817D01*
X13119825Y-20746484D02*
X13119825Y-20546484D01*
X13119825Y-20736960D02*
X13100777Y-20746484D01*
X13100777Y-20746484D02*
X13062682Y-20746484D01*
X13062682Y-20746484D02*
X13043634Y-20736960D01*
X13043634Y-20736960D02*
X13034111Y-20727436D01*
X13034111Y-20727436D02*
X13024587Y-20708389D01*
X13024587Y-20708389D02*
X13024587Y-20651246D01*
X13024587Y-20651246D02*
X13034111Y-20632198D01*
X13034111Y-20632198D02*
X13043634Y-20622674D01*
X13043634Y-20622674D02*
X13062682Y-20613150D01*
X13062682Y-20613150D02*
X13100777Y-20613150D01*
X13100777Y-20613150D02*
X13119825Y-20622674D01*
X13196015Y-20822674D02*
X13205539Y-20813150D01*
X13205539Y-20813150D02*
X13224587Y-20784579D01*
X13224587Y-20784579D02*
X13234111Y-20765531D01*
X13234111Y-20765531D02*
X13243634Y-20736960D01*
X13243634Y-20736960D02*
X13253158Y-20689341D01*
X13253158Y-20689341D02*
X13253158Y-20651246D01*
X13253158Y-20651246D02*
X13243634Y-20603627D01*
X13243634Y-20603627D02*
X13234111Y-20575055D01*
X13234111Y-20575055D02*
X13224587Y-20556008D01*
X13224587Y-20556008D02*
X13205539Y-20527436D01*
X13205539Y-20527436D02*
X13196015Y-20517912D01*
M02*
