G04 #@! TF.GenerationSoftware,KiCad,Pcbnew,8.0.4*
G04 #@! TF.CreationDate,2024-08-19T13:54:33+02:00*
G04 #@! TF.ProjectId,ULX4M-PCIe-IO_x4_half,554c5834-4d2d-4504-9349-652d494f5f78,rev?*
G04 #@! TF.SameCoordinates,Original*
G04 #@! TF.FileFunction,Copper,L4,Bot*
G04 #@! TF.FilePolarity,Positive*
%FSLAX46Y46*%
G04 Gerber Fmt 4.6, Leading zero omitted, Abs format (unit mm)*
G04 Created by KiCad (PCBNEW 8.0.4) date 2024-08-19 13:54:33*
%MOMM*%
%LPD*%
G01*
G04 APERTURE LIST*
G04 Aperture macros list*
%AMRoundRect*
0 Rectangle with rounded corners*
0 $1 Rounding radius*
0 $2 $3 $4 $5 $6 $7 $8 $9 X,Y pos of 4 corners*
0 Add a 4 corners polygon primitive as box body*
4,1,4,$2,$3,$4,$5,$6,$7,$8,$9,$2,$3,0*
0 Add four circle primitives for the rounded corners*
1,1,$1+$1,$2,$3*
1,1,$1+$1,$4,$5*
1,1,$1+$1,$6,$7*
1,1,$1+$1,$8,$9*
0 Add four rect primitives between the rounded corners*
20,1,$1+$1,$2,$3,$4,$5,0*
20,1,$1+$1,$4,$5,$6,$7,0*
20,1,$1+$1,$6,$7,$8,$9,0*
20,1,$1+$1,$8,$9,$2,$3,0*%
G04 Aperture macros list end*
G04 #@! TA.AperFunction,ConnectorPad*
%ADD10R,0.700000X3.200000*%
G04 #@! TD*
G04 #@! TA.AperFunction,ConnectorPad*
%ADD11R,0.700000X4.200000*%
G04 #@! TD*
G04 #@! TA.AperFunction,ComponentPad*
%ADD12C,2.050000*%
G04 #@! TD*
G04 #@! TA.AperFunction,ComponentPad*
%ADD13C,2.250000*%
G04 #@! TD*
G04 #@! TA.AperFunction,ComponentPad*
%ADD14R,1.700000X1.700000*%
G04 #@! TD*
G04 #@! TA.AperFunction,ComponentPad*
%ADD15O,1.700000X1.700000*%
G04 #@! TD*
G04 #@! TA.AperFunction,WasherPad*
%ADD16C,2.000000*%
G04 #@! TD*
G04 #@! TA.AperFunction,ComponentPad*
%ADD17R,2.000000X2.000000*%
G04 #@! TD*
G04 #@! TA.AperFunction,ComponentPad*
%ADD18C,1.500000*%
G04 #@! TD*
G04 #@! TA.AperFunction,ComponentPad*
%ADD19C,1.350000*%
G04 #@! TD*
G04 #@! TA.AperFunction,ComponentPad*
%ADD20C,2.000000*%
G04 #@! TD*
G04 #@! TA.AperFunction,ComponentPad*
%ADD21R,1.300000X1.300000*%
G04 #@! TD*
G04 #@! TA.AperFunction,ComponentPad*
%ADD22C,1.300000*%
G04 #@! TD*
G04 #@! TA.AperFunction,ComponentPad*
%ADD23R,2.300000X2.300000*%
G04 #@! TD*
G04 #@! TA.AperFunction,ComponentPad*
%ADD24C,2.300000*%
G04 #@! TD*
G04 #@! TA.AperFunction,ComponentPad*
%ADD25R,3.500000X3.500000*%
G04 #@! TD*
G04 #@! TA.AperFunction,ComponentPad*
%ADD26RoundRect,0.750000X0.750000X1.000000X-0.750000X1.000000X-0.750000X-1.000000X0.750000X-1.000000X0*%
G04 #@! TD*
G04 #@! TA.AperFunction,ComponentPad*
%ADD27RoundRect,0.875000X0.875000X0.875000X-0.875000X0.875000X-0.875000X-0.875000X0.875000X-0.875000X0*%
G04 #@! TD*
G04 #@! TA.AperFunction,ComponentPad*
%ADD28C,2.400000*%
G04 #@! TD*
G04 #@! TA.AperFunction,SMDPad,CuDef*
%ADD29RoundRect,0.218750X-0.256250X0.218750X-0.256250X-0.218750X0.256250X-0.218750X0.256250X0.218750X0*%
G04 #@! TD*
G04 #@! TA.AperFunction,SMDPad,CuDef*
%ADD30RoundRect,0.218750X0.256250X-0.218750X0.256250X0.218750X-0.256250X0.218750X-0.256250X-0.218750X0*%
G04 #@! TD*
G04 #@! TA.AperFunction,SMDPad,CuDef*
%ADD31RoundRect,0.200000X0.275000X-0.200000X0.275000X0.200000X-0.275000X0.200000X-0.275000X-0.200000X0*%
G04 #@! TD*
G04 #@! TA.AperFunction,SMDPad,CuDef*
%ADD32RoundRect,0.200000X-0.200000X-0.275000X0.200000X-0.275000X0.200000X0.275000X-0.200000X0.275000X0*%
G04 #@! TD*
G04 #@! TA.AperFunction,SMDPad,CuDef*
%ADD33RoundRect,0.225000X-0.250000X0.225000X-0.250000X-0.225000X0.250000X-0.225000X0.250000X0.225000X0*%
G04 #@! TD*
G04 #@! TA.AperFunction,SMDPad,CuDef*
%ADD34RoundRect,0.200000X0.200000X0.275000X-0.200000X0.275000X-0.200000X-0.275000X0.200000X-0.275000X0*%
G04 #@! TD*
G04 #@! TA.AperFunction,SMDPad,CuDef*
%ADD35RoundRect,0.200000X-0.275000X0.200000X-0.275000X-0.200000X0.275000X-0.200000X0.275000X0.200000X0*%
G04 #@! TD*
G04 #@! TA.AperFunction,SMDPad,CuDef*
%ADD36RoundRect,0.225000X0.250000X-0.225000X0.250000X0.225000X-0.250000X0.225000X-0.250000X-0.225000X0*%
G04 #@! TD*
G04 #@! TA.AperFunction,SMDPad,CuDef*
%ADD37R,0.300000X0.550000*%
G04 #@! TD*
G04 #@! TA.AperFunction,SMDPad,CuDef*
%ADD38R,0.400000X0.550000*%
G04 #@! TD*
G04 #@! TA.AperFunction,ViaPad*
%ADD39C,0.550000*%
G04 #@! TD*
G04 #@! TA.AperFunction,ViaPad*
%ADD40C,0.420000*%
G04 #@! TD*
G04 #@! TA.AperFunction,ViaPad*
%ADD41C,0.600000*%
G04 #@! TD*
G04 #@! TA.AperFunction,ViaPad*
%ADD42C,0.450000*%
G04 #@! TD*
G04 #@! TA.AperFunction,ViaPad*
%ADD43C,0.800000*%
G04 #@! TD*
G04 #@! TA.AperFunction,Conductor*
%ADD44C,0.500000*%
G04 #@! TD*
G04 #@! TA.AperFunction,Conductor*
%ADD45C,0.200000*%
G04 #@! TD*
G04 #@! TA.AperFunction,Conductor*
%ADD46C,1.000000*%
G04 #@! TD*
G04 #@! TA.AperFunction,Conductor*
%ADD47C,0.127000*%
G04 #@! TD*
G04 #@! TA.AperFunction,Conductor*
%ADD48C,0.130000*%
G04 #@! TD*
G04 #@! TA.AperFunction,Conductor*
%ADD49C,0.230000*%
G04 #@! TD*
G04 #@! TA.AperFunction,Conductor*
%ADD50C,0.100000*%
G04 #@! TD*
G04 #@! TA.AperFunction,Profile*
%ADD51C,0.150000*%
G04 #@! TD*
G04 #@! TA.AperFunction,Profile*
%ADD52C,0.050000*%
G04 #@! TD*
G04 APERTURE END LIST*
D10*
X110125000Y-190125000D03*
D11*
X111125000Y-190625000D03*
X112125000Y-190625000D03*
X113125000Y-190625000D03*
X114125000Y-190625000D03*
X115125000Y-190625000D03*
X116125000Y-190625000D03*
X117125000Y-190625000D03*
X118125000Y-190625000D03*
X119125000Y-190625000D03*
X120125000Y-190625000D03*
X123125000Y-190625000D03*
X124125000Y-190625000D03*
X125125000Y-190625000D03*
X126125000Y-190625000D03*
X127125000Y-190625000D03*
X128125000Y-190625000D03*
X129125000Y-190625000D03*
X130125000Y-190625000D03*
X131125000Y-190625000D03*
X132125000Y-190625000D03*
X133125000Y-190625000D03*
X134125000Y-190625000D03*
X135125000Y-190625000D03*
X136125000Y-190625000D03*
X137125000Y-190625000D03*
X138125000Y-190625000D03*
X139125000Y-190625000D03*
X140125000Y-190625000D03*
X141125000Y-190625000D03*
X142125000Y-190625000D03*
X143125000Y-190625000D03*
D12*
X88155000Y-111585000D03*
D13*
X85615000Y-109045000D03*
X85615000Y-114125000D03*
X90695000Y-109045000D03*
X90695000Y-114125000D03*
D12*
X88275000Y-122635000D03*
D13*
X85735000Y-120095000D03*
X85735000Y-125175000D03*
X90815000Y-120095000D03*
X90815000Y-125175000D03*
D14*
X100435000Y-96015000D03*
D15*
X100435000Y-93475000D03*
X97895000Y-96015000D03*
X97895000Y-93475000D03*
X95355000Y-96015000D03*
X95355000Y-93475000D03*
X92815000Y-96015000D03*
X92815000Y-93475000D03*
X90275000Y-96015000D03*
X90275000Y-93475000D03*
X87735000Y-96015000D03*
X87735000Y-93475000D03*
D16*
X103710000Y-149395000D03*
X103710000Y-158995000D03*
D17*
X72810000Y-147070000D03*
X72810000Y-155645000D03*
X77810000Y-161320000D03*
X82810000Y-147070000D03*
X87810000Y-161320000D03*
X92810000Y-147070000D03*
X92810000Y-152745000D03*
X92810000Y-158145000D03*
D18*
X95610000Y-147070000D03*
X95610000Y-161320000D03*
D17*
X97810000Y-161320000D03*
D18*
X100310000Y-147070000D03*
X100310000Y-161320000D03*
D17*
X102810000Y-147070000D03*
D18*
X105310000Y-147070000D03*
X105310000Y-161320000D03*
D17*
X107810000Y-161320000D03*
D18*
X109910000Y-149395000D03*
X109910000Y-154195000D03*
X109910000Y-158995000D03*
D16*
X103700000Y-166775000D03*
X103700000Y-176375000D03*
D17*
X72800000Y-164450000D03*
X72800000Y-173025000D03*
X77800000Y-178700000D03*
X82800000Y-164450000D03*
X87800000Y-178700000D03*
X92800000Y-164450000D03*
X92800000Y-170125000D03*
X92800000Y-175525000D03*
D18*
X95600000Y-164450000D03*
X95600000Y-178700000D03*
D17*
X97800000Y-178700000D03*
D18*
X100300000Y-164450000D03*
X100300000Y-178700000D03*
D17*
X102800000Y-164450000D03*
D18*
X105300000Y-164450000D03*
X105300000Y-178700000D03*
D17*
X107800000Y-178700000D03*
D18*
X109900000Y-166775000D03*
X109900000Y-171575000D03*
X109900000Y-176375000D03*
D14*
X221090000Y-120450000D03*
D15*
X223630000Y-120450000D03*
X221090000Y-122990000D03*
X223630000Y-122990000D03*
X221090000Y-125530000D03*
X223630000Y-125530000D03*
X221090000Y-128070000D03*
X223630000Y-128070000D03*
X221090000Y-130610000D03*
X223630000Y-130610000D03*
X221090000Y-133150000D03*
X223630000Y-133150000D03*
X221090000Y-135690000D03*
X223630000Y-135690000D03*
X221090000Y-138230000D03*
X223630000Y-138230000D03*
X221090000Y-140770000D03*
X223630000Y-140770000D03*
X221090000Y-143310000D03*
X223630000Y-143310000D03*
X221090000Y-145850000D03*
X223630000Y-145850000D03*
X221090000Y-148390000D03*
X223630000Y-148390000D03*
X221090000Y-150930000D03*
X223630000Y-150930000D03*
X221090000Y-153470000D03*
X223630000Y-153470000D03*
X221090000Y-156010000D03*
X223630000Y-156010000D03*
X221090000Y-158550000D03*
X223630000Y-158550000D03*
X221090000Y-161090000D03*
X223630000Y-161090000D03*
X221090000Y-163630000D03*
X223630000Y-163630000D03*
X221090000Y-166170000D03*
X223630000Y-166170000D03*
X221090000Y-168710000D03*
X223630000Y-168710000D03*
D14*
X97450000Y-106620000D03*
D15*
X99990000Y-106620000D03*
X97450000Y-109160000D03*
X99990000Y-109160000D03*
X97450000Y-111700000D03*
X99990000Y-111700000D03*
X97450000Y-114240000D03*
X99990000Y-114240000D03*
X97450000Y-116780000D03*
X99990000Y-116780000D03*
D14*
X165345000Y-169255000D03*
D15*
X167885000Y-169255000D03*
X165345000Y-171795000D03*
X167885000Y-171795000D03*
D19*
X72825000Y-117875000D03*
X72825000Y-120415000D03*
X72825000Y-122955000D03*
D14*
X154630000Y-147905000D03*
D15*
X157170000Y-147905000D03*
X154630000Y-150445000D03*
X157170000Y-150445000D03*
X154630000Y-152985000D03*
X157170000Y-152985000D03*
X154630000Y-155525000D03*
X157170000Y-155525000D03*
D20*
X66000000Y-128250000D03*
X70900000Y-128850000D03*
X70900000Y-143350000D03*
X66000000Y-143950000D03*
D14*
X160980000Y-155490000D03*
D15*
X160980000Y-152950000D03*
X163520000Y-155490000D03*
X163520000Y-152950000D03*
X166060000Y-155490000D03*
X166060000Y-152950000D03*
D14*
X159100000Y-169240000D03*
D15*
X161640000Y-169240000D03*
X159100000Y-171780000D03*
X161640000Y-171780000D03*
D14*
X159100000Y-175480000D03*
D15*
X161640000Y-175480000D03*
X159100000Y-178020000D03*
X161640000Y-178020000D03*
D12*
X174445000Y-106865000D03*
D13*
X171905000Y-104325000D03*
X171905000Y-109405000D03*
X176985000Y-104325000D03*
X176985000Y-109405000D03*
D21*
X72845000Y-110185000D03*
D22*
X72845000Y-107645000D03*
X72845000Y-105105000D03*
D23*
X187227500Y-97760900D03*
D24*
X191427500Y-97760900D03*
X195627500Y-97760900D03*
X187227500Y-103260900D03*
X191427500Y-103260900D03*
X195627500Y-103260900D03*
D25*
X218195000Y-104602500D03*
D26*
X224195000Y-104602500D03*
D27*
X221195000Y-99902500D03*
D14*
X217540000Y-172310000D03*
D15*
X217540000Y-174850000D03*
X215000000Y-172310000D03*
X215000000Y-174850000D03*
D28*
X222155000Y-94957110D03*
X217075000Y-94957110D03*
X211995000Y-94957110D03*
X206915000Y-94957110D03*
D14*
X119715000Y-167865000D03*
D15*
X119715000Y-165325000D03*
X119715000Y-162785000D03*
X119715000Y-160245000D03*
X119715000Y-157705000D03*
X119715000Y-155165000D03*
X119715000Y-152625000D03*
X119715000Y-150085000D03*
D14*
X203445000Y-102445000D03*
D15*
X203445000Y-104985000D03*
D29*
X126875000Y-182337500D03*
X126875000Y-183912500D03*
D30*
X128375000Y-183912500D03*
X128375000Y-182337500D03*
D29*
X131875000Y-182337500D03*
X131875000Y-183912500D03*
D30*
X133375000Y-183912500D03*
X133375000Y-182337500D03*
D29*
X135875000Y-182337500D03*
X135875000Y-183912500D03*
D30*
X137375000Y-183912500D03*
X137375000Y-182337500D03*
D29*
X139875000Y-182337500D03*
X139875000Y-183912500D03*
D30*
X141375000Y-183912500D03*
X141375000Y-182337500D03*
D31*
X143305000Y-152810000D03*
X143305000Y-151160000D03*
D32*
X95880000Y-154695000D03*
X97530000Y-154695000D03*
X95870000Y-176695000D03*
X97520000Y-176695000D03*
D33*
X105175000Y-155405000D03*
X105175000Y-156955000D03*
D31*
X132675000Y-152830000D03*
X132675000Y-151180000D03*
X146525000Y-152810000D03*
X146525000Y-151160000D03*
D32*
X95880000Y-151155000D03*
X97530000Y-151155000D03*
D31*
X141775000Y-152810000D03*
X141775000Y-151160000D03*
D34*
X97520000Y-170135000D03*
X95870000Y-170135000D03*
D33*
X103615000Y-155405000D03*
X103615000Y-156955000D03*
D29*
X102155000Y-151490000D03*
X102155000Y-153065000D03*
D31*
X134215000Y-152825000D03*
X134215000Y-151175000D03*
D32*
X95890000Y-156235000D03*
X97540000Y-156235000D03*
D31*
X135955000Y-152810000D03*
X135955000Y-151160000D03*
D32*
X95870000Y-168595000D03*
X97520000Y-168595000D03*
D35*
X172525000Y-89250000D03*
X172525000Y-90900000D03*
D36*
X103685000Y-153042500D03*
X103685000Y-151492500D03*
D37*
X137980000Y-177325000D03*
X137980000Y-178095000D03*
X138480000Y-177325000D03*
X138480000Y-178095000D03*
D38*
X138980000Y-177325000D03*
X138980000Y-178095000D03*
D37*
X139480000Y-177325000D03*
X139480000Y-178095000D03*
X139980000Y-177325000D03*
X139980000Y-178095000D03*
D31*
X137505000Y-152810000D03*
X137505000Y-151160000D03*
D35*
X174075000Y-89250000D03*
X174075000Y-90900000D03*
D31*
X145005000Y-152810000D03*
X145005000Y-151160000D03*
D36*
X105225000Y-153040000D03*
X105225000Y-151490000D03*
D35*
X175615000Y-89250000D03*
X175615000Y-90900000D03*
D34*
X97530000Y-152685000D03*
X95880000Y-152685000D03*
D32*
X95870000Y-173365000D03*
X97520000Y-173365000D03*
X95870000Y-171795000D03*
X97520000Y-171795000D03*
D35*
X177165000Y-89250000D03*
X177165000Y-90900000D03*
D29*
X102065000Y-155392500D03*
X102065000Y-156967500D03*
D35*
X178715000Y-89250000D03*
X178715000Y-90900000D03*
D32*
X95870000Y-174935000D03*
X97520000Y-174935000D03*
D39*
X124125000Y-185500000D03*
X143125000Y-185500000D03*
X135625000Y-185500000D03*
X139625000Y-185500000D03*
X133625000Y-185500000D03*
X129125000Y-185500000D03*
X126625000Y-185500000D03*
X131625000Y-185500000D03*
X137625000Y-185500000D03*
X126625000Y-187500000D03*
D40*
X131095000Y-121065000D03*
D41*
X164095000Y-129455000D03*
X224900000Y-129400000D03*
D39*
X131625000Y-186500000D03*
D42*
X144125000Y-118665000D03*
D40*
X100935000Y-175405000D03*
D41*
X167905000Y-87175000D03*
X145140000Y-126260000D03*
X161675000Y-161495000D03*
X131700000Y-180630000D03*
X170035000Y-93305000D03*
D40*
X128944500Y-176670000D03*
D42*
X141705000Y-87894500D03*
D41*
X134960000Y-126340000D03*
X180295000Y-129495000D03*
X180195000Y-176435000D03*
D42*
X148895500Y-89122089D03*
D41*
X173615000Y-97845000D03*
D39*
X143125000Y-186500000D03*
D42*
X141995000Y-84675000D03*
X132885000Y-87075000D03*
X143865000Y-87725000D03*
D40*
X106475000Y-167785000D03*
D41*
X119050000Y-125260000D03*
D40*
X115900000Y-181750000D03*
X123350000Y-181350000D03*
X143350000Y-118560000D03*
D41*
X204845000Y-129565000D03*
D40*
X130520000Y-84690000D03*
D41*
X95045000Y-170165000D03*
X200825000Y-114465000D03*
X161675000Y-163145000D03*
D40*
X134515000Y-87835000D03*
X114231984Y-154043350D03*
X106385000Y-170205000D03*
D42*
X132315000Y-123115000D03*
D40*
X73300000Y-138300000D03*
D41*
X180115000Y-172655000D03*
X180115000Y-173885000D03*
D40*
X115900000Y-179710000D03*
X143900000Y-121700000D03*
X127570000Y-174160000D03*
D42*
X146925000Y-84605000D03*
D40*
X142010000Y-118330000D03*
X140085000Y-121765000D03*
D41*
X179815000Y-97845000D03*
D40*
X139795000Y-84395000D03*
D42*
X148113915Y-87304500D03*
D41*
X161625000Y-166545000D03*
D40*
X120060000Y-181670000D03*
D39*
X135625000Y-186500000D03*
D41*
X100775000Y-157995000D03*
D42*
X132435000Y-89285000D03*
X140300000Y-120000000D03*
D41*
X194565000Y-129475000D03*
D39*
X137625000Y-187500000D03*
D40*
X73200000Y-140400000D03*
D41*
X106625000Y-155215000D03*
D39*
X113125000Y-188000000D03*
D41*
X116500000Y-125280000D03*
D39*
X139625000Y-187500000D03*
D40*
X127610000Y-176260000D03*
D41*
X106625000Y-152795000D03*
D40*
X140175000Y-84695000D03*
X73300000Y-137000000D03*
X134766987Y-84728911D03*
X130275000Y-117935000D03*
X136490000Y-121550000D03*
D42*
X147715000Y-84725000D03*
D41*
X152960000Y-126220000D03*
X105175000Y-157715000D03*
D39*
X139625000Y-186500000D03*
D41*
X188415000Y-129455000D03*
D39*
X133625000Y-187500000D03*
D40*
X106495000Y-174965000D03*
D41*
X106625000Y-157595000D03*
D40*
X144995000Y-84695000D03*
X137312400Y-179628800D03*
X135610000Y-178590000D03*
D41*
X211245000Y-110615000D03*
D40*
X112012499Y-154070000D03*
X116690000Y-184790000D03*
D41*
X150540000Y-126300000D03*
D39*
X129125000Y-186500000D03*
D42*
X148895000Y-118645000D03*
D41*
X141690000Y-126300000D03*
X146750000Y-126240000D03*
X225000000Y-131800000D03*
D40*
X129000000Y-121900000D03*
X73200000Y-135900000D03*
D41*
X180215000Y-175175000D03*
D39*
X133625000Y-186500000D03*
D40*
X131145000Y-117745000D03*
D41*
X126195000Y-126295000D03*
D40*
X132435000Y-120115000D03*
D39*
X131625000Y-187500000D03*
D41*
X156650000Y-126860000D03*
X106715000Y-150375000D03*
D43*
X116120000Y-187975498D03*
D40*
X126235500Y-171340000D03*
X113960000Y-171370000D03*
D41*
X171935000Y-129495000D03*
X124000000Y-127200000D03*
X132380000Y-126300000D03*
D39*
X124125000Y-187500000D03*
D40*
X132545000Y-117725000D03*
D41*
X140190000Y-126300000D03*
D40*
X128655864Y-184868968D03*
D39*
X135625000Y-187500000D03*
D40*
X100875000Y-168185000D03*
X126255338Y-173683776D03*
D41*
X180405000Y-88785000D03*
D40*
X136887840Y-87879500D03*
D41*
X176865000Y-87985000D03*
D40*
X138980000Y-176710000D03*
X141440000Y-120810000D03*
D41*
X222400000Y-121800000D03*
D40*
X120139107Y-179799107D03*
X144565000Y-84695000D03*
D42*
X146505000Y-87834500D03*
D41*
X100443999Y-150775000D03*
D40*
X134105000Y-121725000D03*
D39*
X126625000Y-186500000D03*
D40*
X116730352Y-182793000D03*
X129685000Y-120025000D03*
D39*
X137625000Y-186500000D03*
D40*
X129575000Y-123075000D03*
X138960000Y-179034500D03*
D41*
X95210000Y-152720000D03*
X161675000Y-164855000D03*
D42*
X149100549Y-84649953D03*
D40*
X131825000Y-117635000D03*
D41*
X130200000Y-125500000D03*
X202355000Y-114465000D03*
D42*
X142495000Y-84710498D03*
D41*
X188125000Y-173775000D03*
D39*
X143125000Y-187500000D03*
D40*
X133705000Y-118615000D03*
D41*
X128820000Y-180660000D03*
X106100000Y-151500000D03*
D40*
X137705000Y-84625000D03*
X138700000Y-121700000D03*
D42*
X138700000Y-120100000D03*
D41*
X155700000Y-126220000D03*
D42*
X140500988Y-87894500D03*
D40*
X73200000Y-133300000D03*
X142550000Y-121520000D03*
D39*
X129125000Y-187500000D03*
D40*
X106425000Y-172595000D03*
D41*
X120800000Y-127200000D03*
D40*
X136914999Y-84855001D03*
X135720000Y-84810000D03*
X130335000Y-120165000D03*
D42*
X135895000Y-120155000D03*
D40*
X111420000Y-171360000D03*
D41*
X225000000Y-126900000D03*
D42*
X145305000Y-87775000D03*
D40*
X131155000Y-89205000D03*
D39*
X124125000Y-186500000D03*
D40*
X136095000Y-87775000D03*
D41*
X171435000Y-161485000D03*
D39*
X111125000Y-188000000D03*
D43*
X211645000Y-102035000D03*
X193905000Y-145095000D03*
X202825000Y-148455000D03*
D39*
X112125000Y-188000000D03*
D43*
X111125000Y-186655000D03*
X211975000Y-107935000D03*
X210485000Y-107935000D03*
D40*
X117600000Y-188000000D03*
X145500000Y-150300000D03*
X145580000Y-98635000D03*
X146050000Y-150342600D03*
X146250000Y-98635000D03*
X130625000Y-118600338D03*
X133756400Y-150037800D03*
X133135000Y-150317200D03*
X130005000Y-118600338D03*
X130859499Y-179020000D03*
X129302759Y-179012759D03*
X130960000Y-173870000D03*
X131205000Y-121681421D03*
X130390501Y-179550000D03*
X131825000Y-121681421D03*
X129477000Y-179554725D03*
X130290000Y-173870000D03*
X125171200Y-178285000D03*
X133604206Y-84345533D03*
X123901200Y-178282600D03*
X139946423Y-170574500D03*
X134225000Y-84346287D03*
X140690600Y-170662600D03*
X132369453Y-84718780D03*
X126595500Y-176042362D03*
X126442448Y-174222192D03*
X132955500Y-84754280D03*
X127064500Y-176556783D03*
X130005000Y-121456598D03*
X128095500Y-173700000D03*
X130625000Y-121456598D03*
X128619814Y-173922324D03*
X137058400Y-150266400D03*
X131825000Y-118376598D03*
X131205000Y-118376598D03*
X135612195Y-150217147D03*
X141270000Y-105725000D03*
X142700532Y-150253589D03*
X140600000Y-105725000D03*
X142265400Y-149885400D03*
X118548000Y-187500000D03*
X115218180Y-185674820D03*
X148400000Y-167970000D03*
X115654579Y-186111219D03*
X149770000Y-167980000D03*
X150510000Y-168220000D03*
X116649317Y-186860683D03*
X117159317Y-187370683D03*
X151130000Y-168480000D03*
X118850000Y-186410000D03*
X126410999Y-88180000D03*
X125151503Y-172860000D03*
X131232625Y-84726548D03*
X131825000Y-84796997D03*
X125609500Y-173740000D03*
X118827000Y-185300000D03*
X121060000Y-184549500D03*
X119840167Y-187509833D03*
X168230000Y-166540000D03*
X155570000Y-171760000D03*
X118995006Y-187853676D03*
X127135000Y-84815000D03*
X119653940Y-186954274D03*
D41*
X100155000Y-133065000D03*
D43*
X147150000Y-136950000D03*
D41*
X74585000Y-131595000D03*
D43*
X174145000Y-163155000D03*
D40*
X146736288Y-121843712D03*
D41*
X102305000Y-130745000D03*
D43*
X200505000Y-133855000D03*
D40*
X145165000Y-121825000D03*
D43*
X208675000Y-133855000D03*
X171805000Y-166375000D03*
D41*
X171425000Y-163155000D03*
X154067806Y-168896763D03*
D43*
X114085000Y-175275000D03*
D40*
X145967907Y-121853417D03*
D41*
X94965000Y-171785000D03*
X177155000Y-91845000D03*
X178695000Y-91815000D03*
D43*
X112335000Y-174895000D03*
X154955000Y-167705000D03*
X157720000Y-117930000D03*
D41*
X95030000Y-174920000D03*
X175555000Y-91695000D03*
X94599999Y-150569999D03*
X190445000Y-172725000D03*
X95015000Y-173365000D03*
X95215000Y-168625000D03*
X171425000Y-164755000D03*
X95255000Y-156255000D03*
D40*
X166775000Y-178665000D03*
D41*
X174905000Y-86085000D03*
D43*
X194845000Y-140785000D03*
D40*
X169795000Y-178635000D03*
D41*
X95030000Y-176740000D03*
X94560000Y-154650000D03*
X102175000Y-150715000D03*
X174075000Y-91675000D03*
X172545000Y-91655000D03*
X102232540Y-157751745D03*
D43*
X201350000Y-140770000D03*
X202395000Y-110965000D03*
X203495000Y-108405000D03*
X207035000Y-105795000D03*
X207875000Y-100765000D03*
D40*
X68405000Y-131805000D03*
X68405000Y-133435000D03*
X68738119Y-140401881D03*
X137175000Y-100580000D03*
D42*
X143180801Y-84673818D03*
D40*
X76645000Y-133880000D03*
X76645000Y-134550000D03*
X69211881Y-139928119D03*
D42*
X143849199Y-84673818D03*
D40*
X137175000Y-101250000D03*
X136985000Y-102400000D03*
X76371881Y-138008119D03*
D42*
X144365000Y-86168235D03*
D40*
X69365000Y-139110000D03*
X136985000Y-103070000D03*
X69365000Y-138440000D03*
D42*
X145065000Y-86168235D03*
D40*
X75898119Y-138481881D03*
X77570000Y-140755000D03*
X69660636Y-137225043D03*
D42*
X145565000Y-84637674D03*
D40*
X136705000Y-104280000D03*
X76900000Y-140755000D03*
X136705000Y-104950000D03*
X69198119Y-137521881D03*
D42*
X146265000Y-84637674D03*
D40*
X74000000Y-135100000D03*
X69575000Y-136160000D03*
D42*
X146765000Y-86467888D03*
D40*
X136525000Y-105880000D03*
D42*
X147429644Y-86248391D03*
D40*
X136525000Y-106550000D03*
X74000000Y-136155000D03*
X69575000Y-135490000D03*
X149305000Y-97595000D03*
X149335000Y-94795000D03*
X81995000Y-145475000D03*
X150075000Y-98025000D03*
X73765000Y-133365000D03*
X150899500Y-95145000D03*
D42*
X140765000Y-84671582D03*
X97455000Y-100865000D03*
X136681273Y-95945532D03*
X138365000Y-84685856D03*
X136825000Y-93225000D03*
X96427512Y-91637512D03*
X97455000Y-101565000D03*
X136675000Y-96525000D03*
X141415084Y-84661689D03*
X139047617Y-84676839D03*
X136854500Y-93834500D03*
X92262488Y-101297512D03*
X136635000Y-97345000D03*
X141965000Y-86615000D03*
X91106738Y-92361714D03*
X139565000Y-86585000D03*
X136695000Y-94565000D03*
X136645000Y-97925000D03*
X91767512Y-101792488D03*
X142665000Y-86615000D03*
X136655000Y-95155000D03*
X140265000Y-86585000D03*
X147490000Y-121710000D03*
X145780000Y-116140000D03*
X161025000Y-100605000D03*
X178725000Y-88505000D03*
D40*
X155360000Y-120840000D03*
D42*
X160345000Y-100635000D03*
X177225000Y-88565000D03*
D40*
X156000000Y-119150000D03*
X155446283Y-119635503D03*
D42*
X159535000Y-100785000D03*
X175535000Y-88505000D03*
X158755000Y-100915000D03*
D40*
X154595000Y-116005000D03*
X154066738Y-120277000D03*
D42*
X158035000Y-100975000D03*
X174085000Y-88545000D03*
X172535000Y-88485000D03*
D40*
X153150000Y-121450000D03*
D42*
X157095000Y-101255000D03*
D40*
X207485000Y-149825000D03*
X208695000Y-151195000D03*
X209345000Y-150595000D03*
X158755000Y-126645000D03*
D41*
X185385000Y-175225000D03*
D40*
X170295000Y-171005000D03*
X161975000Y-111745000D03*
X166255000Y-142185000D03*
X166255000Y-122425000D03*
X209775000Y-152255000D03*
X210635000Y-152775000D03*
X165245000Y-142035000D03*
X165245000Y-123025000D03*
X164060000Y-173080000D03*
D41*
X106415000Y-170995000D03*
X106625000Y-153595000D03*
X106445000Y-171775000D03*
X106625000Y-154395000D03*
D40*
X96450000Y-155390000D03*
D42*
X145395000Y-140945000D03*
X148400000Y-87800000D03*
D40*
X98485000Y-154805000D03*
D41*
X133900000Y-157400000D03*
X134065000Y-155620000D03*
X133171195Y-157471195D03*
X133215000Y-155620000D03*
D40*
X98435000Y-169795000D03*
X148555000Y-84795000D03*
X98345000Y-172145000D03*
D42*
X145195000Y-141665000D03*
D41*
X142040521Y-163400521D03*
X142110000Y-160570000D03*
X142960000Y-160570000D03*
X142610000Y-162900000D03*
D42*
X137906770Y-92677401D03*
X137865000Y-86565000D03*
X137165000Y-92699009D03*
X137165000Y-86565000D03*
X119315000Y-89625000D03*
X119341025Y-90298975D03*
D40*
X98445000Y-152395000D03*
X123308119Y-89101881D03*
X123781881Y-88628119D03*
X103275000Y-113675000D03*
X124813975Y-88613975D03*
D42*
X149692488Y-87087512D03*
D40*
X151430000Y-135245000D03*
X150760000Y-135245000D03*
D42*
X149197512Y-87582488D03*
D40*
X118220000Y-135200000D03*
X127535000Y-86075000D03*
X127575000Y-85335000D03*
X117550000Y-135200000D03*
D42*
X134975000Y-87505000D03*
D40*
X139898961Y-129575000D03*
X140300000Y-129200000D03*
D42*
X135360000Y-87090000D03*
D40*
X122520000Y-135180000D03*
X127848119Y-87248119D03*
X128321881Y-87721881D03*
X123190000Y-135180000D03*
X158395000Y-104015000D03*
X160825000Y-129655000D03*
X124825000Y-91995000D03*
X106329740Y-166553140D03*
X98535000Y-174615000D03*
X117570000Y-160430000D03*
X108127800Y-166547800D03*
X101200000Y-154700000D03*
X144560000Y-121760000D03*
X98465000Y-156385000D03*
X143785000Y-143175000D03*
X125375000Y-92325000D03*
X118090000Y-159850000D03*
X98445000Y-172995000D03*
X149890000Y-122520000D03*
X144750000Y-142990000D03*
X101250000Y-151610000D03*
X98475000Y-151575000D03*
X98465000Y-173775000D03*
X104810000Y-174800000D03*
X125325000Y-91495000D03*
X116140000Y-176250000D03*
X98445000Y-168975000D03*
X124028975Y-91508975D03*
X115530000Y-175750000D03*
X103555800Y-168808400D03*
X105841800Y-168485000D03*
X83065000Y-105155000D03*
X135670000Y-112910000D03*
X136875000Y-90118502D03*
X124440000Y-140070000D03*
X135110000Y-111160000D03*
X122189177Y-140068843D03*
X135625000Y-89355000D03*
X135130000Y-111770000D03*
X135698310Y-89899590D03*
X121710000Y-138920000D03*
X136284975Y-89884975D03*
X123650000Y-140070000D03*
X135350000Y-112380000D03*
X137400482Y-176719518D03*
X138215816Y-176334184D03*
X139195500Y-176118617D03*
X140170000Y-176118617D03*
X134325000Y-179390000D03*
X134995000Y-179390000D03*
X145625277Y-171127502D03*
X141790816Y-177830816D03*
X146075400Y-171602400D03*
X140960000Y-177040000D03*
D44*
X135125000Y-188000000D02*
X135625000Y-187500000D01*
X134125000Y-190625000D02*
X134125000Y-188000000D01*
X95245000Y-152685000D02*
X95210000Y-152720000D01*
X95880000Y-152685000D02*
X95245000Y-152685000D01*
X103615000Y-156955000D02*
X105175000Y-156955000D01*
X138125000Y-188000000D02*
X137625000Y-187500000D01*
X123125000Y-190625000D02*
X123125000Y-188500000D01*
X106100000Y-151500000D02*
X105235000Y-151500000D01*
D45*
X138980000Y-177325000D02*
X138980000Y-178095000D01*
D44*
X129125000Y-190625000D02*
X129125000Y-187500000D01*
D45*
X138980000Y-179014500D02*
X138960000Y-179034500D01*
D44*
X142125000Y-190625000D02*
X142125000Y-188500000D01*
X138125000Y-190625000D02*
X138125000Y-188000000D01*
X113125000Y-190625000D02*
X113125000Y-188000000D01*
X135125000Y-190625000D02*
X135125000Y-188000000D01*
X142125000Y-188500000D02*
X143125000Y-187500000D01*
D45*
X138980000Y-177325000D02*
X138980000Y-176710000D01*
D44*
X134125000Y-188000000D02*
X133625000Y-187500000D01*
X139125000Y-188000000D02*
X139625000Y-187500000D01*
X126125000Y-190625000D02*
X126125000Y-188000000D01*
X95075000Y-170135000D02*
X95045000Y-170165000D01*
X139125000Y-190625000D02*
X139125000Y-188000000D01*
X126125000Y-188000000D02*
X126625000Y-187500000D01*
X95870000Y-170135000D02*
X95075000Y-170135000D01*
X103685000Y-151492500D02*
X105222500Y-151492500D01*
X105222500Y-151492500D02*
X105225000Y-151490000D01*
X131125000Y-190625000D02*
X131125000Y-188000000D01*
X105175000Y-156955000D02*
X105175000Y-157715000D01*
X105235000Y-151500000D02*
X105225000Y-151490000D01*
X123125000Y-188500000D02*
X124125000Y-187500000D01*
X131125000Y-188000000D02*
X131625000Y-187500000D01*
D45*
X138980000Y-177325000D02*
X138980000Y-179014500D01*
D46*
X193905000Y-145095000D02*
X197305000Y-148495000D01*
D44*
X112125000Y-188000000D02*
X112125000Y-190625000D01*
D46*
X202785000Y-148495000D02*
X202825000Y-148455000D01*
D44*
X111125000Y-190625000D02*
X111125000Y-188000000D01*
D46*
X197305000Y-148495000D02*
X202785000Y-148495000D01*
D47*
X118125000Y-188525000D02*
X118125000Y-190625000D01*
X119125000Y-188625000D02*
X118500000Y-188000000D01*
X117600000Y-188000000D02*
X118125000Y-188525000D01*
X118500000Y-188000000D02*
X117600000Y-188000000D01*
X119125000Y-190625000D02*
X119125000Y-188625000D01*
D48*
X145772000Y-114689298D02*
X144372000Y-116089298D01*
X143060000Y-146240000D02*
X143000000Y-146300000D01*
X142073154Y-130646370D02*
X142073154Y-130846370D01*
D45*
X143000000Y-146300000D02*
X143000000Y-146700000D01*
D48*
X143300000Y-130126370D02*
X142593154Y-130126370D01*
X143840618Y-129626988D02*
X143840618Y-129856061D01*
D45*
X145298000Y-150300000D02*
X145005000Y-150593000D01*
D48*
X142593154Y-131366370D02*
X142780000Y-131366370D01*
D45*
X145600000Y-150200000D02*
X145500000Y-150300000D01*
D48*
X144940000Y-118108702D02*
X144940000Y-119501298D01*
X144372000Y-116089298D02*
X144372000Y-117540702D01*
X145772000Y-98827000D02*
X145772000Y-114689298D01*
X144940000Y-119501298D02*
X143060000Y-121381298D01*
D45*
X145600000Y-149300000D02*
X145600000Y-150200000D01*
D48*
X145580000Y-98635000D02*
X145772000Y-98827000D01*
X143060000Y-131646370D02*
X143060000Y-131846370D01*
X143060000Y-131846370D02*
X143060000Y-134421481D01*
X144372000Y-117540702D02*
X144940000Y-118108702D01*
D45*
X145500000Y-150300000D02*
X145298000Y-150300000D01*
X145005000Y-150593000D02*
X145005000Y-151160000D01*
D48*
X143570309Y-130126370D02*
X143300000Y-130126370D01*
X143060000Y-134421481D02*
X143060000Y-146240000D01*
D45*
X143000000Y-146700000D02*
X145600000Y-149300000D01*
D48*
X143060000Y-121381298D02*
X143060000Y-128846370D01*
X143840618Y-129856061D02*
G75*
G02*
X143570309Y-130126418I-270318J-39D01*
G01*
X143570309Y-129356679D02*
G75*
G02*
X143840621Y-129626988I-9J-270321D01*
G01*
X142073154Y-130846370D02*
G75*
G03*
X142593154Y-131366446I520046J-30D01*
G01*
X142593154Y-130126370D02*
G75*
G03*
X142073170Y-130646370I46J-520030D01*
G01*
X142780000Y-131366370D02*
G75*
G02*
X143060030Y-131646370I0J-280030D01*
G01*
X143060000Y-128846370D02*
G75*
G03*
X143570309Y-129356700I510300J-30D01*
G01*
D45*
X146000000Y-149160000D02*
X146000000Y-150292600D01*
D48*
X143300000Y-130366370D02*
X142593154Y-130366370D01*
X144600000Y-116183738D02*
X144600000Y-117446262D01*
D45*
X143400000Y-146560000D02*
X146000000Y-149160000D01*
D48*
X144600000Y-117446262D02*
X145168000Y-118014262D01*
D45*
X146000000Y-150292600D02*
X146050000Y-150342600D01*
D48*
X144080618Y-129626988D02*
X144080618Y-129856061D01*
D45*
X146354800Y-150342600D02*
X146525000Y-150512800D01*
X143400000Y-146300000D02*
X143400000Y-146560000D01*
D48*
X142313154Y-130646370D02*
X142313154Y-130846370D01*
X143300000Y-131646370D02*
X143300000Y-131846370D01*
X146250000Y-98635000D02*
X146000000Y-98885000D01*
X143570309Y-130366370D02*
X143300000Y-130366370D01*
X143300000Y-134421481D02*
X143300000Y-146200000D01*
X143300000Y-146200000D02*
X143400000Y-146300000D01*
D45*
X146525000Y-150512800D02*
X146525000Y-151160000D01*
X146050000Y-150342600D02*
X146354800Y-150342600D01*
D48*
X142593154Y-131126370D02*
X142780000Y-131126370D01*
X145168000Y-119595738D02*
X143300000Y-121463738D01*
X145168000Y-118014262D02*
X145168000Y-119595738D01*
X143300000Y-131846370D02*
X143300000Y-134421481D01*
X143300000Y-121463738D02*
X143300000Y-128846370D01*
X146000000Y-98885000D02*
X146000000Y-114783738D01*
X146000000Y-114783738D02*
X144600000Y-116183738D01*
X142780000Y-131126370D02*
G75*
G02*
X143300030Y-131646370I0J-520030D01*
G01*
X143570309Y-129116679D02*
G75*
G02*
X144080621Y-129626988I-9J-510321D01*
G01*
X144080618Y-129856061D02*
G75*
G02*
X143570309Y-130366418I-510318J-39D01*
G01*
X143300000Y-128846370D02*
G75*
G03*
X143570309Y-129116700I270300J-30D01*
G01*
X142593154Y-130366370D02*
G75*
G03*
X142313170Y-130646370I46J-280030D01*
G01*
X142313154Y-130846370D02*
G75*
G03*
X142593154Y-131126446I280046J-30D01*
G01*
D45*
X132693748Y-125315111D02*
X133135000Y-125315111D01*
X134676259Y-123915111D02*
X134676259Y-124115111D01*
X134076259Y-130715111D02*
X133535000Y-130715111D01*
X133535000Y-132715111D02*
X132693733Y-132715111D01*
X133735000Y-128715111D02*
X132693748Y-128715111D01*
X132493748Y-130915111D02*
X132493748Y-131115111D01*
X132693733Y-133315111D02*
X133135000Y-133315111D01*
X133535000Y-142224888D02*
X134400000Y-143089888D01*
X133534501Y-122049521D02*
X133534501Y-122054501D01*
X133535000Y-138915111D02*
X133535000Y-139115111D01*
X132493717Y-136915111D02*
X132493717Y-137115111D01*
X133735000Y-127315111D02*
X134076259Y-127315111D01*
X134215000Y-151175000D02*
X134215000Y-150496400D01*
X133135000Y-129315111D02*
X134076259Y-129315111D01*
X133535000Y-139115111D02*
X133535000Y-142224888D01*
X133135000Y-125315111D02*
X133776259Y-125315111D01*
X134076259Y-136715111D02*
X133535000Y-136715111D01*
X133735000Y-123315111D02*
X134076259Y-123315111D01*
X134076259Y-128715111D02*
X133735000Y-128715111D01*
X133135000Y-135315111D02*
X134076259Y-135315111D01*
X133535000Y-136715111D02*
X132693717Y-136715111D01*
X133534501Y-122054501D02*
X133535000Y-122055000D01*
X132493748Y-124915111D02*
X132493748Y-125115111D01*
X132693748Y-129315111D02*
X133135000Y-129315111D01*
X133535000Y-126915111D02*
X133535000Y-127115111D01*
X134215000Y-150496400D02*
X133756400Y-150037800D01*
X133776259Y-126715111D02*
X133735000Y-126715111D01*
X133135000Y-133315111D02*
X134076259Y-133315111D01*
X132493748Y-128915111D02*
X132493748Y-129115111D01*
X134676259Y-133915111D02*
X134676259Y-134115111D01*
X134400000Y-143089888D02*
X134400000Y-149394200D01*
X130625000Y-118600338D02*
X130515000Y-118710338D01*
X132493733Y-134915111D02*
X132493733Y-135115111D01*
X134676259Y-127915111D02*
X134676259Y-128115111D01*
X134376259Y-125915111D02*
X134376259Y-126115111D01*
X134676259Y-137915111D02*
X134676259Y-138115111D01*
X133135000Y-131315111D02*
X134076259Y-131315111D01*
X133135000Y-137315111D02*
X134076259Y-137315111D01*
X133535000Y-122055000D02*
X133535000Y-123115111D01*
X132693748Y-131315111D02*
X133135000Y-131315111D01*
X134676259Y-129915111D02*
X134676259Y-130115111D01*
X130515000Y-119030020D02*
X133534501Y-122049521D01*
X133735000Y-124715111D02*
X132693748Y-124715111D01*
X134676259Y-135915111D02*
X134676259Y-136115111D01*
X133535000Y-134715111D02*
X132693733Y-134715111D01*
X134076259Y-138715111D02*
X133735000Y-138715111D01*
X130515000Y-118710338D02*
X130515000Y-119030020D01*
X134400000Y-149394200D02*
X133756400Y-150037800D01*
X134676259Y-131915111D02*
X134676259Y-132115111D01*
X133535000Y-130715111D02*
X132693748Y-130715111D01*
X132493733Y-132915111D02*
X132493733Y-133115111D01*
X132693733Y-135315111D02*
X133135000Y-135315111D01*
X132693717Y-137315111D02*
X133135000Y-137315111D01*
X134076259Y-124715111D02*
X133735000Y-124715111D01*
X134076259Y-134715111D02*
X133535000Y-134715111D01*
X134076259Y-132715111D02*
X133535000Y-132715111D01*
X132493748Y-129115111D02*
G75*
G03*
X132693748Y-129315052I199952J11D01*
G01*
X132493717Y-137115111D02*
G75*
G03*
X132693717Y-137315083I199983J11D01*
G01*
X132693717Y-136715111D02*
G75*
G03*
X132493711Y-136915111I-17J-199989D01*
G01*
X134076259Y-137315111D02*
G75*
G02*
X134676289Y-137915111I41J-599989D01*
G01*
X134076259Y-123315111D02*
G75*
G02*
X134676289Y-123915111I41J-599989D01*
G01*
X134376259Y-126115111D02*
G75*
G02*
X133776259Y-126715059I-599959J11D01*
G01*
X133535000Y-127115111D02*
G75*
G03*
X133735000Y-127315100I200000J11D01*
G01*
X133735000Y-138715111D02*
G75*
G03*
X133535011Y-138915111I0J-199989D01*
G01*
X134076259Y-133315111D02*
G75*
G02*
X134676289Y-133915111I41J-599989D01*
G01*
X132493733Y-133115111D02*
G75*
G03*
X132693733Y-133315067I199967J11D01*
G01*
X132693748Y-128715111D02*
G75*
G03*
X132493711Y-128915111I-48J-199989D01*
G01*
X134676259Y-124115111D02*
G75*
G02*
X134076259Y-124715059I-599959J11D01*
G01*
X132493733Y-135115111D02*
G75*
G03*
X132693733Y-135315067I199967J11D01*
G01*
X133535000Y-123115111D02*
G75*
G03*
X133735000Y-123315100I200000J11D01*
G01*
X132693733Y-132715111D02*
G75*
G03*
X132493711Y-132915111I-33J-199989D01*
G01*
X132693748Y-130715111D02*
G75*
G03*
X132493711Y-130915111I-48J-199989D01*
G01*
X134076259Y-129315111D02*
G75*
G02*
X134676289Y-129915111I41J-599989D01*
G01*
X132493748Y-125115111D02*
G75*
G03*
X132693748Y-125315052I199952J11D01*
G01*
X133776259Y-125315111D02*
G75*
G02*
X134376289Y-125915111I41J-599989D01*
G01*
X134076259Y-135315111D02*
G75*
G02*
X134676289Y-135915111I41J-599989D01*
G01*
X134076259Y-131315111D02*
G75*
G02*
X134676289Y-131915111I41J-599989D01*
G01*
X134676259Y-138115111D02*
G75*
G02*
X134076259Y-138715059I-599959J11D01*
G01*
X132493748Y-131115111D02*
G75*
G03*
X132693748Y-131315052I199952J11D01*
G01*
X132693748Y-124715111D02*
G75*
G03*
X132493711Y-124915111I-48J-199989D01*
G01*
X134076259Y-127315111D02*
G75*
G02*
X134676289Y-127915111I41J-599989D01*
G01*
X134676259Y-134115111D02*
G75*
G02*
X134076259Y-134715059I-599959J11D01*
G01*
X134676259Y-128115111D02*
G75*
G02*
X134076259Y-128715059I-599959J11D01*
G01*
X134676259Y-136115111D02*
G75*
G02*
X134076259Y-136715059I-599959J11D01*
G01*
X134676259Y-130115111D02*
G75*
G02*
X134076259Y-130715059I-599959J11D01*
G01*
X134676259Y-132115111D02*
G75*
G02*
X134076259Y-132715059I-599959J11D01*
G01*
X133735000Y-126715111D02*
G75*
G03*
X133535011Y-126915111I0J-199989D01*
G01*
X132693733Y-134715111D02*
G75*
G03*
X132493711Y-134915111I-33J-199989D01*
G01*
X134276259Y-131915111D02*
X134276259Y-132115111D01*
X134276259Y-127915111D02*
X134276259Y-128115111D01*
X133135000Y-125715111D02*
X133776259Y-125715111D01*
X133135000Y-150058159D02*
X133135000Y-150317200D01*
X133135000Y-131715111D02*
X134076259Y-131715111D01*
X133135000Y-142224888D02*
X133135000Y-142435000D01*
X133135000Y-122215000D02*
X133135000Y-123115111D01*
X134076259Y-130315111D02*
X133535000Y-130315111D01*
X133535000Y-134315111D02*
X132693733Y-134315111D01*
X133135000Y-150317200D02*
X132812800Y-150317200D01*
X133535000Y-136315111D02*
X132693717Y-136315111D01*
X133135000Y-126915111D02*
X133135000Y-127115111D01*
X133735000Y-124315111D02*
X132693748Y-124315111D01*
X132693748Y-125715111D02*
X133135000Y-125715111D01*
X133535000Y-132315111D02*
X132693733Y-132315111D01*
X134076259Y-134315111D02*
X133535000Y-134315111D01*
X134076259Y-138315111D02*
X133735000Y-138315111D01*
X133735000Y-127715111D02*
X134076259Y-127715111D01*
X132093733Y-132915111D02*
X132093733Y-133115111D01*
X133135000Y-142435000D02*
X134000000Y-143300000D01*
X130115000Y-118710338D02*
X130115000Y-119195000D01*
X134276259Y-129915111D02*
X134276259Y-130115111D01*
X133135000Y-139115111D02*
X133135000Y-142224888D01*
X134076259Y-136315111D02*
X133535000Y-136315111D01*
X132675000Y-150455000D02*
X132675000Y-151180000D01*
X133735000Y-123715111D02*
X134076259Y-123715111D01*
X132093748Y-130915111D02*
X132093748Y-131115111D01*
X130005000Y-118600338D02*
X130115000Y-118710338D01*
X134276259Y-133915111D02*
X134276259Y-134115111D01*
X132693717Y-137715111D02*
X133135000Y-137715111D01*
X133776259Y-126315111D02*
X133735000Y-126315111D01*
X134276259Y-123915111D02*
X134276259Y-124115111D01*
X134000000Y-149193159D02*
X133135000Y-150058159D01*
X132093717Y-136915111D02*
X132093717Y-137115111D01*
X134076259Y-132315111D02*
X133535000Y-132315111D01*
X134076259Y-124315111D02*
X133735000Y-124315111D01*
X134076259Y-128315111D02*
X133735000Y-128315111D01*
X132812800Y-150317200D02*
X132675000Y-150455000D01*
X130115000Y-119195000D02*
X133135000Y-122215000D01*
X133135000Y-135715111D02*
X134076259Y-135715111D01*
X132093748Y-124915111D02*
X132093748Y-125115111D01*
X132693733Y-133715111D02*
X133135000Y-133715111D01*
X132093748Y-128915111D02*
X132093748Y-129115111D01*
X133735000Y-128315111D02*
X132693748Y-128315111D01*
X133135000Y-137715111D02*
X134076259Y-137715111D01*
X134276259Y-137915111D02*
X134276259Y-138115111D01*
X133976259Y-125915111D02*
X133976259Y-126115111D01*
X134276259Y-135915111D02*
X134276259Y-136115111D01*
X133135000Y-129715111D02*
X134076259Y-129715111D01*
X132693748Y-129715111D02*
X133135000Y-129715111D01*
X134000000Y-143300000D02*
X134000000Y-149193159D01*
X133535000Y-130315111D02*
X132693748Y-130315111D01*
X132093733Y-134915111D02*
X132093733Y-135115111D01*
X133135000Y-138915111D02*
X133135000Y-139115111D01*
X133135000Y-133715111D02*
X134076259Y-133715111D01*
X132693748Y-131715111D02*
X133135000Y-131715111D01*
X132693733Y-135715111D02*
X133135000Y-135715111D01*
X134276259Y-128115111D02*
G75*
G02*
X134076259Y-128315059I-199959J11D01*
G01*
X134076259Y-123715111D02*
G75*
G02*
X134276289Y-123915111I41J-199989D01*
G01*
X134076259Y-131715111D02*
G75*
G02*
X134276289Y-131915111I41J-199989D01*
G01*
X132093748Y-125115111D02*
G75*
G03*
X132693748Y-125715052I599952J11D01*
G01*
X132693717Y-136315111D02*
G75*
G03*
X132093711Y-136915111I-17J-599989D01*
G01*
X134276259Y-132115111D02*
G75*
G02*
X134076259Y-132315059I-199959J11D01*
G01*
X134076259Y-137715111D02*
G75*
G02*
X134276289Y-137915111I41J-199989D01*
G01*
X134276259Y-124115111D02*
G75*
G02*
X134076259Y-124315059I-199959J11D01*
G01*
X132693748Y-128315111D02*
G75*
G03*
X132093711Y-128915111I-48J-599989D01*
G01*
X133976259Y-126115111D02*
G75*
G02*
X133776259Y-126315059I-199959J11D01*
G01*
X132693748Y-130315111D02*
G75*
G03*
X132093711Y-130915111I-48J-599989D01*
G01*
X132093717Y-137115111D02*
G75*
G03*
X132693717Y-137715083I599983J11D01*
G01*
X132093733Y-133115111D02*
G75*
G03*
X132693733Y-133715067I599967J11D01*
G01*
X134276259Y-138115111D02*
G75*
G02*
X134076259Y-138315059I-199959J11D01*
G01*
X132693748Y-124315111D02*
G75*
G03*
X132093711Y-124915111I-48J-599989D01*
G01*
X132093748Y-129115111D02*
G75*
G03*
X132693748Y-129715052I599952J11D01*
G01*
X134076259Y-127715111D02*
G75*
G02*
X134276289Y-127915111I41J-199989D01*
G01*
X134076259Y-133715111D02*
G75*
G02*
X134276289Y-133915111I41J-199989D01*
G01*
X132093733Y-135115111D02*
G75*
G03*
X132693733Y-135715067I599967J11D01*
G01*
X133776259Y-125715111D02*
G75*
G02*
X133976289Y-125915111I41J-199989D01*
G01*
X132093748Y-131115111D02*
G75*
G03*
X132693748Y-131715052I599952J11D01*
G01*
X133735000Y-126315111D02*
G75*
G03*
X133135011Y-126915111I0J-599989D01*
G01*
X134276259Y-130115111D02*
G75*
G02*
X134076259Y-130315059I-199959J11D01*
G01*
X134276259Y-134115111D02*
G75*
G02*
X134076259Y-134315059I-199959J11D01*
G01*
X133135000Y-127115111D02*
G75*
G03*
X133735000Y-127715100I600000J11D01*
G01*
X134076259Y-129715111D02*
G75*
G02*
X134276289Y-129915111I41J-199989D01*
G01*
X134276259Y-136115111D02*
G75*
G02*
X134076259Y-136315059I-199959J11D01*
G01*
X133735000Y-138315111D02*
G75*
G03*
X133135011Y-138915111I0J-599989D01*
G01*
X133135000Y-123115111D02*
G75*
G03*
X133735000Y-123715100I600000J11D01*
G01*
X132693733Y-134315111D02*
G75*
G03*
X132093711Y-134915111I-33J-599989D01*
G01*
X134076259Y-135715111D02*
G75*
G02*
X134276289Y-135915111I41J-199989D01*
G01*
X132693733Y-132315111D02*
G75*
G03*
X132093711Y-132915111I-33J-599989D01*
G01*
X130960000Y-173870000D02*
X130700000Y-173610000D01*
X130117147Y-163677335D02*
X130117147Y-163477335D01*
X132312851Y-162277335D02*
X131715000Y-162277335D01*
X131715000Y-162277335D02*
X130717148Y-162277335D01*
X130117147Y-167677335D02*
X130117147Y-167477335D01*
X131315000Y-166877335D02*
X132312851Y-166877335D01*
X130717144Y-170877335D02*
X131115000Y-170877335D01*
X132412850Y-148677335D02*
X132412850Y-148477335D01*
X131315000Y-168877335D02*
X132312856Y-168877335D01*
X132512851Y-158677335D02*
X132512851Y-158477335D01*
D47*
X130852258Y-179012759D02*
X129302759Y-179012759D01*
D45*
X131715000Y-156277335D02*
X130717149Y-156277335D01*
X130117149Y-151677335D02*
X130117149Y-151477335D01*
X130117144Y-169677335D02*
X130117144Y-169477335D01*
X132512851Y-160677335D02*
X132512851Y-160477335D01*
X130717148Y-160877335D02*
X131315000Y-160877335D01*
X130700000Y-173300000D02*
X131315000Y-172685000D01*
X131715000Y-164277335D02*
X130717147Y-164277335D01*
X131315000Y-154877335D02*
X132312851Y-154877335D01*
X130717149Y-154877335D02*
X131315000Y-154877335D01*
X132312856Y-168277335D02*
X131715000Y-168277335D01*
X131315000Y-156877335D02*
X132262851Y-156877335D01*
X131715000Y-148277335D02*
X130717147Y-148277335D01*
X132312851Y-160277335D02*
X131715000Y-160277335D01*
X132312856Y-170277335D02*
X131715000Y-170277335D01*
X130700000Y-173610000D02*
X130700000Y-173300000D01*
X130117148Y-161677335D02*
X130117148Y-161477335D01*
X132312851Y-164277335D02*
X131715000Y-164277335D01*
X132412850Y-144677335D02*
X132412850Y-144477335D01*
X132512851Y-164677335D02*
X132512851Y-164477335D01*
X130717149Y-156877335D02*
X131315000Y-156877335D01*
X131715000Y-166277335D02*
X130717147Y-166277335D01*
X132312851Y-166277335D02*
X131715000Y-166277335D01*
X131715000Y-146277335D02*
X130717147Y-146277335D01*
X130117149Y-155677335D02*
X130117149Y-155477335D01*
X130117147Y-165677335D02*
X130117147Y-165477335D01*
D47*
X130859499Y-179020000D02*
X130852258Y-179012759D01*
D45*
X132262851Y-156277335D02*
X131715000Y-156277335D01*
X131715000Y-160277335D02*
X130717149Y-160277335D01*
X132512851Y-162677335D02*
X132512851Y-162477335D01*
X130717144Y-168877335D02*
X131315000Y-168877335D01*
X130717147Y-144877335D02*
X131315000Y-144877335D01*
X131315000Y-172685000D02*
X131315000Y-172477335D01*
X130717147Y-166877335D02*
X131315000Y-166877335D01*
X130717149Y-150877335D02*
X131115000Y-150877335D01*
X130117148Y-153677335D02*
X130117148Y-153477335D01*
X132312851Y-154277335D02*
X131715000Y-154277335D01*
X131115000Y-170877335D02*
X132312856Y-170877335D01*
X132512856Y-168677335D02*
X132512856Y-168477335D01*
X131315000Y-143477335D02*
X131315000Y-139713876D01*
X131715000Y-158277335D02*
X130717149Y-158277335D01*
X130717149Y-158877335D02*
X131315000Y-158877335D01*
X131115000Y-152277335D02*
X130717149Y-152277335D01*
X131715000Y-170277335D02*
X130717144Y-170277335D01*
X131315000Y-143677335D02*
X131315000Y-143477335D01*
X130717147Y-164877335D02*
X131315000Y-164877335D01*
X131315000Y-160877335D02*
X132312851Y-160877335D01*
X132212850Y-148277335D02*
X131715000Y-148277335D01*
X132512851Y-154677335D02*
X132512851Y-154477335D01*
X130717148Y-148877335D02*
X131115000Y-148877335D01*
X131315000Y-121791421D02*
X131205000Y-121681421D01*
X132212850Y-146277335D02*
X131715000Y-146277335D01*
X131115000Y-150277335D02*
X130717148Y-150277335D01*
X132412850Y-146677335D02*
X132412850Y-146477335D01*
X131315000Y-162877335D02*
X132312851Y-162877335D01*
X131315000Y-164877335D02*
X132312851Y-164877335D01*
X130717148Y-152877335D02*
X131115000Y-152877335D01*
X131715000Y-154277335D02*
X130717148Y-154277335D01*
X131315000Y-152677335D02*
X131315000Y-152477335D01*
X131715000Y-168277335D02*
X130717147Y-168277335D01*
X131315000Y-139713876D02*
X131315000Y-121791421D01*
X131115000Y-172277335D02*
X130717144Y-172277335D01*
X130117144Y-171677335D02*
X130117144Y-171477335D01*
X130117149Y-157677335D02*
X130117149Y-157477335D01*
X132462851Y-156677335D02*
X132462851Y-156477335D01*
X132212850Y-144277335D02*
X131915000Y-144277335D01*
X131315000Y-158877335D02*
X132312851Y-158877335D01*
X130717147Y-146877335D02*
X131315000Y-146877335D01*
X130117148Y-149677335D02*
X130117148Y-149477335D01*
X131315000Y-150677335D02*
X131315000Y-150477335D01*
X130117147Y-147677335D02*
X130117147Y-147477335D01*
X131315000Y-144877335D02*
X132212850Y-144877335D01*
X132312851Y-158277335D02*
X131715000Y-158277335D01*
X132512851Y-166677335D02*
X132512851Y-166477335D01*
X131315000Y-146877335D02*
X132212850Y-146877335D01*
X131115000Y-148877335D02*
X132212850Y-148877335D01*
X130117147Y-145677335D02*
X130117147Y-145477335D01*
X132512856Y-170677335D02*
X132512856Y-170477335D01*
X130117149Y-159677335D02*
X130117149Y-159477335D01*
X130717147Y-162877335D02*
X131315000Y-162877335D01*
X130117148Y-149477335D02*
G75*
G02*
X130717148Y-148877348I599952J35D01*
G01*
X131315000Y-172477335D02*
G75*
G03*
X131115000Y-172277300I-200000J35D01*
G01*
X132212850Y-148877335D02*
G75*
G03*
X132412835Y-148677335I-50J200035D01*
G01*
X130717149Y-156277335D02*
G75*
G02*
X130117065Y-155677335I-49J600035D01*
G01*
X132312851Y-154877335D02*
G75*
G03*
X132512835Y-154677335I-51J200035D01*
G01*
X130117147Y-165477335D02*
G75*
G02*
X130717147Y-164877347I599953J35D01*
G01*
X131315000Y-152477335D02*
G75*
G03*
X131115000Y-152277300I-200000J35D01*
G01*
X130717149Y-158277335D02*
G75*
G02*
X130117065Y-157677335I-49J600035D01*
G01*
X130117149Y-155477335D02*
G75*
G02*
X130717149Y-154877349I599951J35D01*
G01*
X132412850Y-146477335D02*
G75*
G03*
X132212850Y-146277250I-200050J35D01*
G01*
X130717148Y-154277335D02*
G75*
G02*
X130117065Y-153677335I-48J600035D01*
G01*
X132312851Y-166877335D02*
G75*
G03*
X132512835Y-166677335I-51J200035D01*
G01*
X130717147Y-164277335D02*
G75*
G02*
X130117065Y-163677335I-47J600035D01*
G01*
X132312851Y-160877335D02*
G75*
G03*
X132512835Y-160677335I-51J200035D01*
G01*
X131115000Y-150877335D02*
G75*
G03*
X131315035Y-150677335I0J200035D01*
G01*
X132412850Y-148477335D02*
G75*
G03*
X132212850Y-148277250I-200050J35D01*
G01*
X131915000Y-144277335D02*
G75*
G02*
X131314965Y-143677335I0J600035D01*
G01*
X130717147Y-168277335D02*
G75*
G02*
X130117065Y-167677335I-47J600035D01*
G01*
X132212850Y-146877335D02*
G75*
G03*
X132412835Y-146677335I-50J200035D01*
G01*
X130117147Y-147477335D02*
G75*
G02*
X130717147Y-146877347I599953J35D01*
G01*
X132212850Y-144877335D02*
G75*
G03*
X132412835Y-144677335I-50J200035D01*
G01*
X132312851Y-158877335D02*
G75*
G03*
X132512835Y-158677335I-51J200035D01*
G01*
X132312856Y-170877335D02*
G75*
G03*
X132512935Y-170677335I44J200035D01*
G01*
X130717147Y-146277335D02*
G75*
G02*
X130117065Y-145677335I-47J600035D01*
G01*
X132512851Y-158477335D02*
G75*
G03*
X132312851Y-158277249I-200051J35D01*
G01*
X132312851Y-164877335D02*
G75*
G03*
X132512835Y-164677335I-51J200035D01*
G01*
X132512856Y-168477335D02*
G75*
G03*
X132312856Y-168277344I-199956J35D01*
G01*
X132462851Y-156477335D02*
G75*
G03*
X132262851Y-156277249I-200051J35D01*
G01*
X130117147Y-167477335D02*
G75*
G02*
X130717147Y-166877347I599953J35D01*
G01*
X130117148Y-161477335D02*
G75*
G02*
X130717148Y-160877348I599952J35D01*
G01*
X130117144Y-169477335D02*
G75*
G02*
X130717144Y-168877344I599956J35D01*
G01*
X132512851Y-166477335D02*
G75*
G03*
X132312851Y-166277249I-200051J35D01*
G01*
X130717144Y-172277335D02*
G75*
G02*
X130117065Y-171677335I-44J600035D01*
G01*
X132512856Y-170477335D02*
G75*
G03*
X132312856Y-170277344I-199956J35D01*
G01*
X131115000Y-152877335D02*
G75*
G03*
X131315035Y-152677335I0J200035D01*
G01*
X131315000Y-150477335D02*
G75*
G03*
X131115000Y-150277300I-200000J35D01*
G01*
X130117149Y-159477335D02*
G75*
G02*
X130717149Y-158877349I599951J35D01*
G01*
X132312851Y-162877335D02*
G75*
G03*
X132512835Y-162677335I-51J200035D01*
G01*
X130117149Y-151477335D02*
G75*
G02*
X130717149Y-150877349I599951J35D01*
G01*
X130117144Y-171477335D02*
G75*
G02*
X130717144Y-170877344I599956J35D01*
G01*
X130717149Y-160277335D02*
G75*
G02*
X130117065Y-159677335I-49J600035D01*
G01*
X132312856Y-168877335D02*
G75*
G03*
X132512935Y-168677335I44J200035D01*
G01*
X132512851Y-164477335D02*
G75*
G03*
X132312851Y-164277249I-200051J35D01*
G01*
X132512851Y-160477335D02*
G75*
G03*
X132312851Y-160277249I-200051J35D01*
G01*
X130117149Y-157477335D02*
G75*
G02*
X130717149Y-156877349I599951J35D01*
G01*
X130717149Y-152277335D02*
G75*
G02*
X130117065Y-151677335I-49J600035D01*
G01*
X130117148Y-153477335D02*
G75*
G02*
X130717148Y-152877348I599952J35D01*
G01*
X130717144Y-170277335D02*
G75*
G02*
X130117065Y-169677335I-44J600035D01*
G01*
X132512851Y-154477335D02*
G75*
G03*
X132312851Y-154277249I-200051J35D01*
G01*
X130117147Y-145477335D02*
G75*
G02*
X130717147Y-144877347I599953J35D01*
G01*
X130117147Y-163477335D02*
G75*
G02*
X130717147Y-162877347I599953J35D01*
G01*
X132262851Y-156877335D02*
G75*
G03*
X132462835Y-156677335I-51J200035D01*
G01*
X132412850Y-144477335D02*
G75*
G03*
X132212850Y-144277250I-200050J35D01*
G01*
X132512851Y-162477335D02*
G75*
G03*
X132312851Y-162277249I-200051J35D01*
G01*
X130717147Y-148277335D02*
G75*
G02*
X130117065Y-147677335I-47J600035D01*
G01*
X130717148Y-150277335D02*
G75*
G02*
X130117065Y-149677335I-48J600035D01*
G01*
X130717147Y-166277335D02*
G75*
G02*
X130117065Y-165677335I-47J600035D01*
G01*
X130717148Y-162277335D02*
G75*
G02*
X130117065Y-161677335I-48J600035D01*
G01*
X130517144Y-171677335D02*
X130517144Y-171477335D01*
X130517147Y-147677335D02*
X130517147Y-147477335D01*
X132312851Y-161877335D02*
X131715000Y-161877335D01*
X132912856Y-168677335D02*
X132912856Y-168477335D01*
X130717147Y-145277335D02*
X131315000Y-145277335D01*
X132812850Y-146677335D02*
X132812850Y-146477335D01*
X131715000Y-155877335D02*
X130717149Y-155877335D01*
X130717148Y-149277335D02*
X131115000Y-149277335D01*
X131715000Y-143677335D02*
X131715000Y-143477335D01*
D47*
X130390501Y-179550000D02*
X130385776Y-179554725D01*
D45*
X130517147Y-165677335D02*
X130517147Y-165477335D01*
X132312851Y-163877335D02*
X131715000Y-163877335D01*
X131715000Y-165877335D02*
X130717147Y-165877335D01*
X131315000Y-163277335D02*
X132312851Y-163277335D01*
X131315000Y-169277335D02*
X132312856Y-169277335D01*
X131715000Y-163877335D02*
X130717147Y-163877335D01*
X130717149Y-151277335D02*
X131115000Y-151277335D01*
X132312856Y-169877335D02*
X131715000Y-169877335D01*
X132312856Y-167877335D02*
X131715000Y-167877335D01*
X132912851Y-166677335D02*
X132912851Y-166477335D01*
X131315000Y-157277335D02*
X132262851Y-157277335D01*
D47*
X130385776Y-179554725D02*
X129477000Y-179554725D01*
D45*
X132912851Y-162677335D02*
X132912851Y-162477335D01*
X132312851Y-165877335D02*
X131715000Y-165877335D01*
X131210000Y-174330000D02*
X131420000Y-174120000D01*
X131315000Y-155277335D02*
X132312851Y-155277335D01*
X131715000Y-145877335D02*
X130717147Y-145877335D01*
X131420000Y-174120000D02*
X131420000Y-173679461D01*
X132212850Y-143877335D02*
X131915000Y-143877335D01*
X132912851Y-164677335D02*
X132912851Y-164477335D01*
X131715000Y-172839400D02*
X131715000Y-172477335D01*
X130517147Y-163677335D02*
X130517147Y-163477335D01*
X131715000Y-121791421D02*
X131825000Y-121681421D01*
X130717147Y-165277335D02*
X131315000Y-165277335D01*
X130517149Y-159677335D02*
X130517149Y-159477335D01*
X131420000Y-173679461D02*
X131150539Y-173410000D01*
X130717149Y-155277335D02*
X131315000Y-155277335D01*
X132812850Y-148677335D02*
X132812850Y-148477335D01*
X130717147Y-163277335D02*
X131315000Y-163277335D01*
X131715000Y-152677335D02*
X131715000Y-152477335D01*
X132212850Y-145877335D02*
X131715000Y-145877335D01*
X132262851Y-155877335D02*
X131715000Y-155877335D01*
X132912851Y-158677335D02*
X132912851Y-158477335D01*
X132312851Y-157877335D02*
X131715000Y-157877335D01*
X131150539Y-173410000D02*
X131144400Y-173410000D01*
X130517147Y-167677335D02*
X130517147Y-167477335D01*
X131144400Y-173410000D02*
X131715000Y-172839400D01*
X131315000Y-145277335D02*
X132212850Y-145277335D01*
X130717144Y-171277335D02*
X131115000Y-171277335D01*
X132912851Y-154677335D02*
X132912851Y-154477335D01*
X130717149Y-159277335D02*
X131315000Y-159277335D01*
X130517149Y-157677335D02*
X130517149Y-157477335D01*
X131315000Y-161277335D02*
X132312851Y-161277335D01*
X130517149Y-155677335D02*
X130517149Y-155477335D01*
X130750000Y-174330000D02*
X131210000Y-174330000D01*
X130517144Y-169677335D02*
X130517144Y-169477335D01*
X131115000Y-149877335D02*
X130717148Y-149877335D01*
X130517147Y-145677335D02*
X130517147Y-145477335D01*
X131715000Y-157877335D02*
X130717149Y-157877335D01*
X131315000Y-167277335D02*
X132312851Y-167277335D01*
X131715000Y-167877335D02*
X130717147Y-167877335D01*
X130517148Y-149677335D02*
X130517148Y-149477335D01*
X131115000Y-151877335D02*
X130717149Y-151877335D01*
X130717147Y-147277335D02*
X131315000Y-147277335D01*
X132212850Y-147877335D02*
X131715000Y-147877335D01*
X131715000Y-159877335D02*
X130717149Y-159877335D01*
X131715000Y-161877335D02*
X130717148Y-161877335D01*
X130517149Y-151677335D02*
X130517149Y-151477335D01*
X131115000Y-171277335D02*
X132312856Y-171277335D01*
X132912851Y-160677335D02*
X132912851Y-160477335D01*
X131315000Y-159277335D02*
X132312851Y-159277335D01*
X132312851Y-159877335D02*
X131715000Y-159877335D01*
X130517148Y-153677335D02*
X130517148Y-153477335D01*
X130290000Y-173870000D02*
X130750000Y-174330000D01*
X131715000Y-147877335D02*
X130717147Y-147877335D01*
X131715000Y-150677335D02*
X131715000Y-150477335D01*
X130717147Y-167277335D02*
X131315000Y-167277335D01*
X131115000Y-149277335D02*
X132212850Y-149277335D01*
X130717148Y-153277335D02*
X131115000Y-153277335D01*
X130517148Y-161677335D02*
X130517148Y-161477335D01*
X131715000Y-169877335D02*
X130717144Y-169877335D01*
X132812850Y-144677335D02*
X132812850Y-144477335D01*
X132912856Y-170677335D02*
X132912856Y-170477335D01*
X132312851Y-153877335D02*
X131715000Y-153877335D01*
X131315000Y-165277335D02*
X132312851Y-165277335D01*
X130717144Y-169277335D02*
X131315000Y-169277335D01*
X130717148Y-161277335D02*
X131315000Y-161277335D01*
X131115000Y-171877335D02*
X130717144Y-171877335D01*
X131715000Y-139713876D02*
X131715000Y-121791421D01*
X131315000Y-147277335D02*
X132212850Y-147277335D01*
X130717149Y-157277335D02*
X131315000Y-157277335D01*
X132862851Y-156677335D02*
X132862851Y-156477335D01*
X131715000Y-153877335D02*
X130717148Y-153877335D01*
X131715000Y-143477335D02*
X131715000Y-139713876D01*
X132912851Y-162477335D02*
G75*
G03*
X132312851Y-161877349I-599951J35D01*
G01*
X130717149Y-151877335D02*
G75*
G02*
X130517165Y-151677335I51J200035D01*
G01*
X130717149Y-157877335D02*
G75*
G02*
X130517165Y-157677335I51J200035D01*
G01*
X132212850Y-145277335D02*
G75*
G03*
X132812835Y-144677335I-50J600035D01*
G01*
X130717147Y-147877335D02*
G75*
G02*
X130517065Y-147677335I-47J200035D01*
G01*
X130517149Y-159477335D02*
G75*
G02*
X130717149Y-159277249I200051J35D01*
G01*
X130717148Y-149877335D02*
G75*
G02*
X130517065Y-149677335I-48J200035D01*
G01*
X132812850Y-148477335D02*
G75*
G03*
X132212850Y-147877250I-600050J35D01*
G01*
X131115000Y-151277335D02*
G75*
G03*
X131715035Y-150677335I0J600035D01*
G01*
X132912856Y-168477335D02*
G75*
G03*
X132312856Y-167877344I-599956J35D01*
G01*
X132912851Y-164477335D02*
G75*
G03*
X132312851Y-163877349I-599951J35D01*
G01*
X132312851Y-163277335D02*
G75*
G03*
X132912935Y-162677335I49J600035D01*
G01*
X130717147Y-163877335D02*
G75*
G02*
X130517065Y-163677335I-47J200035D01*
G01*
X132312851Y-159277335D02*
G75*
G03*
X132912935Y-158677335I49J600035D01*
G01*
X132312851Y-165277335D02*
G75*
G03*
X132912935Y-164677335I49J600035D01*
G01*
X132862851Y-156477335D02*
G75*
G03*
X132262851Y-155877349I-599951J35D01*
G01*
X130717147Y-167877335D02*
G75*
G02*
X130517065Y-167677335I-47J200035D01*
G01*
X132812850Y-144477335D02*
G75*
G03*
X132212850Y-143877250I-600050J35D01*
G01*
X132212850Y-147277335D02*
G75*
G03*
X132812835Y-146677335I-50J600035D01*
G01*
X130717147Y-165877335D02*
G75*
G02*
X130517065Y-165677335I-47J200035D01*
G01*
X130717144Y-169877335D02*
G75*
G02*
X130517065Y-169677335I-44J200035D01*
G01*
X131715000Y-150477335D02*
G75*
G03*
X131115000Y-149877300I-600000J35D01*
G01*
X132912856Y-170477335D02*
G75*
G03*
X132312856Y-169877344I-599956J35D01*
G01*
X130517149Y-157477335D02*
G75*
G02*
X130717149Y-157277249I200051J35D01*
G01*
X132912851Y-166477335D02*
G75*
G03*
X132312851Y-165877349I-599951J35D01*
G01*
X130717148Y-161877335D02*
G75*
G02*
X130517065Y-161677335I-48J200035D01*
G01*
X130717149Y-159877335D02*
G75*
G02*
X130517165Y-159677335I51J200035D01*
G01*
X130717144Y-171877335D02*
G75*
G02*
X130517065Y-171677335I-44J200035D01*
G01*
X130517148Y-153477335D02*
G75*
G02*
X130717148Y-153277348I199952J35D01*
G01*
X131115000Y-153277335D02*
G75*
G03*
X131715035Y-152677335I0J600035D01*
G01*
X130517144Y-169477335D02*
G75*
G02*
X130717144Y-169277344I199956J35D01*
G01*
X130517144Y-171477335D02*
G75*
G02*
X130717144Y-171277344I199956J35D01*
G01*
X132312851Y-167277335D02*
G75*
G03*
X132912935Y-166677335I49J600035D01*
G01*
X130717149Y-155877335D02*
G75*
G02*
X130517165Y-155677335I51J200035D01*
G01*
X130517148Y-149477335D02*
G75*
G02*
X130717148Y-149277348I199952J35D01*
G01*
X132262851Y-157277335D02*
G75*
G03*
X132862935Y-156677335I49J600035D01*
G01*
X132312851Y-161277335D02*
G75*
G03*
X132912935Y-160677335I49J600035D01*
G01*
X130517149Y-155477335D02*
G75*
G02*
X130717149Y-155277249I200051J35D01*
G01*
X131715000Y-152477335D02*
G75*
G03*
X131115000Y-151877300I-600000J35D01*
G01*
X130517147Y-147477335D02*
G75*
G02*
X130717147Y-147277347I199953J35D01*
G01*
X130717147Y-145877335D02*
G75*
G02*
X130517065Y-145677335I-47J200035D01*
G01*
X130517148Y-161477335D02*
G75*
G02*
X130717148Y-161277348I199952J35D01*
G01*
X132912851Y-160477335D02*
G75*
G03*
X132312851Y-159877349I-599951J35D01*
G01*
X132212850Y-149277335D02*
G75*
G03*
X132812835Y-148677335I-50J600035D01*
G01*
X132312856Y-171277335D02*
G75*
G03*
X132912935Y-170677335I44J600035D01*
G01*
X130517147Y-165477335D02*
G75*
G02*
X130717147Y-165277347I199953J35D01*
G01*
X130517147Y-145477335D02*
G75*
G02*
X130717147Y-145277347I199953J35D01*
G01*
X130517149Y-151477335D02*
G75*
G02*
X130717149Y-151277249I200051J35D01*
G01*
X132912851Y-154477335D02*
G75*
G03*
X132312851Y-153877349I-599951J35D01*
G01*
X130517147Y-163477335D02*
G75*
G02*
X130717147Y-163277347I199953J35D01*
G01*
X132312856Y-169277335D02*
G75*
G03*
X132912935Y-168677335I44J600035D01*
G01*
X132812850Y-146477335D02*
G75*
G03*
X132212850Y-145877250I-600050J35D01*
G01*
X131715000Y-172477335D02*
G75*
G03*
X131115000Y-171877300I-600000J35D01*
G01*
X131915000Y-143877335D02*
G75*
G02*
X131714965Y-143677335I0J200035D01*
G01*
X132312851Y-155277335D02*
G75*
G03*
X132912935Y-154677335I49J600035D01*
G01*
X132912851Y-158477335D02*
G75*
G03*
X132312851Y-157877349I-599951J35D01*
G01*
X130517147Y-167477335D02*
G75*
G02*
X130717147Y-167277347I199953J35D01*
G01*
X130717148Y-153877335D02*
G75*
G02*
X130517065Y-153677335I-48J200035D01*
G01*
X140200000Y-170320923D02*
X139946423Y-170574500D01*
X133604206Y-84345533D02*
X133395000Y-84554739D01*
X137975000Y-148175000D02*
X140200000Y-150400000D01*
X133395000Y-113795000D02*
X137975000Y-118375000D01*
X125168800Y-178282600D02*
X125171200Y-178285000D01*
X133395000Y-84554739D02*
X133395000Y-113795000D01*
X140200000Y-150400000D02*
X140200000Y-170320923D01*
X123901200Y-178282600D02*
X125168800Y-178282600D01*
X137975000Y-118375000D02*
X137975000Y-148175000D01*
X133735000Y-84836287D02*
X133735000Y-113672156D01*
X133735000Y-113672156D02*
X138275000Y-118212156D01*
X140500000Y-150275736D02*
X140500000Y-170472000D01*
X138275000Y-118212156D02*
X138275000Y-148050736D01*
X138275000Y-148050736D02*
X140500000Y-150275736D01*
X134225000Y-84346287D02*
X133735000Y-84836287D01*
X140500000Y-170472000D02*
X140690600Y-170662600D01*
X127125000Y-188375000D02*
X127125000Y-190625000D01*
X126875000Y-183912500D02*
X126875000Y-184500000D01*
X127425000Y-185050000D02*
X127425000Y-188075000D01*
X126875000Y-184500000D02*
X127425000Y-185050000D01*
X127425000Y-188075000D02*
X127125000Y-188375000D01*
X127825000Y-185050000D02*
X127825000Y-188075000D01*
X128375000Y-183912500D02*
X128375000Y-184500000D01*
X128375000Y-184500000D02*
X127825000Y-185050000D01*
X128125000Y-188375000D02*
X128125000Y-190625000D01*
X127825000Y-188075000D02*
X128125000Y-188375000D01*
X132425000Y-188075000D02*
X132125000Y-188375000D01*
X132425000Y-185050000D02*
X132425000Y-188075000D01*
X131875000Y-184500000D02*
X132425000Y-185050000D01*
X132125000Y-188375000D02*
X132125000Y-190625000D01*
X131875000Y-183912500D02*
X131875000Y-184500000D01*
X133125000Y-188375000D02*
X133125000Y-190625000D01*
X132825000Y-185050000D02*
X132825000Y-188075000D01*
X133375000Y-184500000D02*
X132825000Y-185050000D01*
X133375000Y-183912500D02*
X133375000Y-184500000D01*
X132825000Y-188075000D02*
X133125000Y-188375000D01*
X136425000Y-188075000D02*
X136125000Y-188375000D01*
X136425000Y-185050000D02*
X136425000Y-188075000D01*
X135875000Y-184500000D02*
X136425000Y-185050000D01*
X136125000Y-188375000D02*
X136125000Y-190625000D01*
X135875000Y-183912500D02*
X135875000Y-184500000D01*
X137125000Y-188375000D02*
X137125000Y-190625000D01*
X136825000Y-185050000D02*
X136825000Y-188075000D01*
X137375000Y-184500000D02*
X136825000Y-185050000D01*
X137375000Y-183912500D02*
X137375000Y-184500000D01*
X136825000Y-188075000D02*
X137125000Y-188375000D01*
X140425000Y-188075000D02*
X140125000Y-188375000D01*
X139875000Y-184500000D02*
X140425000Y-185050000D01*
X139875000Y-183912500D02*
X139875000Y-184500000D01*
X140125000Y-188375000D02*
X140125000Y-190625000D01*
X140425000Y-185050000D02*
X140425000Y-188075000D01*
X141375000Y-184500000D02*
X140825000Y-185050000D01*
X140825000Y-188075000D02*
X141125000Y-188375000D01*
X140825000Y-185050000D02*
X140825000Y-188075000D01*
X141125000Y-188375000D02*
X141125000Y-190625000D01*
X141375000Y-183912500D02*
X141375000Y-184500000D01*
X131005500Y-114055416D02*
X131370250Y-114055416D01*
X132485000Y-106725916D02*
X131935000Y-106725916D01*
X131605500Y-114490666D02*
X131605499Y-115241657D01*
D48*
X126699999Y-174167800D02*
X126699999Y-172882843D01*
X126699999Y-172882843D02*
X126695000Y-172877844D01*
D45*
X130440750Y-105290666D02*
X130440750Y-105490666D01*
X126695000Y-120152156D02*
X126695000Y-172877844D01*
X131290261Y-115556895D02*
X126695000Y-120152156D01*
D48*
X126640000Y-181139902D02*
X126640000Y-176037501D01*
D45*
X131935000Y-104725916D02*
X131005500Y-104725916D01*
X132485000Y-104725916D02*
X131935000Y-104725916D01*
X131005500Y-110055416D02*
X131605500Y-110055416D01*
X132720250Y-102290666D02*
X132720250Y-102490666D01*
X132720250Y-110290666D02*
X132720250Y-110490666D01*
D48*
X126875000Y-181374902D02*
X126640000Y-181139902D01*
D45*
X132485000Y-102725916D02*
X132170250Y-102725916D01*
X132485000Y-108725916D02*
X131935000Y-108725916D01*
X130440750Y-109290666D02*
X130440750Y-109490666D01*
D48*
X126875000Y-182337500D02*
X126875000Y-181374902D01*
X126699999Y-174675001D02*
X126699999Y-174167800D01*
X126580000Y-175565000D02*
X126580000Y-174795000D01*
D45*
X131935000Y-112725916D02*
X131005500Y-112725916D01*
X131605499Y-85638297D02*
X131605499Y-101490666D01*
X131005500Y-112055416D02*
X131605500Y-112055416D01*
X132369453Y-84874343D02*
X131605499Y-85638297D01*
X132485000Y-112725916D02*
X131935000Y-112725916D01*
X131605500Y-108055416D02*
X132485000Y-108055416D01*
D48*
X126580000Y-175977501D02*
X126580000Y-175565000D01*
D45*
X131935000Y-110725916D02*
X131005500Y-110725916D01*
X131605500Y-114290666D02*
X131605500Y-114490666D01*
X131005500Y-108055416D02*
X131605500Y-108055416D01*
D48*
X126640000Y-176037501D02*
X126580000Y-175977501D01*
D45*
X132170250Y-102055416D02*
X132485000Y-102055416D01*
X130440750Y-107290666D02*
X130440750Y-107490666D01*
X131605500Y-112055416D02*
X132485000Y-112055416D01*
D48*
X126580000Y-174795000D02*
X126699999Y-174675001D01*
X126492000Y-174167800D02*
X126441200Y-174218600D01*
D45*
X130440750Y-111290666D02*
X130440750Y-111490666D01*
X131005500Y-104055416D02*
X131605500Y-104055416D01*
X132720250Y-112290666D02*
X132720250Y-112490666D01*
D48*
X126699999Y-174167800D02*
X126492000Y-174167800D01*
D45*
X131605500Y-104055416D02*
X132485000Y-104055416D01*
X131605500Y-106055416D02*
X132485000Y-106055416D01*
X131935000Y-108725916D02*
X131005500Y-108725916D01*
X132720250Y-104290666D02*
X132720250Y-104490666D01*
X131935000Y-106725916D02*
X131005500Y-106725916D01*
X132369453Y-84718780D02*
X132369453Y-84874343D01*
X130440750Y-103290666D02*
X130440750Y-103490666D01*
X132485000Y-110725916D02*
X131935000Y-110725916D01*
D48*
X126442448Y-174219848D02*
X126442448Y-174222192D01*
D45*
X131605499Y-115241657D02*
X131290261Y-115556895D01*
X131605499Y-101490666D02*
X131605500Y-101490666D01*
X130440750Y-113290666D02*
X130440750Y-113490666D01*
X132720250Y-106290666D02*
X132720250Y-106490666D01*
X132170250Y-102725916D02*
X131005500Y-102725916D01*
X132720250Y-108290666D02*
X132720250Y-108490666D01*
D48*
X126441200Y-174218600D02*
X126442448Y-174219848D01*
D45*
X131605500Y-110055416D02*
X132485000Y-110055416D01*
X131005500Y-106055416D02*
X131605500Y-106055416D01*
X132485000Y-112055416D02*
G75*
G02*
X132720284Y-112290666I0J-235284D01*
G01*
X132720250Y-112490666D02*
G75*
G02*
X132485000Y-112725950I-235250J-34D01*
G01*
X130440750Y-107490666D02*
G75*
G03*
X131005500Y-108055450I564750J-34D01*
G01*
X130440750Y-113490666D02*
G75*
G03*
X131005500Y-114055450I564750J-34D01*
G01*
X131005500Y-102725916D02*
G75*
G03*
X130440716Y-103290666I0J-564784D01*
G01*
X132485000Y-106055416D02*
G75*
G02*
X132720284Y-106290666I0J-235284D01*
G01*
X132720250Y-104490666D02*
G75*
G02*
X132485000Y-104725950I-235250J-34D01*
G01*
X132485000Y-108055416D02*
G75*
G02*
X132720284Y-108290666I0J-235284D01*
G01*
X132485000Y-110055416D02*
G75*
G02*
X132720284Y-110290666I0J-235284D01*
G01*
X132720250Y-102490666D02*
G75*
G02*
X132485000Y-102725950I-235250J-34D01*
G01*
X130440750Y-109490666D02*
G75*
G03*
X131005500Y-110055450I564750J-34D01*
G01*
X130440750Y-111490666D02*
G75*
G03*
X131005500Y-112055450I564750J-34D01*
G01*
X131005500Y-108725916D02*
G75*
G03*
X130440716Y-109290666I0J-564784D01*
G01*
X131005500Y-106725916D02*
G75*
G03*
X130440716Y-107290666I0J-564784D01*
G01*
X130440750Y-105490666D02*
G75*
G03*
X131005500Y-106055450I564750J-34D01*
G01*
X131605500Y-101490666D02*
G75*
G03*
X132170250Y-102055400I564700J-34D01*
G01*
X131005500Y-112725916D02*
G75*
G03*
X130440716Y-113290666I0J-564784D01*
G01*
X132720250Y-110490666D02*
G75*
G02*
X132485000Y-110725950I-235250J-34D01*
G01*
X130440750Y-103490666D02*
G75*
G03*
X131005500Y-104055450I564750J-34D01*
G01*
X132720250Y-108490666D02*
G75*
G02*
X132485000Y-108725950I-235250J-34D01*
G01*
X132485000Y-104055416D02*
G75*
G02*
X132720284Y-104290666I0J-235284D01*
G01*
X132720250Y-106490666D02*
G75*
G02*
X132485000Y-106725950I-235250J-34D01*
G01*
X131370250Y-114055416D02*
G75*
G02*
X131605584Y-114290666I50J-235284D01*
G01*
X131005500Y-104725916D02*
G75*
G03*
X130440716Y-105290666I0J-564784D01*
G01*
X132485000Y-102055416D02*
G75*
G02*
X132720284Y-102290666I0J-235284D01*
G01*
X131005500Y-110725916D02*
G75*
G03*
X130440716Y-111290666I0J-564784D01*
G01*
X131005500Y-103725916D02*
X131605500Y-103725916D01*
X133049750Y-110290666D02*
X133049750Y-110490666D01*
X131605500Y-111725916D02*
X132485000Y-111725916D01*
X132485000Y-111055416D02*
X131935000Y-111055416D01*
X130770250Y-107290666D02*
X130770250Y-107490666D01*
D48*
X127020000Y-176830000D02*
X127020000Y-176380000D01*
X127080000Y-174795000D02*
X127080000Y-172727156D01*
D45*
X130770250Y-109290666D02*
X130770250Y-109490666D01*
X131935000Y-111055416D02*
X131005500Y-111055416D01*
X132485000Y-107055416D02*
X131935000Y-107055416D01*
X130770250Y-105290666D02*
X130770250Y-105490666D01*
X132170250Y-101725916D02*
X132485000Y-101725916D01*
X132485000Y-109055416D02*
X131935000Y-109055416D01*
X133049750Y-112290666D02*
X133049750Y-112490666D01*
D48*
X127020000Y-176380000D02*
X127020000Y-176037501D01*
D45*
X131935000Y-115477844D02*
X131573105Y-115839739D01*
X131005500Y-105725916D02*
X131605500Y-105725916D01*
X133049750Y-106290666D02*
X133049750Y-106490666D01*
X131935000Y-109055416D02*
X131005500Y-109055416D01*
X132955500Y-84754280D02*
X131935000Y-85774780D01*
X131935000Y-114490666D02*
X131935000Y-115477844D01*
X131935000Y-85774780D02*
X131935000Y-101490666D01*
D48*
X127080000Y-175565000D02*
X127080000Y-174795000D01*
D45*
X131005500Y-107725916D02*
X131605500Y-107725916D01*
D48*
X127020000Y-180982500D02*
X127020000Y-176830000D01*
X127020000Y-176037501D02*
X127080000Y-175977501D01*
D45*
X127095000Y-120317844D02*
X127095000Y-172712156D01*
X130770250Y-113290666D02*
X130770250Y-113490666D01*
X131005500Y-111725916D02*
X131605500Y-111725916D01*
X131573105Y-115839739D02*
X127095000Y-120317844D01*
X131935000Y-107055416D02*
X131005500Y-107055416D01*
D48*
X128375000Y-182337500D02*
X127020000Y-180982500D01*
D45*
X131605500Y-105725916D02*
X132485000Y-105725916D01*
X133049750Y-104290666D02*
X133049750Y-104490666D01*
X133049750Y-108290666D02*
X133049750Y-108490666D01*
X131935000Y-114290666D02*
X131935000Y-114490666D01*
D48*
X127020000Y-176601283D02*
X127064500Y-176556783D01*
X127080000Y-175977501D02*
X127080000Y-175565000D01*
D45*
X132485000Y-103055416D02*
X132170250Y-103055416D01*
X130770250Y-111290666D02*
X130770250Y-111490666D01*
X132485000Y-113055416D02*
X131935000Y-113055416D01*
D48*
X127080000Y-172727156D02*
X127095000Y-172712156D01*
D45*
X131005500Y-109725916D02*
X131605500Y-109725916D01*
X130770250Y-103290666D02*
X130770250Y-103490666D01*
X131005500Y-113725916D02*
X131370250Y-113725916D01*
X131935000Y-105055416D02*
X131005500Y-105055416D01*
D48*
X127020000Y-176830000D02*
X127020000Y-176601283D01*
D45*
X132170250Y-103055416D02*
X131005500Y-103055416D01*
X131605500Y-107725916D02*
X132485000Y-107725916D01*
X131605500Y-103725916D02*
X132485000Y-103725916D01*
X131605500Y-109725916D02*
X132485000Y-109725916D01*
X133049750Y-102290666D02*
X133049750Y-102490666D01*
X132485000Y-105055416D02*
X131935000Y-105055416D01*
X131935000Y-113055416D02*
X131005500Y-113055416D01*
X132485000Y-101725916D02*
G75*
G02*
X133049784Y-102290666I0J-564784D01*
G01*
X131005500Y-103055416D02*
G75*
G03*
X130770216Y-103290666I0J-235284D01*
G01*
X132485000Y-107725916D02*
G75*
G02*
X133049784Y-108290666I0J-564784D01*
G01*
X130770250Y-105490666D02*
G75*
G03*
X131005500Y-105725950I235250J-34D01*
G01*
X130770250Y-107490666D02*
G75*
G03*
X131005500Y-107725950I235250J-34D01*
G01*
X130770250Y-103490666D02*
G75*
G03*
X131005500Y-103725950I235250J-34D01*
G01*
X131935000Y-101490666D02*
G75*
G03*
X132170250Y-101725900I235200J-34D01*
G01*
X133049750Y-102490666D02*
G75*
G02*
X132485000Y-103055450I-564750J-34D01*
G01*
X131005500Y-111055416D02*
G75*
G03*
X130770216Y-111290666I0J-235284D01*
G01*
X132485000Y-105725916D02*
G75*
G02*
X133049784Y-106290666I0J-564784D01*
G01*
X133049750Y-104490666D02*
G75*
G02*
X132485000Y-105055450I-564750J-34D01*
G01*
X132485000Y-111725916D02*
G75*
G02*
X133049784Y-112290666I0J-564784D01*
G01*
X132485000Y-103725916D02*
G75*
G02*
X133049784Y-104290666I0J-564784D01*
G01*
X131005500Y-109055416D02*
G75*
G03*
X130770216Y-109290666I0J-235284D01*
G01*
X131005500Y-105055416D02*
G75*
G03*
X130770216Y-105290666I0J-235284D01*
G01*
X133049750Y-108490666D02*
G75*
G02*
X132485000Y-109055450I-564750J-34D01*
G01*
X131005500Y-113055416D02*
G75*
G03*
X130770216Y-113290666I0J-235284D01*
G01*
X133049750Y-112490666D02*
G75*
G02*
X132485000Y-113055450I-564750J-34D01*
G01*
X130770250Y-109490666D02*
G75*
G03*
X131005500Y-109725950I235250J-34D01*
G01*
X133049750Y-106490666D02*
G75*
G02*
X132485000Y-107055450I-564750J-34D01*
G01*
X130770250Y-111490666D02*
G75*
G03*
X131005500Y-111725950I235250J-34D01*
G01*
X130770250Y-113490666D02*
G75*
G03*
X131005500Y-113725950I235250J-34D01*
G01*
X131370250Y-113725916D02*
G75*
G02*
X131935084Y-114290666I50J-564784D01*
G01*
X133049750Y-110490666D02*
G75*
G02*
X132485000Y-111055450I-564750J-34D01*
G01*
X131005500Y-107055416D02*
G75*
G03*
X130770216Y-107290666I0J-235284D01*
G01*
X132485000Y-109725916D02*
G75*
G02*
X133049784Y-110290666I0J-564784D01*
G01*
X127444495Y-157078252D02*
X127444495Y-157280276D01*
X127444495Y-135078252D02*
X127444495Y-135280276D01*
X128840924Y-160529236D02*
X128542528Y-160529236D01*
D48*
X132435000Y-181777500D02*
X132435000Y-179743702D01*
D45*
X128336296Y-125063704D02*
X128240000Y-125160000D01*
X129090896Y-164079264D02*
X129090896Y-164279264D01*
X127444495Y-143078252D02*
X127444495Y-143280276D01*
X127444495Y-137078252D02*
X127444495Y-137280276D01*
X129140900Y-150529236D02*
X128542528Y-150529236D01*
D48*
X128145000Y-173650500D02*
X128095500Y-173700000D01*
D45*
X128542528Y-150529236D02*
X127993511Y-150529236D01*
X128242472Y-163829292D02*
X128840924Y-163829292D01*
X129140900Y-128529236D02*
X128542528Y-128529236D01*
X127993511Y-133829292D02*
X128242472Y-133829292D01*
X128542528Y-154529236D02*
X127993511Y-154529236D01*
X128542528Y-142529236D02*
X127993511Y-142529236D01*
X129090875Y-154079264D02*
X129090875Y-154279264D01*
X127993511Y-143829292D02*
X128242472Y-143829292D01*
X128242472Y-133829292D02*
X129140900Y-133829292D01*
X128242472Y-170279264D02*
X128240000Y-171692000D01*
X127993511Y-139829292D02*
X128242472Y-139829292D01*
X128542528Y-130529236D02*
X127993511Y-130529236D01*
X128840903Y-162529236D02*
X128542528Y-162529236D01*
X128242472Y-127829292D02*
X129140900Y-127829292D01*
X129390872Y-136079264D02*
X129390872Y-136279264D01*
D48*
X128140000Y-177248702D02*
X128140000Y-176037501D01*
D45*
X128840903Y-156529236D02*
X128542528Y-156529236D01*
X128542528Y-164529236D02*
X127993511Y-164529236D01*
X128242472Y-155829292D02*
X128840903Y-155829292D01*
X128242472Y-139829292D02*
X129140900Y-139829292D01*
X127444495Y-155078252D02*
X127444495Y-155280276D01*
X128542528Y-140529236D02*
X127993511Y-140529236D01*
X127993511Y-163829292D02*
X128242472Y-163829292D01*
X129140900Y-136529236D02*
X128542528Y-136529236D01*
D48*
X128080000Y-175977501D02*
X128080000Y-173300000D01*
D45*
X128840924Y-168529236D02*
X128542528Y-168529236D01*
X128840903Y-154529236D02*
X128542528Y-154529236D01*
X129390872Y-130079264D02*
X129390872Y-130279264D01*
X129090875Y-158079264D02*
X129090875Y-158279264D01*
X127993511Y-135829292D02*
X128242472Y-135829292D01*
X127444495Y-133078252D02*
X127444495Y-133280276D01*
X127993511Y-141829292D02*
X128242472Y-141829292D01*
X128240000Y-171692000D02*
X128240000Y-173140000D01*
X127444495Y-127078252D02*
X127444495Y-127280276D01*
X129090896Y-160079264D02*
X129090896Y-160279264D01*
D48*
X129341298Y-178450000D02*
X128140000Y-177248702D01*
D45*
X128542528Y-168529236D02*
X127993622Y-168529236D01*
X128542528Y-158529236D02*
X127993511Y-158529236D01*
X129090875Y-166079264D02*
X129090875Y-166279264D01*
X128542528Y-136529236D02*
X127993511Y-136529236D01*
D48*
X128145000Y-173235000D02*
X128145000Y-173650500D01*
D45*
X128840903Y-158529236D02*
X128542528Y-158529236D01*
X127444495Y-161078252D02*
X127444495Y-161280276D01*
X128840924Y-164529236D02*
X128542528Y-164529236D01*
D48*
X128080000Y-173300000D02*
X128145000Y-173235000D01*
D45*
X128542528Y-166529236D02*
X127993511Y-166529236D01*
X128242472Y-137829292D02*
X129140900Y-137829292D01*
X128242472Y-147829292D02*
X129140920Y-147829292D01*
X128242472Y-159829292D02*
X128840924Y-159829292D01*
X128242472Y-161829292D02*
X128840903Y-161829292D01*
X129140900Y-138529236D02*
X128542528Y-138529236D01*
X129390872Y-128079264D02*
X129390872Y-128279264D01*
X129140900Y-142529236D02*
X128542528Y-142529236D01*
X128242472Y-141829292D02*
X129140900Y-141829292D01*
X127444495Y-129078252D02*
X127444495Y-129280276D01*
X127444495Y-153078252D02*
X127444495Y-153280276D01*
X128242472Y-149829292D02*
X129140900Y-149829292D01*
X130115000Y-123285000D02*
X128336296Y-125063704D01*
X129090875Y-162079264D02*
X129090875Y-162279264D01*
X127444495Y-151078252D02*
X127444495Y-151280276D01*
X127993511Y-127829292D02*
X128242472Y-127829292D01*
X127993511Y-161829292D02*
X128242472Y-161829292D01*
X128792500Y-125829292D02*
X129140900Y-125829292D01*
X128542528Y-146529236D02*
X127993511Y-146529236D01*
X127444495Y-159078252D02*
X127444495Y-159280276D01*
X129390872Y-134079264D02*
X129390872Y-134279264D01*
X128242472Y-145829292D02*
X129140900Y-145829292D01*
X128542528Y-144529236D02*
X127993511Y-144529236D01*
X127444495Y-131078252D02*
X127444495Y-131280276D01*
X129390872Y-138079264D02*
X129390872Y-138279264D01*
X128242472Y-165829292D02*
X128840903Y-165829292D01*
X128542528Y-162529236D02*
X127993511Y-162529236D01*
X127444716Y-169078142D02*
X127444716Y-169280386D01*
X129090896Y-168079264D02*
X129090896Y-168279264D01*
X129390892Y-148079264D02*
X129390892Y-148279264D01*
X127993511Y-159829292D02*
X128242472Y-159829292D01*
X129390872Y-140079264D02*
X129390872Y-140279264D01*
D48*
X131141298Y-178450000D02*
X129341298Y-178450000D01*
D45*
X127444495Y-167078252D02*
X127444495Y-167280276D01*
X127444495Y-141078252D02*
X127444495Y-141280276D01*
X128242472Y-153829292D02*
X128840903Y-153829292D01*
X128240000Y-173140000D02*
X128145000Y-173235000D01*
X129390872Y-132079264D02*
X129390872Y-132279264D01*
X129140920Y-144529236D02*
X128542528Y-144529236D01*
X129090875Y-156079264D02*
X129090875Y-156279264D01*
X128242472Y-170078142D02*
X128242472Y-170279264D01*
X129390872Y-142079264D02*
X129390872Y-142279264D01*
X129090875Y-152079264D02*
X129090875Y-152279264D01*
X130115000Y-121566598D02*
X130115000Y-123285000D01*
X128542528Y-132529236D02*
X127993511Y-132529236D01*
X128242472Y-143829292D02*
X129140920Y-143829292D01*
X129140900Y-146529236D02*
X128542528Y-146529236D01*
X127993511Y-137829292D02*
X128242472Y-137829292D01*
D48*
X132435000Y-179743702D02*
X131141298Y-178450000D01*
D45*
X127993511Y-153829292D02*
X128242472Y-153829292D01*
X127993511Y-155829292D02*
X128242472Y-155829292D01*
X127444495Y-147078252D02*
X127444495Y-147280276D01*
D48*
X128140000Y-176037501D02*
X128080000Y-175977501D01*
D45*
X127993511Y-129829292D02*
X128242472Y-129829292D01*
X128542528Y-152529236D02*
X127993511Y-152529236D01*
X128242472Y-135829292D02*
X129140900Y-135829292D01*
X127444495Y-145078252D02*
X127444495Y-145280276D01*
X127993511Y-167829292D02*
X128242472Y-167829292D01*
X127993511Y-151829292D02*
X128242472Y-151829292D01*
X127993511Y-157829292D02*
X128242472Y-157829292D01*
X128542528Y-138529236D02*
X127993511Y-138529236D01*
X129140900Y-132529236D02*
X128542528Y-132529236D01*
X129390872Y-146079264D02*
X129390872Y-146279264D01*
X127993511Y-145829292D02*
X128242472Y-145829292D01*
X128242472Y-167829292D02*
X128840924Y-167829292D01*
D48*
X131875000Y-182337500D02*
X132435000Y-181777500D01*
D45*
X128242472Y-129829292D02*
X129140900Y-129829292D01*
X128242472Y-151829292D02*
X128840903Y-151829292D01*
X128840903Y-152529236D02*
X128542528Y-152529236D01*
X129140920Y-148529236D02*
X128542528Y-148529236D01*
X129390892Y-144079264D02*
X129390892Y-144279264D01*
X129140900Y-140529236D02*
X128542528Y-140529236D01*
X127444495Y-163078252D02*
X127444495Y-163280276D01*
X128242472Y-157829292D02*
X128840903Y-157829292D01*
X128240000Y-125160000D02*
X128242472Y-125279264D01*
X129140900Y-130529236D02*
X128542528Y-130529236D01*
X127444495Y-149078252D02*
X127444495Y-149280276D01*
X127993511Y-165829292D02*
X128242472Y-165829292D01*
X130005000Y-121456598D02*
X130115000Y-121566598D01*
X127444495Y-165078252D02*
X127444495Y-165280276D01*
X129390872Y-150079264D02*
X129390872Y-150279264D01*
X128542528Y-148529236D02*
X127993511Y-148529236D01*
X128792500Y-126529236D02*
X127993511Y-126529236D01*
X128242472Y-131829292D02*
X129140900Y-131829292D01*
X128542528Y-128529236D02*
X127993511Y-128529236D01*
X127444495Y-139078252D02*
X127444495Y-139280276D01*
X128542528Y-156529236D02*
X127993511Y-156529236D01*
X128542528Y-134529236D02*
X127993511Y-134529236D01*
X129390872Y-126079264D02*
X129390872Y-126279264D01*
X128840903Y-166529236D02*
X128542528Y-166529236D01*
X128542528Y-160529236D02*
X127993511Y-160529236D01*
X127993511Y-131829292D02*
X128242472Y-131829292D01*
X129140900Y-134529236D02*
X128542528Y-134529236D01*
X127993511Y-149829292D02*
X128242472Y-149829292D01*
X129140900Y-126529236D02*
X128792500Y-126529236D01*
X127993511Y-147829292D02*
X128242472Y-147829292D01*
X129140920Y-143829292D02*
G75*
G02*
X129390908Y-144079264I-20J-250008D01*
G01*
X127993511Y-154529236D02*
G75*
G03*
X127444436Y-155078252I-11J-549064D01*
G01*
X127993511Y-144529236D02*
G75*
G03*
X127444436Y-145078252I-11J-549064D01*
G01*
X128242472Y-125279264D02*
G75*
G03*
X128792500Y-125829328I550028J-36D01*
G01*
X128840924Y-163829292D02*
G75*
G02*
X129090908Y-164079264I-24J-250008D01*
G01*
X127993511Y-152529236D02*
G75*
G03*
X127444436Y-153078252I-11J-549064D01*
G01*
X129090875Y-166279264D02*
G75*
G02*
X128840903Y-166529275I-249975J-36D01*
G01*
X129090896Y-164279264D02*
G75*
G02*
X128840924Y-164529296I-249996J-36D01*
G01*
X129390872Y-126279264D02*
G75*
G02*
X129140900Y-126529272I-249972J-36D01*
G01*
X127444495Y-153280276D02*
G75*
G03*
X127993511Y-153829305I549005J-24D01*
G01*
X127993511Y-128529236D02*
G75*
G03*
X127444436Y-129078252I-11J-549064D01*
G01*
X129140900Y-137829292D02*
G75*
G02*
X129390908Y-138079264I0J-250008D01*
G01*
X127993511Y-134529236D02*
G75*
G03*
X127444436Y-135078252I-11J-549064D01*
G01*
X129390892Y-144279264D02*
G75*
G02*
X129140920Y-144529292I-249992J-36D01*
G01*
X129390872Y-140279264D02*
G75*
G02*
X129140900Y-140529272I-249972J-36D01*
G01*
X129390892Y-148279264D02*
G75*
G02*
X129140920Y-148529292I-249992J-36D01*
G01*
X127444716Y-169280386D02*
G75*
G03*
X127993622Y-169829284I548884J-14D01*
G01*
X128840924Y-159829292D02*
G75*
G02*
X129090908Y-160079264I-24J-250008D01*
G01*
X129140900Y-125829292D02*
G75*
G02*
X129390908Y-126079264I0J-250008D01*
G01*
X127993511Y-146529236D02*
G75*
G03*
X127444436Y-147078252I-11J-549064D01*
G01*
X127444495Y-137280276D02*
G75*
G03*
X127993511Y-137829305I549005J-24D01*
G01*
X129140900Y-127829292D02*
G75*
G02*
X129390908Y-128079264I0J-250008D01*
G01*
X129390872Y-138279264D02*
G75*
G02*
X129140900Y-138529272I-249972J-36D01*
G01*
X127993511Y-156529236D02*
G75*
G03*
X127444436Y-157078252I-11J-549064D01*
G01*
X128840903Y-153829292D02*
G75*
G02*
X129090908Y-154079264I-3J-250008D01*
G01*
X128840903Y-155829292D02*
G75*
G02*
X129090908Y-156079264I-3J-250008D01*
G01*
X129090896Y-168279264D02*
G75*
G02*
X128840924Y-168529296I-249996J-36D01*
G01*
X127444495Y-155280276D02*
G75*
G03*
X127993511Y-155829305I549005J-24D01*
G01*
X127993511Y-130529236D02*
G75*
G03*
X127444436Y-131078252I-11J-549064D01*
G01*
X129140900Y-139829292D02*
G75*
G02*
X129390908Y-140079264I0J-250008D01*
G01*
X127444495Y-129280276D02*
G75*
G03*
X127993511Y-129829305I549005J-24D01*
G01*
X128840924Y-167829292D02*
G75*
G02*
X129090908Y-168079264I-24J-250008D01*
G01*
X129090875Y-156279264D02*
G75*
G02*
X128840903Y-156529275I-249975J-36D01*
G01*
X127993511Y-138529236D02*
G75*
G03*
X127444436Y-139078252I-11J-549064D01*
G01*
X129090875Y-158279264D02*
G75*
G02*
X128840903Y-158529275I-249975J-36D01*
G01*
X127444495Y-167280276D02*
G75*
G03*
X127993511Y-167829305I549005J-24D01*
G01*
X127444495Y-161280276D02*
G75*
G03*
X127993511Y-161829305I549005J-24D01*
G01*
X129140900Y-131829292D02*
G75*
G02*
X129390908Y-132079264I0J-250008D01*
G01*
X127444495Y-127280276D02*
G75*
G03*
X127993511Y-127829305I549005J-24D01*
G01*
X129390872Y-130279264D02*
G75*
G02*
X129140900Y-130529272I-249972J-36D01*
G01*
X127444495Y-139280276D02*
G75*
G03*
X127993511Y-139829305I549005J-24D01*
G01*
X127444495Y-159280276D02*
G75*
G03*
X127993511Y-159829305I549005J-24D01*
G01*
X127444495Y-149280276D02*
G75*
G03*
X127993511Y-149829305I549005J-24D01*
G01*
X129390872Y-150279264D02*
G75*
G02*
X129140900Y-150529272I-249972J-36D01*
G01*
X129390872Y-142279264D02*
G75*
G02*
X129140900Y-142529272I-249972J-36D01*
G01*
X127993511Y-132529236D02*
G75*
G03*
X127444436Y-133078252I-11J-549064D01*
G01*
X127444495Y-151280276D02*
G75*
G03*
X127993511Y-151829305I549005J-24D01*
G01*
X128840903Y-165829292D02*
G75*
G02*
X129090908Y-166079264I-3J-250008D01*
G01*
X129140920Y-147829292D02*
G75*
G02*
X129390908Y-148079264I-20J-250008D01*
G01*
X127993622Y-168529236D02*
G75*
G03*
X127444736Y-169078142I-22J-548864D01*
G01*
X129140900Y-129829292D02*
G75*
G02*
X129390908Y-130079264I0J-250008D01*
G01*
X129140900Y-145829292D02*
G75*
G02*
X129390908Y-146079264I0J-250008D01*
G01*
X128840903Y-161829292D02*
G75*
G02*
X129090908Y-162079264I-3J-250008D01*
G01*
X127993511Y-136529236D02*
G75*
G03*
X127444436Y-137078252I-11J-549064D01*
G01*
X129140900Y-141829292D02*
G75*
G02*
X129390908Y-142079264I0J-250008D01*
G01*
X127993511Y-150529236D02*
G75*
G03*
X127444436Y-151078252I-11J-549064D01*
G01*
X129390872Y-132279264D02*
G75*
G02*
X129140900Y-132529272I-249972J-36D01*
G01*
X129140900Y-135829292D02*
G75*
G02*
X129390908Y-136079264I0J-250008D01*
G01*
X127444495Y-141280276D02*
G75*
G03*
X127993511Y-141829305I549005J-24D01*
G01*
X127993511Y-164529236D02*
G75*
G03*
X127444436Y-165078252I-11J-549064D01*
G01*
X127993511Y-162529236D02*
G75*
G03*
X127444436Y-163078252I-11J-549064D01*
G01*
X127993511Y-158529236D02*
G75*
G03*
X127444436Y-159078252I-11J-549064D01*
G01*
X128840903Y-151829292D02*
G75*
G02*
X129090908Y-152079264I-3J-250008D01*
G01*
X127993511Y-142529236D02*
G75*
G03*
X127444436Y-143078252I-11J-549064D01*
G01*
X127444495Y-131280276D02*
G75*
G03*
X127993511Y-131829305I549005J-24D01*
G01*
X127993622Y-169829292D02*
G75*
G02*
X128242408Y-170078142I-22J-248808D01*
G01*
X129090875Y-162279264D02*
G75*
G02*
X128840903Y-162529275I-249975J-36D01*
G01*
X128840903Y-157829292D02*
G75*
G02*
X129090908Y-158079264I-3J-250008D01*
G01*
X127993511Y-160529236D02*
G75*
G03*
X127444436Y-161078252I-11J-549064D01*
G01*
X127444495Y-133280276D02*
G75*
G03*
X127993511Y-133829305I549005J-24D01*
G01*
X127444495Y-145280276D02*
G75*
G03*
X127993511Y-145829305I549005J-24D01*
G01*
X129090875Y-154279264D02*
G75*
G02*
X128840903Y-154529275I-249975J-36D01*
G01*
X127444495Y-165280276D02*
G75*
G03*
X127993511Y-165829305I549005J-24D01*
G01*
X129090896Y-160279264D02*
G75*
G02*
X128840924Y-160529296I-249996J-36D01*
G01*
X129140900Y-149829292D02*
G75*
G02*
X129390908Y-150079264I0J-250008D01*
G01*
X127444495Y-157280276D02*
G75*
G03*
X127993511Y-157829305I549005J-24D01*
G01*
X127444495Y-163280276D02*
G75*
G03*
X127993511Y-163829305I549005J-24D01*
G01*
X129390872Y-128279264D02*
G75*
G02*
X129140900Y-128529272I-249972J-36D01*
G01*
X127993511Y-140529236D02*
G75*
G03*
X127444436Y-141078252I-11J-549064D01*
G01*
X129090875Y-152279264D02*
G75*
G02*
X128840903Y-152529275I-249975J-36D01*
G01*
X127993511Y-148529236D02*
G75*
G03*
X127444436Y-149078252I-11J-549064D01*
G01*
X127444495Y-147280276D02*
G75*
G03*
X127993511Y-147829305I549005J-24D01*
G01*
X127444495Y-135280276D02*
G75*
G03*
X127993511Y-135829305I549005J-24D01*
G01*
X129140900Y-133829292D02*
G75*
G02*
X129390908Y-134079264I0J-250008D01*
G01*
X127993511Y-166529236D02*
G75*
G03*
X127444436Y-167078252I-11J-549064D01*
G01*
X127444495Y-143280276D02*
G75*
G03*
X127993511Y-143829305I549005J-24D01*
G01*
X127993511Y-126529236D02*
G75*
G03*
X127444436Y-127078252I-11J-549064D01*
G01*
X129390872Y-134279264D02*
G75*
G02*
X129140900Y-134529272I-249972J-36D01*
G01*
X129390872Y-146279264D02*
G75*
G02*
X129140900Y-146529272I-249972J-36D01*
G01*
X129390872Y-136279264D02*
G75*
G02*
X129140900Y-136529272I-249972J-36D01*
G01*
X129690928Y-128079264D02*
X129690928Y-128279264D01*
D48*
X128580000Y-174795000D02*
X128580000Y-174382499D01*
D45*
X128840924Y-164829292D02*
X128542528Y-164829292D01*
X128840903Y-154829292D02*
X128542528Y-154829292D01*
X128242472Y-161529236D02*
X128840903Y-161529236D01*
X130515000Y-121566598D02*
X130625000Y-121456598D01*
X128545000Y-125279264D02*
X128542528Y-125279264D01*
X127993511Y-165529236D02*
X128242472Y-165529236D01*
X127993511Y-137529236D02*
X128242472Y-137529236D01*
X129690948Y-144079264D02*
X129690948Y-144279264D01*
X127993511Y-139529236D02*
X128242472Y-139529236D01*
X127993511Y-159529236D02*
X128242472Y-159529236D01*
X129140900Y-138829292D02*
X128542528Y-138829292D01*
X128242472Y-143529236D02*
X129140920Y-143529236D01*
X129690928Y-132079264D02*
X129690928Y-132279264D01*
X129690928Y-140079264D02*
X129690928Y-140279264D01*
X127744551Y-133078252D02*
X127744551Y-133280276D01*
X128542528Y-146829292D02*
X127993511Y-146829292D01*
X129140900Y-130829292D02*
X128542528Y-130829292D01*
X128242472Y-145529236D02*
X129140900Y-145529236D01*
D48*
X128580000Y-175565000D02*
X128580000Y-174795000D01*
D45*
X127744551Y-139078252D02*
X127744551Y-139280276D01*
D48*
X132815000Y-179586298D02*
X131298702Y-178070000D01*
D45*
X129690928Y-146079264D02*
X129690928Y-146279264D01*
X127744551Y-141078252D02*
X127744551Y-141280276D01*
D48*
X128520000Y-173540000D02*
X128520000Y-173060000D01*
D45*
X129690928Y-134079264D02*
X129690928Y-134279264D01*
X129690928Y-138079264D02*
X129690928Y-138279264D01*
D48*
X128520000Y-177091298D02*
X128520000Y-176037501D01*
D45*
X129140900Y-132829292D02*
X128542528Y-132829292D01*
X128542528Y-156829292D02*
X127993511Y-156829292D01*
X128792500Y-126829292D02*
X127993511Y-126829292D01*
X128542528Y-162829292D02*
X127993511Y-162829292D01*
X129390952Y-164079264D02*
X129390952Y-164279264D01*
X128542528Y-132829292D02*
X127993511Y-132829292D01*
X127744551Y-131078252D02*
X127744551Y-131280276D01*
X127744551Y-165078252D02*
X127744551Y-165280276D01*
X127993511Y-135529236D02*
X128242472Y-135529236D01*
X127993511Y-131529236D02*
X128242472Y-131529236D01*
X129140900Y-136829292D02*
X128542528Y-136829292D01*
X127744551Y-137078252D02*
X127744551Y-137280276D01*
X129140900Y-126829292D02*
X128792500Y-126829292D01*
X128242472Y-135529236D02*
X129140900Y-135529236D01*
D48*
X133375000Y-182337500D02*
X132815000Y-181777500D01*
D45*
X128542528Y-138829292D02*
X127993511Y-138829292D01*
X129390952Y-160079264D02*
X129390952Y-160279264D01*
X128840903Y-162829292D02*
X128542528Y-162829292D01*
X128542528Y-130829292D02*
X127993511Y-130829292D01*
X128792500Y-125529236D02*
X129140900Y-125529236D01*
X130515000Y-123309264D02*
X130515000Y-121566598D01*
X127993511Y-149529236D02*
X128242472Y-149529236D01*
X128542528Y-152829292D02*
X127993511Y-152829292D01*
X127744772Y-169078142D02*
X127744772Y-169280386D01*
X127744551Y-153078252D02*
X127744551Y-153280276D01*
X128542528Y-148829292D02*
X127993511Y-148829292D01*
X128545000Y-171692000D02*
X128545000Y-173235000D01*
X128840903Y-166829292D02*
X128542528Y-166829292D01*
X128542528Y-128829292D02*
X127993511Y-128829292D01*
X128840924Y-168829292D02*
X128542528Y-168829292D01*
X128542528Y-136829292D02*
X127993511Y-136829292D01*
X127744551Y-161078252D02*
X127744551Y-161280276D01*
D48*
X129498702Y-178070000D02*
X128520000Y-177091298D01*
D45*
X128242472Y-133529236D02*
X129140900Y-133529236D01*
X129140900Y-146829292D02*
X128542528Y-146829292D01*
X127744551Y-143078252D02*
X127744551Y-143280276D01*
X128548428Y-125275836D02*
X130515000Y-123309264D01*
X129140900Y-128829292D02*
X128542528Y-128829292D01*
D48*
X132815000Y-181777500D02*
X132815000Y-179586298D01*
D45*
X127993511Y-163529236D02*
X128242472Y-163529236D01*
X129390931Y-158079264D02*
X129390931Y-158279264D01*
X128242472Y-149529236D02*
X129140900Y-149529236D01*
X127744551Y-149078252D02*
X127744551Y-149280276D01*
X127744551Y-135078252D02*
X127744551Y-135280276D01*
X128242472Y-129529236D02*
X129140900Y-129529236D01*
X129690928Y-136079264D02*
X129690928Y-136279264D01*
X127993511Y-147529236D02*
X128242472Y-147529236D01*
D48*
X128520000Y-173822510D02*
X128619814Y-173922324D01*
D45*
X128242472Y-151529236D02*
X128840903Y-151529236D01*
X128242472Y-163529236D02*
X128840924Y-163529236D01*
X128242472Y-165529236D02*
X128840903Y-165529236D01*
X127744551Y-145078252D02*
X127744551Y-145280276D01*
X129390931Y-162079264D02*
X129390931Y-162279264D01*
X129690928Y-150079264D02*
X129690928Y-150279264D01*
X127993511Y-129529236D02*
X128242472Y-129529236D01*
X129690928Y-142079264D02*
X129690928Y-142279264D01*
X127993511Y-161529236D02*
X128242472Y-161529236D01*
X128242472Y-141529236D02*
X129140900Y-141529236D01*
X128242472Y-157529236D02*
X128840903Y-157529236D01*
X128542528Y-170279264D02*
X128545000Y-171692000D01*
X127993511Y-167529236D02*
X128242472Y-167529236D01*
D48*
X128580000Y-174382499D02*
X128520000Y-174322499D01*
D45*
X127744551Y-155078252D02*
X127744551Y-155280276D01*
X129390931Y-156079264D02*
X129390931Y-156279264D01*
X129390952Y-168079264D02*
X129390952Y-168279264D01*
X128542528Y-140829292D02*
X127993511Y-140829292D01*
X129390931Y-152079264D02*
X129390931Y-152279264D01*
D48*
X128580000Y-175977501D02*
X128580000Y-175565000D01*
D45*
X128840903Y-158829292D02*
X128542528Y-158829292D01*
X129140900Y-134829292D02*
X128542528Y-134829292D01*
X129140900Y-150829292D02*
X128542528Y-150829292D01*
X129140900Y-142829292D02*
X128542528Y-142829292D01*
D48*
X128520000Y-174322499D02*
X128520000Y-173540000D01*
D45*
X128542528Y-142829292D02*
X127993511Y-142829292D01*
X128542528Y-160829292D02*
X127993511Y-160829292D01*
X127744551Y-127078252D02*
X127744551Y-127280276D01*
X129690948Y-148079264D02*
X129690948Y-148279264D01*
X128542528Y-168829292D02*
X127993622Y-168829292D01*
D48*
X128520000Y-176037501D02*
X128580000Y-175977501D01*
D45*
X128542528Y-134829292D02*
X127993511Y-134829292D01*
X127993511Y-155529236D02*
X128242472Y-155529236D01*
X128242472Y-155529236D02*
X128840903Y-155529236D01*
X128542528Y-170078142D02*
X128542528Y-170279264D01*
D48*
X131298702Y-178070000D02*
X129498702Y-178070000D01*
D45*
X129140900Y-140829292D02*
X128542528Y-140829292D01*
X129690928Y-130079264D02*
X129690928Y-130279264D01*
X128242472Y-153529236D02*
X128840903Y-153529236D01*
X128242472Y-159529236D02*
X128840924Y-159529236D01*
X128542528Y-164829292D02*
X127993511Y-164829292D01*
X127744551Y-163078252D02*
X127744551Y-163280276D01*
X127993511Y-153529236D02*
X128242472Y-153529236D01*
X127993511Y-157529236D02*
X128242472Y-157529236D01*
X128542528Y-150829292D02*
X127993511Y-150829292D01*
X128548428Y-125275836D02*
X128545000Y-125279264D01*
X129390931Y-154079264D02*
X129390931Y-154279264D01*
X129690928Y-126079264D02*
X129690928Y-126279264D01*
D48*
X128520000Y-173540000D02*
X128520000Y-173822510D01*
D45*
X129140920Y-144829292D02*
X128542528Y-144829292D01*
X127993511Y-143529236D02*
X128242472Y-143529236D01*
X129140920Y-148829292D02*
X128542528Y-148829292D01*
X127744551Y-157078252D02*
X127744551Y-157280276D01*
X128542528Y-158829292D02*
X127993511Y-158829292D01*
X127744551Y-147078252D02*
X127744551Y-147280276D01*
X129390931Y-166079264D02*
X129390931Y-166279264D01*
X128242472Y-147529236D02*
X129140920Y-147529236D01*
X128242472Y-137529236D02*
X129140900Y-137529236D01*
X128542528Y-144829292D02*
X127993511Y-144829292D01*
X128840903Y-156829292D02*
X128542528Y-156829292D01*
X127993511Y-127529236D02*
X128242472Y-127529236D01*
X128542528Y-154829292D02*
X127993511Y-154829292D01*
X127744551Y-167078252D02*
X127744551Y-167280276D01*
X128242472Y-167529236D02*
X128840924Y-167529236D01*
X127993511Y-133529236D02*
X128242472Y-133529236D01*
X127993511Y-151529236D02*
X128242472Y-151529236D01*
X128840903Y-152829292D02*
X128542528Y-152829292D01*
X127744551Y-159078252D02*
X127744551Y-159280276D01*
X127744551Y-129078252D02*
X127744551Y-129280276D01*
X128242472Y-131529236D02*
X129140900Y-131529236D01*
X127993511Y-141529236D02*
X128242472Y-141529236D01*
X128542528Y-166829292D02*
X127993511Y-166829292D01*
X128242472Y-127529236D02*
X129140900Y-127529236D01*
X127744551Y-151078252D02*
X127744551Y-151280276D01*
X128242472Y-139529236D02*
X129140900Y-139529236D01*
X127993511Y-145529236D02*
X128242472Y-145529236D01*
X128840924Y-160829292D02*
X128542528Y-160829292D01*
X129690928Y-134279264D02*
G75*
G02*
X129140900Y-134829328I-550028J-36D01*
G01*
X127993511Y-132829292D02*
G75*
G03*
X127744492Y-133078252I-11J-249008D01*
G01*
X127993511Y-154829292D02*
G75*
G03*
X127744492Y-155078252I-11J-249008D01*
G01*
X129140900Y-127529236D02*
G75*
G02*
X129690964Y-128079264I0J-550064D01*
G01*
X127993622Y-169529236D02*
G75*
G02*
X128542464Y-170078142I-22J-548864D01*
G01*
X128840924Y-163529236D02*
G75*
G02*
X129390964Y-164079264I-24J-550064D01*
G01*
X127993511Y-146829292D02*
G75*
G03*
X127744492Y-147078252I-11J-249008D01*
G01*
X127993511Y-144829292D02*
G75*
G03*
X127744492Y-145078252I-11J-249008D01*
G01*
X129390931Y-156279264D02*
G75*
G02*
X128840903Y-156829331I-550031J-36D01*
G01*
X128542528Y-125279264D02*
G75*
G03*
X128792500Y-125529272I249972J-36D01*
G01*
X129390931Y-162279264D02*
G75*
G02*
X128840903Y-162829331I-550031J-36D01*
G01*
X129390952Y-160279264D02*
G75*
G02*
X128840924Y-160829352I-550052J-36D01*
G01*
X127744551Y-135280276D02*
G75*
G03*
X127993511Y-135529249I248949J-24D01*
G01*
X127993511Y-138829292D02*
G75*
G03*
X127744492Y-139078252I-11J-249008D01*
G01*
X127993511Y-166829292D02*
G75*
G03*
X127744492Y-167078252I-11J-249008D01*
G01*
X129140900Y-125529236D02*
G75*
G02*
X129690964Y-126079264I0J-550064D01*
G01*
X129140900Y-139529236D02*
G75*
G02*
X129690964Y-140079264I0J-550064D01*
G01*
X129690928Y-132279264D02*
G75*
G02*
X129140900Y-132829328I-550028J-36D01*
G01*
X128840924Y-167529236D02*
G75*
G02*
X129390964Y-168079264I-24J-550064D01*
G01*
X127744551Y-143280276D02*
G75*
G03*
X127993511Y-143529249I248949J-24D01*
G01*
X129690928Y-138279264D02*
G75*
G02*
X129140900Y-138829328I-550028J-36D01*
G01*
X127744551Y-137280276D02*
G75*
G03*
X127993511Y-137529249I248949J-24D01*
G01*
X127993511Y-140829292D02*
G75*
G03*
X127744492Y-141078252I-11J-249008D01*
G01*
X129140900Y-131529236D02*
G75*
G02*
X129690964Y-132079264I0J-550064D01*
G01*
X127993511Y-126829292D02*
G75*
G03*
X127744492Y-127078252I-11J-249008D01*
G01*
X129140900Y-149529236D02*
G75*
G02*
X129690964Y-150079264I0J-550064D01*
G01*
X127993622Y-168829292D02*
G75*
G03*
X127744792Y-169078142I-22J-248808D01*
G01*
X129690928Y-136279264D02*
G75*
G02*
X129140900Y-136829328I-550028J-36D01*
G01*
X127744551Y-145280276D02*
G75*
G03*
X127993511Y-145529249I248949J-24D01*
G01*
X127993511Y-142829292D02*
G75*
G03*
X127744492Y-143078252I-11J-249008D01*
G01*
X129140920Y-143529236D02*
G75*
G02*
X129690964Y-144079264I-20J-550064D01*
G01*
X127993511Y-160829292D02*
G75*
G03*
X127744492Y-161078252I-11J-249008D01*
G01*
X127744551Y-129280276D02*
G75*
G03*
X127993511Y-129529249I248949J-24D01*
G01*
X127744551Y-157280276D02*
G75*
G03*
X127993511Y-157529249I248949J-24D01*
G01*
X127744551Y-151280276D02*
G75*
G03*
X127993511Y-151529249I248949J-24D01*
G01*
X128840903Y-161529236D02*
G75*
G02*
X129390964Y-162079264I-3J-550064D01*
G01*
X129690928Y-128279264D02*
G75*
G02*
X129140900Y-128829328I-550028J-36D01*
G01*
X127744551Y-165280276D02*
G75*
G03*
X127993511Y-165529249I248949J-24D01*
G01*
X129140900Y-129529236D02*
G75*
G02*
X129690964Y-130079264I0J-550064D01*
G01*
X127993511Y-148829292D02*
G75*
G03*
X127744492Y-149078252I-11J-249008D01*
G01*
X129390931Y-152279264D02*
G75*
G02*
X128840903Y-152829331I-550031J-36D01*
G01*
X127744551Y-147280276D02*
G75*
G03*
X127993511Y-147529249I248949J-24D01*
G01*
X129390931Y-154279264D02*
G75*
G02*
X128840903Y-154829331I-550031J-36D01*
G01*
X128840903Y-157529236D02*
G75*
G02*
X129390964Y-158079264I-3J-550064D01*
G01*
X127744551Y-167280276D02*
G75*
G03*
X127993511Y-167529249I248949J-24D01*
G01*
X128840903Y-165529236D02*
G75*
G02*
X129390964Y-166079264I-3J-550064D01*
G01*
X129690928Y-146279264D02*
G75*
G02*
X129140900Y-146829328I-550028J-36D01*
G01*
X127744551Y-163280276D02*
G75*
G03*
X127993511Y-163529249I248949J-24D01*
G01*
X129690928Y-130279264D02*
G75*
G02*
X129140900Y-130829328I-550028J-36D01*
G01*
X129140900Y-145529236D02*
G75*
G02*
X129690964Y-146079264I0J-550064D01*
G01*
X128840903Y-153529236D02*
G75*
G02*
X129390964Y-154079264I-3J-550064D01*
G01*
X129690928Y-142279264D02*
G75*
G02*
X129140900Y-142829328I-550028J-36D01*
G01*
X127744551Y-149280276D02*
G75*
G03*
X127993511Y-149529249I248949J-24D01*
G01*
X127744551Y-153280276D02*
G75*
G03*
X127993511Y-153529249I248949J-24D01*
G01*
X129690928Y-140279264D02*
G75*
G02*
X129140900Y-140829328I-550028J-36D01*
G01*
X127993511Y-152829292D02*
G75*
G03*
X127744492Y-153078252I-11J-249008D01*
G01*
X128840903Y-155529236D02*
G75*
G02*
X129390964Y-156079264I-3J-550064D01*
G01*
X129140900Y-141529236D02*
G75*
G02*
X129690964Y-142079264I0J-550064D01*
G01*
X127993511Y-162829292D02*
G75*
G03*
X127744492Y-163078252I-11J-249008D01*
G01*
X127993511Y-156829292D02*
G75*
G03*
X127744492Y-157078252I-11J-249008D01*
G01*
X127744551Y-161280276D02*
G75*
G03*
X127993511Y-161529249I248949J-24D01*
G01*
X129140900Y-133529236D02*
G75*
G02*
X129690964Y-134079264I0J-550064D01*
G01*
X127744551Y-155280276D02*
G75*
G03*
X127993511Y-155529249I248949J-24D01*
G01*
X127744551Y-139280276D02*
G75*
G03*
X127993511Y-139529249I248949J-24D01*
G01*
X129690948Y-144279264D02*
G75*
G02*
X129140920Y-144829348I-550048J-36D01*
G01*
X127993511Y-136829292D02*
G75*
G03*
X127744492Y-137078252I-11J-249008D01*
G01*
X127993511Y-130829292D02*
G75*
G03*
X127744492Y-131078252I-11J-249008D01*
G01*
X127744551Y-127280276D02*
G75*
G03*
X127993511Y-127529249I248949J-24D01*
G01*
X129140900Y-137529236D02*
G75*
G02*
X129690964Y-138079264I0J-550064D01*
G01*
X129140920Y-147529236D02*
G75*
G02*
X129690964Y-148079264I-20J-550064D01*
G01*
X128840903Y-151529236D02*
G75*
G02*
X129390964Y-152079264I-3J-550064D01*
G01*
X127744551Y-141280276D02*
G75*
G03*
X127993511Y-141529249I248949J-24D01*
G01*
X129390931Y-166279264D02*
G75*
G02*
X128840903Y-166829331I-550031J-36D01*
G01*
X127993511Y-150829292D02*
G75*
G03*
X127744492Y-151078252I-11J-249008D01*
G01*
X129690928Y-150279264D02*
G75*
G02*
X129140900Y-150829328I-550028J-36D01*
G01*
X127744551Y-159280276D02*
G75*
G03*
X127993511Y-159529249I248949J-24D01*
G01*
X129390931Y-158279264D02*
G75*
G02*
X128840903Y-158829331I-550031J-36D01*
G01*
X127744772Y-169280386D02*
G75*
G03*
X127993622Y-169529228I248828J-14D01*
G01*
X127744551Y-133280276D02*
G75*
G03*
X127993511Y-133529249I248949J-24D01*
G01*
X127993511Y-158829292D02*
G75*
G03*
X127744492Y-159078252I-11J-249008D01*
G01*
X127993511Y-128829292D02*
G75*
G03*
X127744492Y-129078252I-11J-249008D01*
G01*
X127744551Y-131280276D02*
G75*
G03*
X127993511Y-131529249I248949J-24D01*
G01*
X129390952Y-168279264D02*
G75*
G02*
X128840924Y-168829352I-550052J-36D01*
G01*
X129390952Y-164279264D02*
G75*
G02*
X128840924Y-164829352I-550052J-36D01*
G01*
X129690928Y-126279264D02*
G75*
G02*
X129140900Y-126829328I-550028J-36D01*
G01*
X127993511Y-164829292D02*
G75*
G03*
X127744492Y-165078252I-11J-249008D01*
G01*
X128840924Y-159529236D02*
G75*
G02*
X129390964Y-160079264I-24J-550064D01*
G01*
X129690948Y-148279264D02*
G75*
G02*
X129140920Y-148829348I-550048J-36D01*
G01*
X127993511Y-134829292D02*
G75*
G03*
X127744492Y-135078252I-11J-249008D01*
G01*
X129140900Y-135529236D02*
G75*
G02*
X129690964Y-136079264I0J-550064D01*
G01*
X136489233Y-135901777D02*
X136015000Y-135901777D01*
X137115265Y-129101777D02*
X137115265Y-129301777D01*
X136519412Y-127901777D02*
X136215000Y-127901777D01*
X135615000Y-138501777D02*
X136362948Y-138501777D01*
X137101854Y-133101777D02*
X137101854Y-133301777D01*
X136015000Y-140301777D02*
X136015000Y-141748296D01*
X135615000Y-136501777D02*
X136463955Y-136501777D01*
X136509750Y-131901777D02*
X136015000Y-131901777D01*
X136215000Y-122501777D02*
X136522453Y-122501777D01*
X137109750Y-131101777D02*
X137109750Y-131301777D01*
X136501854Y-133901777D02*
X136015000Y-133901777D01*
X136215000Y-126501777D02*
X136519412Y-126501777D01*
X136015000Y-137901777D02*
X135515000Y-137901777D01*
X137089233Y-135101777D02*
X137089233Y-135301777D01*
X136015000Y-129901777D02*
X135515000Y-129901777D01*
X135415000Y-138001777D02*
X135415000Y-138401777D01*
X134227844Y-120085000D02*
X134877844Y-120085000D01*
X137119412Y-125101777D02*
X137119412Y-125301777D01*
X136962948Y-139101777D02*
X136962948Y-139301777D01*
X134877844Y-120085000D02*
X136015000Y-121222156D01*
X136215000Y-123901777D02*
X135515000Y-123901777D01*
X135515000Y-138501777D02*
X135615000Y-138501777D01*
X135615000Y-130501777D02*
X136509750Y-130501777D01*
X137505000Y-150433600D02*
X137337800Y-150266400D01*
X135615000Y-124501777D02*
X136519412Y-124501777D01*
X135515000Y-132501777D02*
X135615000Y-132501777D01*
X131825000Y-118376598D02*
X132519442Y-118376598D01*
X132519442Y-118376598D02*
X134227844Y-120085000D01*
X136015000Y-126101777D02*
X136015000Y-126301777D01*
X136015000Y-131901777D02*
X135515000Y-131901777D01*
X136015000Y-140101777D02*
X136015000Y-140301777D01*
X136515265Y-129901777D02*
X136015000Y-129901777D01*
X136215000Y-127901777D02*
X135515000Y-127901777D01*
X137063955Y-137101777D02*
X137063955Y-137301777D01*
X135515000Y-136501777D02*
X135615000Y-136501777D01*
X137119412Y-127101777D02*
X137119412Y-127301777D01*
X137122453Y-123101777D02*
X137122453Y-123301777D01*
X136463955Y-137901777D02*
X136015000Y-137901777D01*
X136015000Y-135901777D02*
X135515000Y-135901777D01*
X135515000Y-130501777D02*
X135615000Y-130501777D01*
X135415000Y-128001777D02*
X135415000Y-128401777D01*
X135415000Y-130001777D02*
X135415000Y-130401777D01*
X135515000Y-124501777D02*
X135615000Y-124501777D01*
X135515000Y-128501777D02*
X135615000Y-128501777D01*
X137505000Y-151160000D02*
X137505000Y-150433600D01*
X136015000Y-149985000D02*
X136296400Y-150266400D01*
X136519412Y-125901777D02*
X136215000Y-125901777D01*
X135615000Y-132501777D02*
X136501854Y-132501777D01*
X135615000Y-128501777D02*
X136515265Y-128501777D01*
X135615000Y-134501777D02*
X136489233Y-134501777D01*
X136015000Y-141748296D02*
X136015000Y-149985000D01*
X137337800Y-150266400D02*
X137058400Y-150266400D01*
X136522453Y-123901777D02*
X136215000Y-123901777D01*
X135415000Y-132001777D02*
X135415000Y-132401777D01*
X135515000Y-134501777D02*
X135615000Y-134501777D01*
X135415000Y-136001777D02*
X135415000Y-136401777D01*
X135415000Y-124001777D02*
X135415000Y-124401777D01*
X136296400Y-150266400D02*
X137058400Y-150266400D01*
X136362948Y-139901777D02*
X136215000Y-139901777D01*
X136015000Y-121222156D02*
X136015000Y-122301777D01*
X136015000Y-133901777D02*
X135515000Y-133901777D01*
X135415000Y-134001777D02*
X135415000Y-134401777D01*
X135415000Y-134401777D02*
G75*
G03*
X135515000Y-134501800I100000J-23D01*
G01*
X136015000Y-122301777D02*
G75*
G03*
X136215000Y-122501800I200000J-23D01*
G01*
X135515000Y-137901777D02*
G75*
G03*
X135414977Y-138001777I0J-100023D01*
G01*
X135415000Y-128401777D02*
G75*
G03*
X135515000Y-128501800I100000J-23D01*
G01*
X135415000Y-132401777D02*
G75*
G03*
X135515000Y-132501800I100000J-23D01*
G01*
X135515000Y-131901777D02*
G75*
G03*
X135414977Y-132001777I0J-100023D01*
G01*
X137122453Y-123301777D02*
G75*
G02*
X136522453Y-123901753I-599953J-23D01*
G01*
X136509750Y-130501777D02*
G75*
G02*
X137109723Y-131101777I-50J-600023D01*
G01*
X136962948Y-139301777D02*
G75*
G02*
X136362948Y-139901848I-600048J-23D01*
G01*
X137089233Y-135301777D02*
G75*
G02*
X136489233Y-135901833I-600033J-23D01*
G01*
X137119412Y-127301777D02*
G75*
G02*
X136519412Y-127901812I-600012J-23D01*
G01*
X136522453Y-122501777D02*
G75*
G02*
X137122523Y-123101777I47J-600023D01*
G01*
X136015000Y-126301777D02*
G75*
G03*
X136215000Y-126501800I200000J-23D01*
G01*
X135515000Y-129901777D02*
G75*
G03*
X135414977Y-130001777I0J-100023D01*
G01*
X137119412Y-125301777D02*
G75*
G02*
X136519412Y-125901812I-600012J-23D01*
G01*
X135415000Y-124401777D02*
G75*
G03*
X135515000Y-124501800I100000J-23D01*
G01*
X135515000Y-133901777D02*
G75*
G03*
X135414977Y-134001777I0J-100023D01*
G01*
X135515000Y-127901777D02*
G75*
G03*
X135414977Y-128001777I0J-100023D01*
G01*
X135415000Y-138401777D02*
G75*
G03*
X135515000Y-138501800I100000J-23D01*
G01*
X137063955Y-137301777D02*
G75*
G02*
X136463955Y-137901755I-599955J-23D01*
G01*
X136515265Y-128501777D02*
G75*
G02*
X137115323Y-129101777I35J-600023D01*
G01*
X136463955Y-136501777D02*
G75*
G02*
X137064023Y-137101777I45J-600023D01*
G01*
X136215000Y-139901777D02*
G75*
G03*
X136014977Y-140101777I0J-200023D01*
G01*
X136519412Y-126501777D02*
G75*
G02*
X137119423Y-127101777I-12J-600023D01*
G01*
X136501854Y-132501777D02*
G75*
G02*
X137101923Y-133101777I46J-600023D01*
G01*
X136215000Y-125901777D02*
G75*
G03*
X136014977Y-126101777I0J-200023D01*
G01*
X135415000Y-130401777D02*
G75*
G03*
X135515000Y-130501800I100000J-23D01*
G01*
X136519412Y-124501777D02*
G75*
G02*
X137119423Y-125101777I-12J-600023D01*
G01*
X135515000Y-123901777D02*
G75*
G03*
X135414977Y-124001777I0J-100023D01*
G01*
X137101854Y-133301777D02*
G75*
G02*
X136501854Y-133901754I-599954J-23D01*
G01*
X135415000Y-136401777D02*
G75*
G03*
X135515000Y-136501800I100000J-23D01*
G01*
X137115265Y-129301777D02*
G75*
G02*
X136515265Y-129901765I-599965J-23D01*
G01*
X136362948Y-138501777D02*
G75*
G02*
X136962923Y-139101777I-48J-600023D01*
G01*
X137109750Y-131301777D02*
G75*
G02*
X136509750Y-131901850I-600050J-23D01*
G01*
X135515000Y-135901777D02*
G75*
G03*
X135414977Y-136001777I0J-100023D01*
G01*
X136489233Y-134501777D02*
G75*
G02*
X137089223Y-135101777I-33J-600023D01*
G01*
X135615000Y-126101777D02*
X135615000Y-126301777D01*
X131205000Y-118376598D02*
X131728402Y-118900000D01*
X135615000Y-134901777D02*
X136489233Y-134901777D01*
X135615000Y-150287400D02*
X135610600Y-150291800D01*
X136522453Y-123501777D02*
X136215000Y-123501777D01*
X136215000Y-123501777D02*
X135515000Y-123501777D01*
X136362948Y-139501777D02*
X136215000Y-139501777D01*
X135515000Y-124901777D02*
X135615000Y-124901777D01*
X131728402Y-118900000D02*
X132477156Y-118900000D01*
X134062156Y-120485000D02*
X134712156Y-120485000D01*
X135515000Y-130901777D02*
X135615000Y-130901777D01*
X136709750Y-131101777D02*
X136709750Y-131301777D01*
X135515000Y-136901777D02*
X135615000Y-136901777D01*
X136562948Y-139101777D02*
X136562948Y-139301777D01*
X135015000Y-130001777D02*
X135015000Y-130401777D01*
X136215000Y-122901777D02*
X136522453Y-122901777D01*
X132477156Y-118900000D02*
X134062156Y-120485000D01*
X134712156Y-120485000D02*
X135615000Y-121387844D01*
X136215000Y-127501777D02*
X135515000Y-127501777D01*
X135955000Y-151160000D02*
X135955000Y-150559952D01*
X135612195Y-150293395D02*
X135612195Y-150217147D01*
X136015000Y-137501777D02*
X135515000Y-137501777D01*
X136719412Y-127101777D02*
X136719412Y-127301777D01*
X136701854Y-133101777D02*
X136701854Y-133301777D01*
X135615000Y-128901777D02*
X136515265Y-128901777D01*
X136215000Y-126901777D02*
X136519412Y-126901777D01*
X136015000Y-133501777D02*
X135515000Y-133501777D01*
X136519412Y-127501777D02*
X136215000Y-127501777D01*
X136015000Y-131501777D02*
X135515000Y-131501777D01*
X136509750Y-131501777D02*
X136015000Y-131501777D01*
X136015000Y-135501777D02*
X135515000Y-135501777D01*
X135015000Y-124001777D02*
X135015000Y-124401777D01*
X136689233Y-135101777D02*
X136689233Y-135301777D01*
X136501854Y-133501777D02*
X136015000Y-133501777D01*
X136663955Y-137101777D02*
X136663955Y-137301777D01*
X135015000Y-128001777D02*
X135015000Y-128401777D01*
X135615000Y-136901777D02*
X136463955Y-136901777D01*
X136015000Y-129501777D02*
X135515000Y-129501777D01*
X135515000Y-134901777D02*
X135615000Y-134901777D01*
X136722453Y-123101777D02*
X136722453Y-123301777D01*
X135515000Y-138901777D02*
X135615000Y-138901777D01*
X135615000Y-140301777D02*
X135615000Y-141748296D01*
X135515000Y-128901777D02*
X135615000Y-128901777D01*
X136463955Y-137501777D02*
X136015000Y-137501777D01*
X135015000Y-136001777D02*
X135015000Y-136401777D01*
X135615000Y-130901777D02*
X136509750Y-130901777D01*
X136515265Y-129501777D02*
X136015000Y-129501777D01*
X136489233Y-135501777D02*
X136015000Y-135501777D01*
X136519412Y-125501777D02*
X136215000Y-125501777D01*
X135015000Y-134001777D02*
X135015000Y-134401777D01*
X135015000Y-132001777D02*
X135015000Y-132401777D01*
X135015000Y-138001777D02*
X135015000Y-138401777D01*
X135615000Y-140101777D02*
X135615000Y-140301777D01*
X135615000Y-124901777D02*
X136519412Y-124901777D01*
X135610600Y-150291800D02*
X135612195Y-150293395D01*
X135515000Y-132901777D02*
X135615000Y-132901777D01*
X135615000Y-141748296D02*
X135615000Y-150287400D01*
X135615000Y-132901777D02*
X136501854Y-132901777D01*
X136719412Y-125101777D02*
X136719412Y-125301777D01*
X135615000Y-138901777D02*
X136362948Y-138901777D01*
X135615000Y-121387844D02*
X135615000Y-122301777D01*
X135955000Y-150559952D02*
X135612195Y-150217147D01*
X136715265Y-129101777D02*
X136715265Y-129301777D01*
X136463955Y-136901777D02*
G75*
G02*
X136664023Y-137101777I45J-200023D01*
G01*
X135015000Y-128401777D02*
G75*
G03*
X135515000Y-128901800I500000J-23D01*
G01*
X136719412Y-125301777D02*
G75*
G02*
X136519412Y-125501812I-200012J-23D01*
G01*
X135515000Y-135501777D02*
G75*
G03*
X135014977Y-136001777I0J-500023D01*
G01*
X136519412Y-126901777D02*
G75*
G02*
X136719423Y-127101777I-12J-200023D01*
G01*
X136509750Y-130901777D02*
G75*
G02*
X136709723Y-131101777I-50J-200023D01*
G01*
X136501854Y-132901777D02*
G75*
G02*
X136701923Y-133101777I46J-200023D01*
G01*
X136709750Y-131301777D02*
G75*
G02*
X136509750Y-131501850I-200050J-23D01*
G01*
X135515000Y-127501777D02*
G75*
G03*
X135014977Y-128001777I0J-500023D01*
G01*
X136362948Y-138901777D02*
G75*
G02*
X136562923Y-139101777I-48J-200023D01*
G01*
X135015000Y-134401777D02*
G75*
G03*
X135515000Y-134901800I500000J-23D01*
G01*
X135515000Y-129501777D02*
G75*
G03*
X135014977Y-130001777I0J-500023D01*
G01*
X136719412Y-127301777D02*
G75*
G02*
X136519412Y-127501812I-200012J-23D01*
G01*
X135015000Y-124401777D02*
G75*
G03*
X135515000Y-124901800I500000J-23D01*
G01*
X135515000Y-137501777D02*
G75*
G03*
X135014977Y-138001777I0J-500023D01*
G01*
X136489233Y-134901777D02*
G75*
G02*
X136689223Y-135101777I-33J-200023D01*
G01*
X136519412Y-124901777D02*
G75*
G02*
X136719423Y-125101777I-12J-200023D01*
G01*
X135615000Y-126301777D02*
G75*
G03*
X136215000Y-126901800I600000J-23D01*
G01*
X136663955Y-137301777D02*
G75*
G02*
X136463955Y-137501755I-199955J-23D01*
G01*
X135015000Y-130401777D02*
G75*
G03*
X135515000Y-130901800I500000J-23D01*
G01*
X135015000Y-136401777D02*
G75*
G03*
X135515000Y-136901800I500000J-23D01*
G01*
X136722453Y-123301777D02*
G75*
G02*
X136522453Y-123501753I-199953J-23D01*
G01*
X136522453Y-122901777D02*
G75*
G02*
X136722523Y-123101777I47J-200023D01*
G01*
X135515000Y-123501777D02*
G75*
G03*
X135014977Y-124001777I0J-500023D01*
G01*
X135615000Y-122301777D02*
G75*
G03*
X136215000Y-122901800I600000J-23D01*
G01*
X136215000Y-125501777D02*
G75*
G03*
X135614977Y-126101777I0J-600023D01*
G01*
X136515265Y-128901777D02*
G75*
G02*
X136715323Y-129101777I35J-200023D01*
G01*
X135515000Y-133501777D02*
G75*
G03*
X135014977Y-134001777I0J-500023D01*
G01*
X135015000Y-138401777D02*
G75*
G03*
X135515000Y-138901800I500000J-23D01*
G01*
X136701854Y-133301777D02*
G75*
G02*
X136501854Y-133501754I-199954J-23D01*
G01*
X135015000Y-132401777D02*
G75*
G03*
X135515000Y-132901800I500000J-23D01*
G01*
X136715265Y-129301777D02*
G75*
G02*
X136515265Y-129501765I-199965J-23D01*
G01*
X136562948Y-139301777D02*
G75*
G02*
X136362948Y-139501848I-200048J-23D01*
G01*
X135515000Y-131501777D02*
G75*
G03*
X135014977Y-132001777I0J-500023D01*
G01*
X136689233Y-135301777D02*
G75*
G02*
X136489233Y-135501833I-200033J-23D01*
G01*
X136215000Y-139501777D02*
G75*
G03*
X135614977Y-140101777I0J-600023D01*
G01*
D48*
X140077801Y-142456444D02*
X140077801Y-142256444D01*
X141953205Y-143456444D02*
X141953205Y-143256444D01*
X141015500Y-139100592D02*
X141015500Y-105979500D01*
X142700532Y-150253589D02*
X142697200Y-150250257D01*
X143305000Y-151160000D02*
X143305000Y-150493200D01*
X140467750Y-144004194D02*
X141405455Y-144004194D01*
X141015500Y-146466798D02*
X141015500Y-145256444D01*
X140330051Y-142004194D02*
X140467750Y-142004194D01*
X140330045Y-144004194D02*
X140467750Y-144004194D01*
X141015500Y-142708694D02*
X140330051Y-142708694D01*
X140077795Y-144456444D02*
X140077795Y-144256444D01*
X143305000Y-150493200D02*
X143052800Y-150241000D01*
X140467750Y-144708694D02*
X140330045Y-144708694D01*
X141015500Y-141256444D02*
X141015500Y-139100592D01*
X141015500Y-141456444D02*
X141015500Y-141256444D01*
X141405455Y-142708694D02*
X141015500Y-142708694D01*
X141015500Y-105979500D02*
X141270000Y-105725000D01*
X142697200Y-150250257D02*
X142697200Y-148148498D01*
X143052800Y-150241000D02*
X142713121Y-150241000D01*
X142713121Y-150241000D02*
X142700532Y-150253589D01*
X142697200Y-148148498D02*
X141015500Y-146466798D01*
X140077795Y-144256444D02*
G75*
G02*
X140330045Y-144004195I252205J44D01*
G01*
X140077801Y-142256444D02*
G75*
G02*
X140330051Y-142004201I252199J44D01*
G01*
X140467750Y-142004194D02*
G75*
G03*
X141015594Y-141456444I50J547794D01*
G01*
X141953205Y-143256444D02*
G75*
G03*
X141405455Y-142708695I-547705J44D01*
G01*
X141405455Y-144004194D02*
G75*
G03*
X141953294Y-143456444I45J547794D01*
G01*
X140330045Y-144708694D02*
G75*
G02*
X140077706Y-144456444I-45J252294D01*
G01*
X141015500Y-145256444D02*
G75*
G03*
X140467750Y-144708700I-547700J44D01*
G01*
X140330051Y-142708694D02*
G75*
G02*
X140077706Y-142456444I-51J252294D01*
G01*
X140720000Y-141456444D02*
X140720000Y-141256444D01*
X140330051Y-141708694D02*
X140467750Y-141708694D01*
X141775000Y-150375800D02*
X142265400Y-149885400D01*
X141775000Y-151160000D02*
X141775000Y-150375800D01*
X140720000Y-146520000D02*
X140720000Y-145256444D01*
X140720000Y-139100592D02*
X140787500Y-139033092D01*
X139782295Y-144456444D02*
X139782295Y-144256444D01*
X140787500Y-139033092D02*
X140787500Y-105912500D01*
X140330045Y-143708694D02*
X140467750Y-143708694D01*
X140720000Y-141256444D02*
X140720000Y-139100592D01*
X141405455Y-143004194D02*
X141015500Y-143004194D01*
X140467750Y-145004194D02*
X140330045Y-145004194D01*
X141657705Y-143456444D02*
X141657705Y-143256444D01*
X142265400Y-149885400D02*
X142400000Y-149750800D01*
X142400000Y-148200000D02*
X140720000Y-146520000D01*
X139782301Y-142456444D02*
X139782301Y-142256444D01*
X140787500Y-105912500D02*
X140600000Y-105725000D01*
X140467750Y-143708694D02*
X141405455Y-143708694D01*
X141015500Y-143004194D02*
X140330051Y-143004194D01*
X142400000Y-149750800D02*
X142400000Y-148200000D01*
X141405455Y-143708694D02*
G75*
G03*
X141657794Y-143456444I45J252294D01*
G01*
X139782301Y-142256444D02*
G75*
G02*
X140330051Y-141708601I547799J44D01*
G01*
X141657705Y-143256444D02*
G75*
G03*
X141405455Y-143004195I-252205J44D01*
G01*
X140330045Y-145004194D02*
G75*
G02*
X139782206Y-144456444I-45J547794D01*
G01*
X140330051Y-143004194D02*
G75*
G02*
X139782306Y-142456444I49J547794D01*
G01*
X139782295Y-144256444D02*
G75*
G02*
X140330045Y-143708695I547705J44D01*
G01*
X140720000Y-145256444D02*
G75*
G03*
X140467750Y-145004200I-252200J44D01*
G01*
X140467750Y-141708694D02*
G75*
G03*
X140720094Y-141456444I50J252294D01*
G01*
D47*
X116420391Y-186033543D02*
X116175117Y-186033543D01*
X110125000Y-186435000D02*
X110125000Y-190125000D01*
X118548000Y-187500000D02*
X117886848Y-187500000D01*
X115041574Y-184900000D02*
X111660000Y-184900000D01*
X111660000Y-184900000D02*
X110125000Y-186435000D01*
X116175117Y-186033543D02*
X115041574Y-184900000D01*
X117886848Y-187500000D02*
X116420391Y-186033543D01*
D45*
X148399999Y-154135001D02*
X148399999Y-167969998D01*
D47*
X114125000Y-190625000D02*
X114125000Y-186768000D01*
X114125000Y-186768000D02*
X115218180Y-185674820D01*
D45*
X154630000Y-147905000D02*
X148399999Y-154135001D01*
D47*
X148400000Y-167969999D02*
X148399999Y-167969998D01*
X148400000Y-167970000D02*
X148400000Y-167969999D01*
X115125000Y-190625000D02*
X115125000Y-186640798D01*
D45*
X154630000Y-150445000D02*
X149770000Y-155305000D01*
D47*
X115125000Y-186640798D02*
X115654579Y-186111219D01*
D45*
X149770000Y-155305000D02*
X149770000Y-167980000D01*
X150540000Y-156460000D02*
X150540000Y-168190000D01*
D47*
X116125000Y-188838119D02*
X116733500Y-188229619D01*
X116125000Y-190625000D02*
X116125000Y-188838119D01*
D45*
X154630000Y-152985000D02*
X154015000Y-152985000D01*
X150540000Y-168190000D02*
X150510000Y-168220000D01*
D47*
X116733500Y-188229619D02*
X116733500Y-186944866D01*
X116733500Y-186944866D02*
X116649317Y-186860683D01*
D45*
X154015000Y-152985000D02*
X150540000Y-156460000D01*
X154630000Y-155525000D02*
X154025000Y-155525000D01*
X151130000Y-168080000D02*
X151310000Y-167900000D01*
X151130000Y-168480000D02*
X151130000Y-168080000D01*
X154025000Y-155525000D02*
X151310000Y-158240000D01*
D47*
X117125000Y-190625000D02*
X117125000Y-187405000D01*
X117125000Y-187405000D02*
X117159317Y-187370683D01*
D45*
X151310000Y-158240000D02*
X151310000Y-167900000D01*
D48*
X106905000Y-107685999D02*
X126410999Y-88180000D01*
X119710000Y-186410000D02*
X120370000Y-187070000D01*
X120370000Y-187960000D02*
X120125000Y-188205000D01*
X116406041Y-185476041D02*
X115020000Y-184090000D01*
X118650959Y-186210959D02*
X118650959Y-185725000D01*
X118650959Y-185725000D02*
X118402000Y-185476041D01*
X118402000Y-185476041D02*
X116406041Y-185476041D01*
X115020000Y-184090000D02*
X115020000Y-175290000D01*
X115020000Y-175290000D02*
X115560000Y-174750000D01*
X120370000Y-187070000D02*
X120370000Y-187960000D01*
X106905000Y-137805000D02*
X106905000Y-107685999D01*
X118850000Y-186410000D02*
X119710000Y-186410000D01*
X115560000Y-174750000D02*
X115560000Y-146460000D01*
X118850000Y-186410000D02*
X118650959Y-186210959D01*
X115560000Y-146460000D02*
X106905000Y-137805000D01*
X120125000Y-188205000D02*
X120125000Y-190625000D01*
D45*
X128809888Y-90299895D02*
X129400000Y-90299895D01*
X129800000Y-90899895D02*
X128809888Y-90899895D01*
D48*
X125185000Y-173380000D02*
X125185000Y-172893497D01*
D45*
X130390093Y-98899895D02*
X129800000Y-98899895D01*
X128809888Y-100299895D02*
X129400000Y-100299895D01*
D48*
X124435000Y-188565000D02*
X124435000Y-188166298D01*
D45*
X129400000Y-90299895D02*
X130390112Y-90299895D01*
X128209888Y-99499895D02*
X128209888Y-99699895D01*
X130390112Y-90899895D02*
X129800000Y-90899895D01*
X130000000Y-88299895D02*
X130240111Y-88299895D01*
X129400000Y-96299895D02*
X130390112Y-96299895D01*
X125185000Y-116415000D02*
X125185000Y-173380000D01*
X129800000Y-94899895D02*
X128809907Y-94899895D01*
X131232625Y-84726548D02*
X129400000Y-86559173D01*
X130390112Y-92899895D02*
X129800000Y-92899895D01*
X129400000Y-112200000D02*
X125185000Y-116415000D01*
X128209888Y-93499895D02*
X128209888Y-93699895D01*
X128209907Y-95499895D02*
X128209907Y-95699895D01*
X128809907Y-98299895D02*
X129400000Y-98299895D01*
X129800000Y-98899895D02*
X128809888Y-98899895D01*
X130590112Y-90499895D02*
X130590112Y-90699895D01*
D48*
X125185000Y-174393702D02*
X125185000Y-173380000D01*
D45*
X129400000Y-101699895D02*
X129400000Y-103244000D01*
X129400000Y-101499895D02*
X129400000Y-101699895D01*
X130000000Y-88899895D02*
X128809888Y-88899895D01*
X130590093Y-94499895D02*
X130590093Y-94699895D01*
X130440111Y-88499895D02*
X130440111Y-88699895D01*
X128809888Y-94299895D02*
X129400000Y-94299895D01*
X129400000Y-98299895D02*
X130390093Y-98299895D01*
D48*
X125628400Y-174837102D02*
X125185000Y-174393702D01*
X124435000Y-188166298D02*
X125628400Y-186972898D01*
D45*
X130590112Y-96499895D02*
X130590112Y-96699895D01*
X130590112Y-92499895D02*
X130590112Y-92699895D01*
X129400000Y-86559173D02*
X129400000Y-87699895D01*
X129400000Y-103244000D02*
X129400000Y-112200000D01*
X129400000Y-100299895D02*
X130390093Y-100299895D01*
X128209888Y-89499895D02*
X128209888Y-89699895D01*
X128809907Y-96299895D02*
X129400000Y-96299895D01*
X128209907Y-97499895D02*
X128209907Y-97699895D01*
D48*
X125628400Y-186972898D02*
X125628400Y-174837102D01*
D45*
X128809888Y-92299895D02*
X129400000Y-92299895D01*
D48*
X124125000Y-190625000D02*
X124125000Y-188875000D01*
D45*
X129800000Y-92899895D02*
X128809888Y-92899895D01*
D48*
X124125000Y-188875000D02*
X124435000Y-188565000D01*
D45*
X128209888Y-91499895D02*
X128209888Y-91699895D01*
X130390112Y-96899895D02*
X129800000Y-96899895D01*
X130390093Y-94899895D02*
X129800000Y-94899895D01*
D48*
X125185000Y-172893497D02*
X125151503Y-172860000D01*
D45*
X129800000Y-96899895D02*
X128809907Y-96899895D01*
X130240111Y-88899895D02*
X130000000Y-88899895D01*
X129400000Y-94299895D02*
X130390093Y-94299895D01*
X130590093Y-98499895D02*
X130590093Y-98699895D01*
X130590093Y-100499895D02*
X130590093Y-100699895D01*
X129400000Y-92299895D02*
X130390112Y-92299895D01*
X130390093Y-100899895D02*
X130000000Y-100899895D01*
X130590093Y-100699895D02*
G75*
G02*
X130390093Y-100899893I-199993J-5D01*
G01*
X130390093Y-98299895D02*
G75*
G02*
X130590105Y-98499895I7J-200005D01*
G01*
X128809888Y-98899895D02*
G75*
G03*
X128209895Y-99499895I12J-600005D01*
G01*
X130390093Y-100299895D02*
G75*
G02*
X130590105Y-100499895I7J-200005D01*
G01*
X130390112Y-96299895D02*
G75*
G02*
X130590105Y-96499895I-12J-200005D01*
G01*
X128809907Y-94899895D02*
G75*
G03*
X128209895Y-95499895I-7J-600005D01*
G01*
X130590112Y-90699895D02*
G75*
G02*
X130390112Y-90899912I-200012J-5D01*
G01*
X130590093Y-94699895D02*
G75*
G02*
X130390093Y-94899893I-199993J-5D01*
G01*
X128809888Y-88899895D02*
G75*
G03*
X128209895Y-89499895I12J-600005D01*
G01*
X130390112Y-90299895D02*
G75*
G02*
X130590105Y-90499895I-12J-200005D01*
G01*
X128209888Y-93699895D02*
G75*
G03*
X128809888Y-94299912I600012J-5D01*
G01*
X129400000Y-87699895D02*
G75*
G03*
X130000000Y-88299900I600000J-5D01*
G01*
X128209888Y-91699895D02*
G75*
G03*
X128809888Y-92299912I600012J-5D01*
G01*
X130000000Y-100899895D02*
G75*
G03*
X129399995Y-101499895I0J-600005D01*
G01*
X128209888Y-89699895D02*
G75*
G03*
X128809888Y-90299912I600012J-5D01*
G01*
X128209907Y-95699895D02*
G75*
G03*
X128809907Y-96299893I599993J-5D01*
G01*
X130590093Y-98699895D02*
G75*
G02*
X130390093Y-98899893I-199993J-5D01*
G01*
X130390093Y-94299895D02*
G75*
G02*
X130590105Y-94499895I7J-200005D01*
G01*
X128809907Y-96899895D02*
G75*
G03*
X128209895Y-97499895I-7J-600005D01*
G01*
X128209907Y-97699895D02*
G75*
G03*
X128809907Y-98299893I599993J-5D01*
G01*
X130440111Y-88699895D02*
G75*
G02*
X130240111Y-88899911I-200011J-5D01*
G01*
X130590112Y-96699895D02*
G75*
G02*
X130390112Y-96899912I-200012J-5D01*
G01*
X128809888Y-92899895D02*
G75*
G03*
X128209895Y-93499895I12J-600005D01*
G01*
X128809888Y-90899895D02*
G75*
G03*
X128209895Y-91499895I12J-600005D01*
G01*
X130240111Y-88299895D02*
G75*
G02*
X130440105Y-88499895I-11J-200005D01*
G01*
X128209888Y-99699895D02*
G75*
G03*
X128809888Y-100299912I600012J-5D01*
G01*
X130390112Y-92299895D02*
G75*
G02*
X130590105Y-92499895I-12J-200005D01*
G01*
X130590112Y-92699895D02*
G75*
G02*
X130390112Y-92899912I-200012J-5D01*
G01*
X128609888Y-93499895D02*
X128609888Y-93699895D01*
X129800000Y-91299895D02*
X128809888Y-91299895D01*
X125585000Y-172716497D02*
X125585000Y-173312156D01*
X128809888Y-91899895D02*
X129400000Y-91899895D01*
D48*
X125585000Y-174205000D02*
X125585000Y-174120000D01*
D45*
X130390112Y-91299895D02*
X129800000Y-91299895D01*
X129800000Y-95299895D02*
X128809907Y-95299895D01*
X130990112Y-92499895D02*
X130990112Y-92699895D01*
X125500000Y-116600000D02*
X125500000Y-172631497D01*
X129800000Y-112300000D02*
X125500000Y-116600000D01*
X129400000Y-93899895D02*
X130390093Y-93899895D01*
X129400000Y-97899895D02*
X130390093Y-97899895D01*
D48*
X125585000Y-173764500D02*
X125609500Y-173740000D01*
D45*
X130390093Y-99299895D02*
X129800000Y-99299895D01*
X129800000Y-103244000D02*
X129800000Y-112300000D01*
X128609907Y-97499895D02*
X128609907Y-97699895D01*
X130390093Y-101299895D02*
X130000000Y-101299895D01*
X125500000Y-172631497D02*
X125585000Y-172716497D01*
X128809888Y-93899895D02*
X129400000Y-93899895D01*
X130990093Y-94499895D02*
X130990093Y-94699895D01*
X130000000Y-89299895D02*
X128809888Y-89299895D01*
D48*
X125933200Y-174553200D02*
X125585000Y-174205000D01*
X124815000Y-188565000D02*
X124815000Y-188323702D01*
X125125000Y-188875000D02*
X124815000Y-188565000D01*
D45*
X130390112Y-97299895D02*
X129800000Y-97299895D01*
X128609888Y-91499895D02*
X128609888Y-91699895D01*
X128609888Y-89499895D02*
X128609888Y-89699895D01*
D48*
X125125000Y-190625000D02*
X125125000Y-188875000D01*
X125933200Y-187205502D02*
X125933200Y-174553200D01*
D45*
X128809888Y-89899895D02*
X129400000Y-89899895D01*
X129400000Y-95899895D02*
X130390112Y-95899895D01*
X131339301Y-85200699D02*
X129800000Y-86740000D01*
X129800000Y-93299895D02*
X128809888Y-93299895D01*
D48*
X125585000Y-174120000D02*
X125585000Y-173764500D01*
X125585000Y-174120000D02*
X125585000Y-173312156D01*
D45*
X130990093Y-98499895D02*
X130990093Y-98699895D01*
X129400000Y-99899895D02*
X130390093Y-99899895D01*
X130390093Y-95299895D02*
X129800000Y-95299895D01*
X129800000Y-86740000D02*
X129800000Y-87699895D01*
X130390112Y-93299895D02*
X129800000Y-93299895D01*
X129800000Y-101499895D02*
X129800000Y-101699895D01*
X128809888Y-99899895D02*
X129400000Y-99899895D01*
X129400000Y-91899895D02*
X130390112Y-91899895D01*
X129800000Y-99299895D02*
X128809888Y-99299895D01*
X128609907Y-95499895D02*
X128609907Y-95699895D01*
X130240111Y-89299895D02*
X130000000Y-89299895D01*
X130990093Y-100499895D02*
X130990093Y-100699895D01*
X130990112Y-90499895D02*
X130990112Y-90699895D01*
X129800000Y-101699895D02*
X129800000Y-103244000D01*
D48*
X124815000Y-188323702D02*
X125933200Y-187205502D01*
D45*
X131825000Y-84796997D02*
X131421298Y-85200699D01*
X130000000Y-87899895D02*
X130240111Y-87899895D01*
X130990112Y-96499895D02*
X130990112Y-96699895D01*
X128809907Y-97899895D02*
X129400000Y-97899895D01*
X129400000Y-89899895D02*
X130390112Y-89899895D01*
X130840111Y-88499895D02*
X130840111Y-88699895D01*
X128609888Y-99499895D02*
X128609888Y-99699895D01*
X128809907Y-95899895D02*
X129400000Y-95899895D01*
X131421298Y-85200699D02*
X131339301Y-85200699D01*
X129800000Y-97299895D02*
X128809907Y-97299895D01*
X128809888Y-91299895D02*
G75*
G03*
X128609895Y-91499895I12J-200005D01*
G01*
X130390112Y-91899895D02*
G75*
G02*
X130990105Y-92499895I-12J-600005D01*
G01*
X128809907Y-97299895D02*
G75*
G03*
X128609895Y-97499895I-7J-200005D01*
G01*
X128809888Y-99299895D02*
G75*
G03*
X128609895Y-99499895I12J-200005D01*
G01*
X128809888Y-93299895D02*
G75*
G03*
X128609895Y-93499895I12J-200005D01*
G01*
X130840111Y-88699895D02*
G75*
G02*
X130240111Y-89299911I-600011J-5D01*
G01*
X128609907Y-97699895D02*
G75*
G03*
X128809907Y-97899893I199993J-5D01*
G01*
X130990093Y-100699895D02*
G75*
G02*
X130390093Y-101299893I-599993J-5D01*
G01*
X130990112Y-90699895D02*
G75*
G02*
X130390112Y-91299912I-600012J-5D01*
G01*
X128609888Y-91699895D02*
G75*
G03*
X128809888Y-91899912I200012J-5D01*
G01*
X130390093Y-93899895D02*
G75*
G02*
X130990105Y-94499895I7J-600005D01*
G01*
X128609888Y-99699895D02*
G75*
G03*
X128809888Y-99899912I200012J-5D01*
G01*
X129800000Y-87699895D02*
G75*
G03*
X130000000Y-87899900I200000J-5D01*
G01*
X130990112Y-92699895D02*
G75*
G02*
X130390112Y-93299912I-600012J-5D01*
G01*
X128609888Y-89699895D02*
G75*
G03*
X128809888Y-89899912I200012J-5D01*
G01*
X130990093Y-98699895D02*
G75*
G02*
X130390093Y-99299893I-599993J-5D01*
G01*
X130390112Y-95899895D02*
G75*
G02*
X130990105Y-96499895I-12J-600005D01*
G01*
X128809907Y-95299895D02*
G75*
G03*
X128609895Y-95499895I-7J-200005D01*
G01*
X130000000Y-101299895D02*
G75*
G03*
X129799995Y-101499895I0J-200005D01*
G01*
X130990093Y-94699895D02*
G75*
G02*
X130390093Y-95299893I-599993J-5D01*
G01*
X128609907Y-95699895D02*
G75*
G03*
X128809907Y-95899893I199993J-5D01*
G01*
X130390093Y-97899895D02*
G75*
G02*
X130990105Y-98499895I7J-600005D01*
G01*
X130390112Y-89899895D02*
G75*
G02*
X130990105Y-90499895I-12J-600005D01*
G01*
X128609888Y-93699895D02*
G75*
G03*
X128809888Y-93899912I200012J-5D01*
G01*
X130990112Y-96699895D02*
G75*
G02*
X130390112Y-97299912I-600012J-5D01*
G01*
X128809888Y-89299895D02*
G75*
G03*
X128609895Y-89499895I12J-200005D01*
G01*
X130390093Y-99899895D02*
G75*
G02*
X130990105Y-100499895I7J-600005D01*
G01*
X130240111Y-87899895D02*
G75*
G02*
X130840105Y-88499895I-11J-600005D01*
G01*
D47*
X120309500Y-185300000D02*
X121060000Y-184549500D01*
X118827000Y-185300000D02*
X120309500Y-185300000D01*
D49*
X119466324Y-187853676D02*
X119810167Y-187509833D01*
X118995006Y-187853676D02*
X119466324Y-187853676D01*
X155570000Y-168750000D02*
X155570000Y-171760000D01*
X157150000Y-167170000D02*
X155570000Y-168750000D01*
X167600000Y-167170000D02*
X157150000Y-167170000D01*
X168230000Y-166540000D02*
X167600000Y-167170000D01*
X119810167Y-187509833D02*
X119840167Y-187509833D01*
D48*
X116535542Y-185755542D02*
X116290268Y-185755542D01*
X127135000Y-84815000D02*
X126006499Y-85943501D01*
X114740000Y-184205274D02*
X114740000Y-146120000D01*
X119653940Y-186954274D02*
X117734274Y-186954274D01*
X106365000Y-137745000D02*
X106365000Y-107635000D01*
X114740000Y-146120000D02*
X106365000Y-137745000D01*
X126006499Y-85943501D02*
X126006499Y-87993501D01*
X126006499Y-87993501D02*
X106365000Y-107635000D01*
X116290268Y-185755542D02*
X114740000Y-184205274D01*
X117734274Y-186954274D02*
X116535542Y-185755542D01*
D44*
X174145000Y-163155000D02*
X174145000Y-164035000D01*
X174145000Y-164035000D02*
X171805000Y-166375000D01*
X95870000Y-173365000D02*
X95015000Y-173365000D01*
D45*
X172525000Y-90900000D02*
X172525000Y-91635000D01*
D44*
X102065000Y-156967500D02*
X102065000Y-157584205D01*
D46*
X194845000Y-140785000D02*
X194875000Y-140755000D01*
D45*
X177165000Y-90900000D02*
X177165000Y-91835000D01*
D44*
X102155000Y-150735000D02*
X102175000Y-150715000D01*
X95870000Y-174935000D02*
X95045000Y-174935000D01*
X95890000Y-156235000D02*
X95275000Y-156235000D01*
X95880000Y-154695000D02*
X94605000Y-154695000D01*
D45*
X172525000Y-91635000D02*
X172545000Y-91655000D01*
D44*
X95880000Y-151155000D02*
X95185000Y-151155000D01*
D45*
X178715000Y-91795000D02*
X178695000Y-91815000D01*
D47*
X175615000Y-91635000D02*
X175555000Y-91695000D01*
D44*
X95245000Y-168595000D02*
X95215000Y-168625000D01*
X94975000Y-171795000D02*
X94965000Y-171785000D01*
X95275000Y-156235000D02*
X95255000Y-156255000D01*
D45*
X178715000Y-90900000D02*
X178715000Y-91795000D01*
D46*
X201335000Y-140755000D02*
X201350000Y-140770000D01*
D44*
X94605000Y-154695000D02*
X94560000Y-154650000D01*
X95185000Y-151155000D02*
X94599999Y-150569999D01*
X102065000Y-157584205D02*
X102232540Y-157751745D01*
X95870000Y-176695000D02*
X95075000Y-176695000D01*
X95075000Y-176695000D02*
X95030000Y-176740000D01*
D45*
X174075000Y-90900000D02*
X174075000Y-91675000D01*
D44*
X102155000Y-151490000D02*
X102155000Y-150735000D01*
X95870000Y-171795000D02*
X94975000Y-171795000D01*
D47*
X175615000Y-90900000D02*
X175615000Y-91635000D01*
D44*
X95045000Y-174935000D02*
X95030000Y-174920000D01*
D45*
X177165000Y-91835000D02*
X177155000Y-91845000D01*
D46*
X194875000Y-140755000D02*
X201335000Y-140755000D01*
D44*
X95870000Y-168595000D02*
X95245000Y-168595000D01*
D47*
X68405000Y-133435000D02*
X68405000Y-131805000D01*
D48*
X137175000Y-100580000D02*
X137320000Y-100725000D01*
X143147000Y-84707619D02*
X143180801Y-84673818D01*
X67895000Y-139217440D02*
X68738119Y-140060559D01*
X137320000Y-100725000D02*
X137875000Y-100725000D01*
X75044440Y-132627000D02*
X70150560Y-132627000D01*
X67895000Y-134882559D02*
X67895000Y-139217440D01*
X68738119Y-140060559D02*
X68738119Y-140401881D01*
X143147000Y-95453000D02*
X143147000Y-84707619D01*
X76297440Y-133880000D02*
X75044440Y-132627000D01*
X76645000Y-133880000D02*
X76297440Y-133880000D01*
X70150560Y-132627000D02*
X68028559Y-134749000D01*
X68028559Y-134749000D02*
X67895000Y-134882559D01*
X137875000Y-100725000D02*
X143147000Y-95453000D01*
X68123000Y-139123000D02*
X68928119Y-139928119D01*
X76645000Y-134550000D02*
X74950000Y-132855000D01*
X68928119Y-139928119D02*
X69211881Y-139928119D01*
X74950000Y-132855000D02*
X70245000Y-132855000D01*
X143375000Y-87363702D02*
X143705000Y-87033702D01*
X143705000Y-87033702D02*
X143705000Y-84818017D01*
X143375000Y-95553702D02*
X143375000Y-87363702D01*
X137823702Y-101105000D02*
X143375000Y-95553702D01*
X143705000Y-84818017D02*
X143849199Y-84673818D01*
X68123000Y-134977000D02*
X68123000Y-139123000D01*
X137320000Y-101105000D02*
X137175000Y-101250000D01*
X70245000Y-132855000D02*
X68123000Y-134977000D01*
X137823702Y-101105000D02*
X137320000Y-101105000D01*
X76371881Y-138561857D02*
X75300738Y-139633000D01*
X69888000Y-139633000D02*
X69365000Y-139110000D01*
X137551262Y-102545000D02*
X137130000Y-102545000D01*
X144657500Y-95438762D02*
X137551262Y-102545000D01*
X137130000Y-102545000D02*
X136985000Y-102400000D01*
X144657500Y-86460735D02*
X144657500Y-95438762D01*
X76371881Y-138008119D02*
X76371881Y-138561857D01*
X75300738Y-139633000D02*
X69888000Y-139633000D01*
X144365000Y-86168235D02*
X144657500Y-86460735D01*
X137493702Y-102925000D02*
X137130000Y-102925000D01*
X144885500Y-86347735D02*
X144885500Y-95533202D01*
X75898119Y-138481881D02*
X75991880Y-138575642D01*
X144885500Y-95533202D02*
X137493702Y-102925000D01*
X75991880Y-138619418D02*
X75206298Y-139405000D01*
X75206298Y-139405000D02*
X70330000Y-139405000D01*
X75991880Y-138575642D02*
X75991880Y-138619418D01*
X70330000Y-139405000D02*
X69365000Y-138440000D01*
X145065000Y-86168235D02*
X144885500Y-86347735D01*
X137130000Y-102925000D02*
X136985000Y-103070000D01*
X74485000Y-137415000D02*
X69833701Y-137415000D01*
X136850000Y-104425000D02*
X136705000Y-104280000D01*
X145857500Y-84930174D02*
X145857500Y-95918762D01*
X76700000Y-136500000D02*
X75400000Y-136500000D01*
X69660636Y-137241935D02*
X69660636Y-137225043D01*
X77328000Y-140513000D02*
X77328000Y-137128000D01*
X75400000Y-136500000D02*
X74485000Y-137415000D01*
X145565000Y-84637674D02*
X145857500Y-84930174D01*
X137351262Y-104425000D02*
X136850000Y-104425000D01*
X77570000Y-140755000D02*
X77328000Y-140513000D01*
X77328000Y-137128000D02*
X76700000Y-136500000D01*
X69833701Y-137415000D02*
X69660636Y-137241935D01*
X145857500Y-95918762D02*
X137351262Y-104425000D01*
X146085500Y-96013202D02*
X137293702Y-104805000D01*
X76589298Y-136728000D02*
X75510702Y-136728000D01*
X76900000Y-140755000D02*
X77100000Y-140555000D01*
X137293702Y-104805000D02*
X136850000Y-104805000D01*
X146085500Y-84817174D02*
X146085500Y-96013202D01*
X75510702Y-136728000D02*
X74595702Y-137643000D01*
X77100000Y-140555000D02*
X77100000Y-137238702D01*
X136850000Y-104805000D02*
X136705000Y-104950000D01*
X77100000Y-137238702D02*
X76589298Y-136728000D01*
X74595702Y-137643000D02*
X69319238Y-137643000D01*
X69319238Y-137643000D02*
X69198119Y-137521881D01*
X146265000Y-84637674D02*
X146085500Y-84817174D01*
X74000000Y-134600000D02*
X73700000Y-134300000D01*
X147077000Y-86779888D02*
X147077000Y-96123000D01*
X72100000Y-134300000D02*
X70500000Y-135900000D01*
X147077000Y-96123000D02*
X137175000Y-106025000D01*
X136670000Y-106025000D02*
X136525000Y-105880000D01*
X73700000Y-134300000D02*
X72100000Y-134300000D01*
X70500000Y-135900000D02*
X69835000Y-135900000D01*
X146765000Y-86467888D02*
X147077000Y-86779888D01*
X69835000Y-135900000D02*
X69575000Y-136160000D01*
X74000000Y-135100000D02*
X74000000Y-134600000D01*
X137175000Y-106025000D02*
X136670000Y-106025000D01*
X73833702Y-134065000D02*
X72006298Y-134065000D01*
X137163702Y-106405000D02*
X147305000Y-96263702D01*
X147305000Y-96263702D02*
X147305000Y-86373035D01*
X136525000Y-106550000D02*
X136670000Y-106405000D01*
X69720000Y-135635000D02*
X69575000Y-135490000D01*
X74400000Y-135828702D02*
X74400000Y-134631298D01*
X74000000Y-136155000D02*
X74073702Y-136155000D01*
X70436298Y-135635000D02*
X69720000Y-135635000D01*
X147305000Y-86373035D02*
X147429644Y-86248391D01*
X72006298Y-134065000D02*
X70436298Y-135635000D01*
X74073702Y-136155000D02*
X74400000Y-135828702D01*
X136670000Y-106405000D02*
X137163702Y-106405000D01*
X74400000Y-134631298D02*
X73833702Y-134065000D01*
X149335000Y-94795000D02*
X149305000Y-94825000D01*
X149305000Y-94825000D02*
X149305000Y-97595000D01*
X76435000Y-135145000D02*
X79235000Y-135145000D01*
X150075000Y-95969500D02*
X150899500Y-95145000D01*
X74655000Y-133365000D02*
X76435000Y-135145000D01*
X79235000Y-135145000D02*
X81995000Y-137905000D01*
X74655000Y-133365000D02*
X73765000Y-133365000D01*
X81995000Y-145475000D02*
X81995000Y-137905000D01*
X150075000Y-98025000D02*
X150075000Y-95969500D01*
X136835741Y-96100000D02*
X136681273Y-95945532D01*
X141057500Y-84964082D02*
X141057500Y-93638762D01*
X96777372Y-96901330D02*
X96777372Y-95942508D01*
X97295000Y-101025000D02*
X96663702Y-101025000D01*
X138596262Y-96100000D02*
X136835741Y-96100000D01*
X96777372Y-95942508D02*
X97822508Y-95942508D01*
X96663702Y-101025000D02*
X96145000Y-100506298D01*
X141057500Y-93638762D02*
X138596262Y-96100000D01*
X97822508Y-95942508D02*
X97895000Y-96015000D01*
X96145000Y-100506298D02*
X96145000Y-97533702D01*
X97455000Y-100865000D02*
X97295000Y-101025000D01*
X96145000Y-97533702D02*
X96777372Y-96901330D01*
X140765000Y-84671582D02*
X141057500Y-84964082D01*
X138365000Y-84685856D02*
X138525000Y-84845856D01*
X96427512Y-91637512D02*
X96405000Y-91660024D01*
X137045000Y-93445000D02*
X136825000Y-93225000D01*
X96405000Y-92635000D02*
X97245000Y-93475000D01*
X138525000Y-92851164D02*
X137931164Y-93445000D01*
X97245000Y-93475000D02*
X97895000Y-93475000D01*
X96405000Y-91660024D02*
X96405000Y-92635000D01*
X138525000Y-84845856D02*
X138525000Y-92851164D01*
X137931164Y-93445000D02*
X137045000Y-93445000D01*
X95765000Y-100663702D02*
X95765000Y-97376298D01*
X141285500Y-84791273D02*
X141285500Y-93733202D01*
X97455000Y-101565000D02*
X97295000Y-101405000D01*
X97295000Y-101405000D02*
X96506298Y-101405000D01*
X96506298Y-101405000D02*
X95765000Y-100663702D01*
X136800000Y-96400000D02*
X136675000Y-96525000D01*
X96397372Y-95942508D02*
X95427492Y-95942508D01*
X141415084Y-84661689D02*
X141285500Y-84791273D01*
X138618702Y-96400000D02*
X136800000Y-96400000D01*
X95765000Y-97376298D02*
X96397372Y-96743926D01*
X96397372Y-96743926D02*
X96397372Y-95942508D01*
X95427492Y-95942508D02*
X95355000Y-96015000D01*
X141285500Y-93733202D02*
X138618702Y-96400000D01*
X136944000Y-93745000D02*
X136854500Y-93834500D01*
X138905000Y-92855000D02*
X138015000Y-93745000D01*
X138015000Y-93745000D02*
X136944000Y-93745000D01*
X138905000Y-84819456D02*
X138905000Y-92855000D01*
X139047617Y-84676839D02*
X138905000Y-84819456D01*
X92262488Y-101297512D02*
X92036213Y-101297512D01*
X92036213Y-101297512D02*
X91705000Y-100966299D01*
X142267000Y-94819262D02*
X139586262Y-97500000D01*
X91705000Y-96105089D02*
X92724911Y-96105089D01*
X136790000Y-97500000D02*
X136635000Y-97345000D01*
X92724911Y-96105089D02*
X92815000Y-96015000D01*
X141965000Y-86615000D02*
X142267000Y-86917000D01*
X142267000Y-86917000D02*
X142267000Y-94819262D01*
X91705000Y-100966299D02*
X91705000Y-96105089D01*
X139586262Y-97500000D02*
X136790000Y-97500000D01*
X138076262Y-94700000D02*
X136830000Y-94700000D01*
X92815000Y-93475000D02*
X92220024Y-93475000D01*
X139850828Y-86870828D02*
X139850828Y-92925434D01*
X136830000Y-94700000D02*
X136695000Y-94565000D01*
X139850828Y-92925434D02*
X138076262Y-94700000D01*
X92220024Y-93475000D02*
X91106738Y-92361714D01*
X139565000Y-86585000D02*
X139850828Y-86870828D01*
X142495000Y-94913702D02*
X139608702Y-97800000D01*
X91767512Y-101792488D02*
X91767512Y-101566213D01*
X136770000Y-97800000D02*
X136645000Y-97925000D01*
X142495000Y-86785000D02*
X142495000Y-94913702D01*
X90365089Y-96105089D02*
X90275000Y-96015000D01*
X139608702Y-97800000D02*
X136770000Y-97800000D01*
X142665000Y-86615000D02*
X142495000Y-86785000D01*
X91325000Y-96105089D02*
X90365089Y-96105089D01*
X91325000Y-101123701D02*
X91325000Y-96105089D01*
X91767512Y-101566213D02*
X91325000Y-101123701D01*
X140078828Y-93019874D02*
X138098702Y-95000000D01*
X136810000Y-95000000D02*
X136655000Y-95155000D01*
X140265000Y-86585000D02*
X140078828Y-86771172D01*
X138098702Y-95000000D02*
X136810000Y-95000000D01*
X140078828Y-86771172D02*
X140078828Y-93019874D01*
X145780000Y-120000000D02*
X145780000Y-116140000D01*
X147490000Y-121710000D02*
X145780000Y-120000000D01*
D47*
X155885000Y-120105000D02*
X156480000Y-119510000D01*
X155360000Y-120840000D02*
X155885000Y-120315000D01*
X155885000Y-120315000D02*
X155885000Y-120105000D01*
X156480000Y-105150000D02*
X161025000Y-100605000D01*
X178725000Y-89240000D02*
X178715000Y-89250000D01*
X156480000Y-119510000D02*
X156480000Y-105150000D01*
X178725000Y-88505000D02*
X178725000Y-89240000D01*
X177225000Y-89190000D02*
X177165000Y-89250000D01*
X156000000Y-119150000D02*
X156000000Y-104980000D01*
X156000000Y-104980000D02*
X160345000Y-100635000D01*
X177225000Y-88565000D02*
X177225000Y-89190000D01*
X155450000Y-119631786D02*
X155446283Y-119635503D01*
X155450000Y-104870000D02*
X155450000Y-119631786D01*
X159535000Y-100785000D02*
X155450000Y-104870000D01*
X154595000Y-116005000D02*
X154595000Y-105075000D01*
X154595000Y-105075000D02*
X158755000Y-100915000D01*
X175535000Y-89170000D02*
X175615000Y-89250000D01*
X175535000Y-88505000D02*
X175535000Y-89170000D01*
X158035000Y-100975000D02*
X153310000Y-105700000D01*
X174085000Y-88545000D02*
X174085000Y-89240000D01*
X153310000Y-119520262D02*
X154066738Y-120277000D01*
X153310000Y-105700000D02*
X153310000Y-119520262D01*
X174085000Y-89240000D02*
X174075000Y-89250000D01*
X172535000Y-89240000D02*
X172525000Y-89250000D01*
X152930000Y-121230000D02*
X152930000Y-105420000D01*
X172535000Y-88485000D02*
X172535000Y-89240000D01*
X152930000Y-105420000D02*
X157095000Y-101255000D01*
X152930000Y-121230000D02*
X153150000Y-121450000D01*
X218745000Y-167415000D02*
X222385000Y-167415000D01*
X208265000Y-156935000D02*
X218745000Y-167415000D01*
X207485000Y-149825000D02*
X208265000Y-150605000D01*
X208265000Y-150605000D02*
X208265000Y-156935000D01*
X222385000Y-167415000D02*
X223630000Y-166170000D01*
X208695000Y-156615000D02*
X217005000Y-164925000D01*
X208695000Y-151195000D02*
X208695000Y-156615000D01*
X222335000Y-164925000D02*
X223630000Y-163630000D01*
X217005000Y-164925000D02*
X222335000Y-164925000D01*
X212435000Y-159875000D02*
X222305000Y-159875000D01*
X209285000Y-150655000D02*
X209285000Y-156725000D01*
X222305000Y-159875000D02*
X223630000Y-158550000D01*
X209345000Y-150595000D02*
X209285000Y-150655000D01*
X209285000Y-156725000D02*
X212435000Y-159875000D01*
D49*
X183565000Y-176365000D02*
X183565000Y-177435000D01*
D47*
X168203762Y-167914500D02*
X167329745Y-167914500D01*
D49*
X184705000Y-175225000D02*
X183565000Y-176365000D01*
D47*
X169040000Y-153250000D02*
X169040000Y-167078262D01*
D49*
X183565000Y-177435000D02*
X181450000Y-179550000D01*
X181450000Y-179550000D02*
X166390000Y-179550000D01*
D47*
X167329745Y-167914500D02*
X165989245Y-169255000D01*
X158755000Y-126645000D02*
X164510000Y-132400000D01*
X169040000Y-167078262D02*
X168203762Y-167914500D01*
X165989245Y-169255000D02*
X165345000Y-169255000D01*
D49*
X163455000Y-176615000D02*
X163455000Y-171145000D01*
X163455000Y-171145000D02*
X165345000Y-169255000D01*
X166390000Y-179550000D02*
X163455000Y-176615000D01*
D47*
X164510000Y-148720000D02*
X169040000Y-153250000D01*
D49*
X185385000Y-175225000D02*
X184705000Y-175225000D01*
D47*
X164510000Y-132400000D02*
X164510000Y-148720000D01*
D50*
X169960000Y-151120000D02*
X169960000Y-170670000D01*
X170295000Y-171005000D02*
X170295000Y-171335000D01*
X170295000Y-171335000D02*
X168155000Y-173475000D01*
X161975000Y-115425000D02*
X167045000Y-120495000D01*
X161975000Y-111745000D02*
X161975000Y-115425000D01*
X167025000Y-173475000D02*
X165345000Y-171795000D01*
X167045000Y-120495000D02*
X167045000Y-148205000D01*
X169960000Y-170670000D02*
X170295000Y-171005000D01*
X168155000Y-173475000D02*
X167025000Y-173475000D01*
X167045000Y-148205000D02*
X169960000Y-151120000D01*
D47*
X223120000Y-153470000D02*
X221905000Y-152255000D01*
X221905000Y-152255000D02*
X209775000Y-152255000D01*
X169620000Y-151780000D02*
X169620000Y-167520000D01*
X223630000Y-153470000D02*
X223120000Y-153470000D01*
X166255000Y-148415000D02*
X169620000Y-151780000D01*
X166255000Y-122425000D02*
X166255000Y-148415000D01*
X169620000Y-167520000D02*
X167885000Y-169255000D01*
X220315000Y-152695000D02*
X221090000Y-153470000D01*
X165245000Y-148495000D02*
X165245000Y-142035000D01*
X210635000Y-152775000D02*
X210715000Y-152695000D01*
X166596500Y-170731500D02*
X164878500Y-170731500D01*
X210715000Y-152695000D02*
X220315000Y-152695000D01*
X167444483Y-168191500D02*
X168318500Y-168191500D01*
X167885000Y-171795000D02*
X167365000Y-171795000D01*
X166605000Y-170740000D02*
X166605000Y-169030983D01*
X166605000Y-169030983D02*
X167444483Y-168191500D01*
X164060000Y-171550000D02*
X164060000Y-173080000D01*
X166605000Y-171035000D02*
X166605000Y-170740000D01*
X169343000Y-152593000D02*
X165245000Y-148495000D01*
X167365000Y-171795000D02*
X166605000Y-171035000D01*
X168318500Y-168191500D02*
X169343000Y-167167000D01*
X169343000Y-167167000D02*
X169343000Y-152593000D01*
X165245000Y-123025000D02*
X165245000Y-142035000D01*
X166605000Y-170740000D02*
X166596500Y-170731500D01*
X164878500Y-170731500D02*
X164060000Y-171550000D01*
D44*
X102180000Y-153040000D02*
X105225000Y-153040000D01*
X106625000Y-153595000D02*
X105780000Y-153595000D01*
X105780000Y-153595000D02*
X105225000Y-153040000D01*
X102155000Y-153065000D02*
X102180000Y-153040000D01*
X106625000Y-154395000D02*
X106185000Y-154395000D01*
X102077500Y-155405000D02*
X102065000Y-155392500D01*
X106185000Y-154395000D02*
X105175000Y-155405000D01*
X105175000Y-155405000D02*
X102077500Y-155405000D01*
D49*
X97640000Y-154805000D02*
X97530000Y-154695000D01*
D50*
X96450000Y-155390000D02*
X96835000Y-155390000D01*
X96835000Y-155390000D02*
X97530000Y-154695000D01*
X145831074Y-140945000D02*
X145395000Y-140945000D01*
X148193043Y-88006957D02*
X148193043Y-138583031D01*
X148193043Y-138583031D02*
X145831074Y-140945000D01*
D49*
X98485000Y-154805000D02*
X97640000Y-154805000D01*
D50*
X148400000Y-87800000D02*
X148193043Y-88006957D01*
D48*
X133830000Y-155855000D02*
X134065000Y-155620000D01*
X133830000Y-157330000D02*
X133830000Y-155855000D01*
X133900000Y-157400000D02*
X133830000Y-157330000D01*
X133171195Y-155663805D02*
X133215000Y-155620000D01*
X133171195Y-157471195D02*
X133171195Y-155663805D01*
D45*
X97860000Y-169795000D02*
X97520000Y-170135000D01*
X98435000Y-169795000D02*
X97860000Y-169795000D01*
X97520000Y-171795000D02*
X97995000Y-171795000D01*
D50*
X145625000Y-141665000D02*
X145195000Y-141665000D01*
X148800000Y-87990000D02*
X148445000Y-88345000D01*
D45*
X97995000Y-171795000D02*
X98345000Y-172145000D01*
D50*
X148800000Y-85040000D02*
X148800000Y-87990000D01*
X148445000Y-138845000D02*
X145625000Y-141665000D01*
X148555000Y-84795000D02*
X148800000Y-85040000D01*
X148445000Y-88345000D02*
X148445000Y-138845000D01*
D48*
X142040521Y-163400521D02*
X142040521Y-162699479D01*
X142580000Y-161040000D02*
X142110000Y-160570000D01*
X142580000Y-162160000D02*
X142580000Y-161040000D01*
X142040521Y-162699479D02*
X142580000Y-162160000D01*
X142610000Y-162900000D02*
X142960000Y-162550000D01*
X142960000Y-162550000D02*
X142960000Y-160570000D01*
X137705000Y-92475631D02*
X137906770Y-92677401D01*
X137865000Y-86565000D02*
X137705000Y-86725000D01*
X85615000Y-109045000D02*
X85615000Y-114125000D01*
X90695000Y-114125000D02*
X90695000Y-109045000D01*
X85615000Y-114125000D02*
X90695000Y-114125000D01*
X137705000Y-86725000D02*
X137705000Y-92475631D01*
X90695000Y-109045000D02*
X85615000Y-109045000D01*
X137325000Y-92539009D02*
X137165000Y-92699009D01*
X137165000Y-86565000D02*
X137325000Y-86725000D01*
X137325000Y-86725000D02*
X137325000Y-92539009D01*
X95615000Y-103205000D02*
X93475000Y-105345000D01*
X92606298Y-122175000D02*
X90865000Y-122175000D01*
X105246298Y-103205000D02*
X95615000Y-103205000D01*
X119155000Y-89785000D02*
X118666298Y-89785000D01*
X118666298Y-89785000D02*
X105246298Y-103205000D01*
X90865000Y-122175000D02*
X90815000Y-122125000D01*
X119315000Y-89625000D02*
X119155000Y-89785000D01*
X93475000Y-105345000D02*
X93475000Y-121306298D01*
X90815000Y-122125000D02*
X90815000Y-120095000D01*
X93475000Y-121306298D02*
X92606298Y-122175000D01*
X92683702Y-122635000D02*
X88275000Y-122635000D01*
X105403702Y-103585000D02*
X95725000Y-103585000D01*
X93855000Y-121463702D02*
X92683702Y-122635000D01*
X95725000Y-103585000D02*
X93855000Y-105455000D01*
X93855000Y-105455000D02*
X93855000Y-121463702D01*
X118823702Y-90165000D02*
X105403702Y-103585000D01*
X119341025Y-90298975D02*
X119207050Y-90165000D01*
X119207050Y-90165000D02*
X118823702Y-90165000D01*
D49*
X98155000Y-152685000D02*
X97530000Y-152685000D01*
X98445000Y-152395000D02*
X98155000Y-152685000D01*
D48*
X123308119Y-89101881D02*
X123214358Y-89008120D01*
X95445000Y-106133702D02*
X95445000Y-109426298D01*
X96413702Y-105165000D02*
X95445000Y-106133702D01*
X97455000Y-110185000D02*
X97455000Y-109165000D01*
X95445000Y-109426298D02*
X96203702Y-110185000D01*
X122050582Y-89008120D02*
X105893702Y-105165000D01*
X97450000Y-109160000D02*
X99990000Y-109160000D01*
X97455000Y-109165000D02*
X97450000Y-109160000D01*
X96203702Y-110185000D02*
X97455000Y-110185000D01*
X105893702Y-105165000D02*
X96413702Y-105165000D01*
X123214358Y-89008120D02*
X122050582Y-89008120D01*
X95065000Y-109583702D02*
X96046298Y-110565000D01*
X97450000Y-111700000D02*
X99990000Y-111700000D01*
X95065000Y-105976298D02*
X95065000Y-109583702D01*
X97335000Y-110565000D02*
X97335000Y-111585000D01*
X105736298Y-104785000D02*
X96256298Y-104785000D01*
X121893179Y-88628119D02*
X105736298Y-104785000D01*
X123781881Y-88628119D02*
X121893179Y-88628119D01*
X96046298Y-110565000D02*
X97335000Y-110565000D01*
X96256298Y-104785000D02*
X95065000Y-105976298D01*
X97335000Y-111585000D02*
X97450000Y-111700000D01*
X103275000Y-109825000D02*
X124486025Y-88613975D01*
X124486025Y-88613975D02*
X124813975Y-88613975D01*
X103275000Y-113495000D02*
X103275000Y-109825000D01*
X103275000Y-113495000D02*
X103275000Y-113675000D01*
X151285000Y-131523702D02*
X151285000Y-135100000D01*
X152085000Y-130723702D02*
X151285000Y-131523702D01*
X152085000Y-93596298D02*
X152085000Y-130723702D01*
X149692488Y-87087512D02*
X149692488Y-87313787D01*
X150265000Y-87886299D02*
X150265000Y-91776298D01*
X150265000Y-91776298D02*
X152085000Y-93596298D01*
X151285000Y-135100000D02*
X151430000Y-135245000D01*
X149692488Y-87313787D02*
X150265000Y-87886299D01*
X151705000Y-130566298D02*
X150905000Y-131366298D01*
X149885000Y-88043701D02*
X149885000Y-91933702D01*
X149197512Y-87582488D02*
X149423787Y-87582488D01*
X149885000Y-91933702D02*
X151705000Y-93753702D01*
X150905000Y-131366298D02*
X150905000Y-135100000D01*
X151705000Y-93753702D02*
X151705000Y-130566298D01*
X150905000Y-135100000D02*
X150760000Y-135245000D01*
X149423787Y-87582488D02*
X149885000Y-88043701D01*
X127215000Y-86075000D02*
X127075000Y-86215000D01*
X127075000Y-94350270D02*
X117925000Y-103500270D01*
X127075000Y-86215000D02*
X127075000Y-94350270D01*
X117925000Y-103500270D02*
X117925000Y-134905000D01*
X127535000Y-86075000D02*
X127215000Y-86075000D01*
X117925000Y-134905000D02*
X118220000Y-135200000D01*
X126815499Y-94284501D02*
X117695000Y-103405000D01*
X126815499Y-87894201D02*
X126815499Y-94284501D01*
X127575000Y-85335000D02*
X126815000Y-86095000D01*
X126815000Y-86095000D02*
X126815000Y-87893702D01*
X126815000Y-87893702D02*
X126815499Y-87894201D01*
X117695000Y-135055000D02*
X117550000Y-135200000D01*
X117695000Y-103405000D02*
X117695000Y-135055000D01*
X134300000Y-100991298D02*
X134475000Y-100816298D01*
X134300000Y-112700000D02*
X134300000Y-100991298D01*
X135215000Y-88076298D02*
X135215000Y-87582402D01*
X134475000Y-88816298D02*
X135215000Y-88076298D01*
X135137598Y-87505000D02*
X134975000Y-87505000D01*
X135215000Y-87582402D02*
X135137598Y-87505000D01*
X139898961Y-129575000D02*
X139675000Y-129575000D01*
X139470000Y-129370000D02*
X139470000Y-117870000D01*
X139470000Y-117870000D02*
X134300000Y-112700000D01*
X139675000Y-129575000D02*
X139470000Y-129370000D01*
X134475000Y-100816298D02*
X134475000Y-88816298D01*
X134528000Y-101085738D02*
X134703000Y-100910738D01*
X134703000Y-89125702D02*
X135595000Y-88233702D01*
X134703000Y-100910738D02*
X134703000Y-89125702D01*
X135595000Y-87325000D02*
X135360000Y-87090000D01*
X139730000Y-129200000D02*
X139700000Y-129170000D01*
X135595000Y-88233702D02*
X135595000Y-87325000D01*
X140300000Y-129200000D02*
X139730000Y-129200000D01*
X139700000Y-129170000D02*
X139700000Y-117761298D01*
X134528000Y-112589298D02*
X134528000Y-101085738D01*
X139700000Y-117761298D02*
X134528000Y-112589298D01*
X127848119Y-87453180D02*
X127625000Y-87676299D01*
X127848119Y-87248119D02*
X127848119Y-87453180D01*
X122665000Y-103235000D02*
X122665000Y-135035000D01*
X127625000Y-87676299D02*
X127625000Y-98275000D01*
X122665000Y-135035000D02*
X122520000Y-135180000D01*
X127625000Y-98275000D02*
X122665000Y-103235000D01*
X127900000Y-98325270D02*
X122900000Y-103325270D01*
X127900000Y-87938701D02*
X127900000Y-98325270D01*
X128321881Y-87721881D02*
X128116820Y-87721881D01*
X128116820Y-87721881D02*
X127900000Y-87938701D01*
X122900000Y-134890000D02*
X123190000Y-135180000D01*
X122900000Y-103325270D02*
X122900000Y-134890000D01*
X156960000Y-125790000D02*
X156960000Y-105450000D01*
X160825000Y-129655000D02*
X156960000Y-125790000D01*
X156960000Y-105450000D02*
X158395000Y-104015000D01*
D45*
X176985000Y-104325000D02*
X171905000Y-104325000D01*
X171905000Y-104325000D02*
X171905000Y-109405000D01*
X176985000Y-109405000D02*
X176985000Y-104325000D01*
X171905000Y-109405000D02*
X176985000Y-109405000D01*
D48*
X106335080Y-166547800D02*
X108127800Y-166547800D01*
D45*
X98235000Y-174915000D02*
X98235000Y-175980000D01*
D48*
X124825000Y-91995000D02*
X108525000Y-108295000D01*
X117400000Y-160600000D02*
X117570000Y-160430000D01*
D45*
X98235000Y-175980000D02*
X97520000Y-176695000D01*
D48*
X106329740Y-166553140D02*
X106335080Y-166547800D01*
X116430000Y-160080000D02*
X116950000Y-160600000D01*
D45*
X98535000Y-174615000D02*
X98235000Y-174915000D01*
D48*
X116950000Y-160600000D02*
X117400000Y-160600000D01*
X116430000Y-145990000D02*
X116430000Y-160080000D01*
X108525000Y-138085000D02*
X116430000Y-145990000D01*
X108525000Y-108295000D02*
X108525000Y-138085000D01*
D50*
X99515000Y-156385000D02*
X98465000Y-156385000D01*
X144455000Y-121865000D02*
X144455000Y-142505000D01*
X101200000Y-154700000D02*
X99515000Y-156385000D01*
X144560000Y-121760000D02*
X144455000Y-121865000D01*
X144455000Y-142505000D02*
X143785000Y-143175000D01*
D49*
X98465000Y-156385000D02*
X98315000Y-156235000D01*
X98315000Y-156235000D02*
X97540000Y-156235000D01*
D48*
X109085000Y-108595000D02*
X109085000Y-138135000D01*
D45*
X98445000Y-172995000D02*
X98075000Y-173365000D01*
D48*
X122895000Y-94805000D02*
X122875000Y-94805000D01*
X109085000Y-138135000D02*
X116710000Y-145760000D01*
X118070000Y-159830000D02*
X118090000Y-159850000D01*
X125375000Y-92325000D02*
X122895000Y-94805000D01*
X116710000Y-145760000D02*
X116710000Y-158060000D01*
X122875000Y-94805000D02*
X109085000Y-108595000D01*
X116710000Y-158060000D02*
X118070000Y-159420000D01*
D45*
X98075000Y-173365000D02*
X97520000Y-173365000D01*
D48*
X118070000Y-159420000D02*
X118070000Y-159830000D01*
D50*
X149890000Y-122520000D02*
X149890000Y-137850000D01*
X101250000Y-151610000D02*
X98510000Y-151610000D01*
D49*
X98475000Y-151575000D02*
X98055000Y-151155000D01*
X98055000Y-151155000D02*
X97530000Y-151155000D01*
D50*
X98510000Y-151610000D02*
X98475000Y-151575000D01*
X149890000Y-137850000D02*
X144750000Y-142990000D01*
D48*
X116150000Y-175840000D02*
X116140000Y-175850000D01*
X104810000Y-174800000D02*
X103785000Y-173775000D01*
X108005000Y-108105000D02*
X108005000Y-137995000D01*
D45*
X97520000Y-174720000D02*
X97520000Y-174935000D01*
D48*
X124615000Y-91495000D02*
X108005000Y-108105000D01*
X108005000Y-137995000D02*
X116150000Y-146140000D01*
X125325000Y-91495000D02*
X124615000Y-91495000D01*
X116150000Y-146140000D02*
X116150000Y-175840000D01*
X116140000Y-175850000D02*
X116140000Y-176250000D01*
X103785000Y-173775000D02*
X98465000Y-173775000D01*
D45*
X98465000Y-173775000D02*
X97520000Y-174720000D01*
D48*
X103555800Y-168808400D02*
X103879200Y-168485000D01*
X103879200Y-168485000D02*
X105841800Y-168485000D01*
X107505000Y-137975000D02*
X115870499Y-146340499D01*
X115860000Y-175420000D02*
X115530000Y-175750000D01*
X124028975Y-91508975D02*
X107505000Y-108032950D01*
X115860000Y-160630000D02*
X115860000Y-175420000D01*
D45*
X97900000Y-168975000D02*
X97520000Y-168595000D01*
D48*
X115870499Y-146340499D02*
X115870499Y-160619501D01*
X115870499Y-160619501D02*
X115860000Y-160630000D01*
X107505000Y-108032950D02*
X107505000Y-137975000D01*
D45*
X98445000Y-168975000D02*
X97900000Y-168975000D01*
D50*
X72845000Y-105105000D02*
X83015000Y-105105000D01*
X83015000Y-105105000D02*
X83065000Y-105155000D01*
D48*
X136200000Y-109860000D02*
X136200000Y-112410000D01*
X124440000Y-140070000D02*
X124440000Y-150440000D01*
X136045000Y-93015000D02*
X136045000Y-109705000D01*
X136045000Y-109705000D02*
X136200000Y-109860000D01*
X136875000Y-90118502D02*
X136875000Y-92185000D01*
X136875000Y-92185000D02*
X136045000Y-93015000D01*
X136200000Y-112410000D02*
X135700000Y-112910000D01*
X135700000Y-112910000D02*
X135670000Y-112910000D01*
X124440000Y-150440000D02*
X119715000Y-155165000D01*
X123810000Y-140920000D02*
X123810000Y-148770000D01*
X135275000Y-89705000D02*
X135275000Y-91309308D01*
X135625000Y-89355000D02*
X135275000Y-89705000D01*
X119000000Y-151150000D02*
X117470000Y-152680000D01*
X122189177Y-140068843D02*
X122958843Y-140068843D01*
X117470000Y-152680000D02*
X117470000Y-155880000D01*
X135114501Y-91469807D02*
X135114501Y-111155499D01*
X117470000Y-155880000D02*
X119295000Y-157705000D01*
X123810000Y-148770000D02*
X121430000Y-151150000D01*
X135114501Y-111155499D02*
X135110000Y-111160000D01*
X121430000Y-151150000D02*
X119000000Y-151150000D01*
X119295000Y-157705000D02*
X119715000Y-157705000D01*
X122958843Y-140068843D02*
X123810000Y-140920000D01*
X135275000Y-91309308D02*
X135114501Y-91469807D01*
X117060000Y-157320000D02*
X119715000Y-159975000D01*
X118950000Y-148660000D02*
X117060000Y-150550000D01*
X135465000Y-92675000D02*
X135465000Y-110855000D01*
X117060000Y-150550000D02*
X117060000Y-157320000D01*
X123300000Y-147250000D02*
X121880000Y-148670000D01*
X135465000Y-110855000D02*
X135580000Y-110970000D01*
X135698310Y-89899590D02*
X135895000Y-90096280D01*
X135580000Y-110970000D02*
X135580000Y-111370000D01*
X135895000Y-90096280D02*
X135895000Y-92245000D01*
X121710000Y-138920000D02*
X121710000Y-140190000D01*
X123300000Y-141780000D02*
X123300000Y-147250000D01*
X135580000Y-111370000D02*
X135180000Y-111770000D01*
X121710000Y-140190000D02*
X123300000Y-141780000D01*
X118960000Y-148670000D02*
X118950000Y-148660000D01*
X135180000Y-111770000D02*
X135130000Y-111770000D01*
X135895000Y-92245000D02*
X135465000Y-92675000D01*
X121880000Y-148670000D02*
X118960000Y-148670000D01*
X119715000Y-159975000D02*
X119715000Y-160245000D01*
X135775000Y-96755000D02*
X135785000Y-96765000D01*
X121180000Y-161320000D02*
X119715000Y-162785000D01*
X120810000Y-156390000D02*
X121360000Y-156940000D01*
X123650000Y-140070000D02*
X124090000Y-140510000D01*
X136284975Y-92255025D02*
X135775000Y-92765000D01*
X135785000Y-96765000D02*
X135785000Y-110605000D01*
X120450000Y-153820000D02*
X118850000Y-153820000D01*
X136284975Y-89884975D02*
X136284975Y-92255025D01*
X135785000Y-110605000D02*
X135900000Y-110720000D01*
X118850000Y-153820000D02*
X118310000Y-154360000D01*
X120610000Y-158910000D02*
X121180000Y-159480000D01*
X135900000Y-111830000D02*
X135350000Y-112380000D01*
X118310000Y-155740000D02*
X118960000Y-156390000D01*
X121180000Y-159480000D02*
X121180000Y-161320000D01*
X118310000Y-154360000D02*
X118310000Y-155740000D01*
X124090000Y-140510000D02*
X124090000Y-150180000D01*
X135900000Y-110720000D02*
X135900000Y-111830000D01*
X121360000Y-156940000D02*
X121360000Y-158160000D01*
X135775000Y-92765000D02*
X135775000Y-96755000D01*
X118960000Y-156390000D02*
X120810000Y-156390000D01*
X121360000Y-158160000D02*
X120610000Y-158910000D01*
X124090000Y-150180000D02*
X120450000Y-153820000D01*
X137980000Y-178095000D02*
X137980000Y-177325000D01*
X136800053Y-171192444D02*
X136800053Y-171392444D01*
X137980000Y-177299036D02*
X137400482Y-176719518D01*
X137990000Y-173392444D02*
X137990000Y-175676888D01*
X139179947Y-172192444D02*
X139179947Y-172392444D01*
X137980000Y-178507501D02*
X137980000Y-178095000D01*
X137610000Y-167602444D02*
X138589937Y-167602444D01*
X135875000Y-182337500D02*
X138040000Y-180172500D01*
X137990000Y-154741298D02*
X137990000Y-155392444D01*
X137990000Y-173192444D02*
X137990000Y-173392444D01*
X137610000Y-163602444D02*
X138589937Y-163602444D01*
X139179937Y-156192444D02*
X139179937Y-156392444D01*
X138589937Y-166982444D02*
X137990000Y-166982444D01*
X137990000Y-166982444D02*
X137010063Y-166982444D01*
X137610000Y-165602444D02*
X138589937Y-165602444D01*
X137990000Y-158982444D02*
X137010063Y-158982444D01*
X137010063Y-159602444D02*
X137610000Y-159602444D01*
X137010063Y-161602444D02*
X137610000Y-161602444D01*
X138040000Y-180172500D02*
X138040000Y-178567501D01*
X138200000Y-156982444D02*
X137010063Y-156982444D01*
X137010063Y-157602444D02*
X137610000Y-157602444D01*
X139179937Y-160192444D02*
X139179937Y-160392444D01*
X136800063Y-163192444D02*
X136800063Y-163392444D01*
X138589937Y-162982444D02*
X137990000Y-162982444D01*
X137990000Y-176171298D02*
X138184351Y-176365649D01*
X137610000Y-157602444D02*
X138589937Y-157602444D01*
X137010053Y-171602444D02*
X137610000Y-171602444D01*
X136800063Y-165192444D02*
X136800063Y-165392444D01*
X137610000Y-159602444D02*
X138589937Y-159602444D01*
X137610000Y-171602444D02*
X138589947Y-171602444D01*
X138200000Y-155602444D02*
X138589937Y-155602444D01*
X137010063Y-167602444D02*
X137610000Y-167602444D01*
X137010063Y-163602444D02*
X137610000Y-163602444D01*
X137505000Y-152810000D02*
X136920000Y-153395000D01*
X139179937Y-168192444D02*
X139179937Y-168392444D01*
X137990000Y-168982444D02*
X137010063Y-168982444D01*
X137610000Y-161602444D02*
X138589937Y-161602444D01*
X139179937Y-158192444D02*
X139179937Y-158392444D01*
X138589937Y-158982444D02*
X137990000Y-158982444D01*
X137990000Y-162982444D02*
X137010063Y-162982444D01*
X137010063Y-165602444D02*
X137610000Y-165602444D01*
X137990000Y-170982444D02*
X137010053Y-170982444D01*
X138040000Y-178567501D02*
X137980000Y-178507501D01*
X139179947Y-170192444D02*
X139179947Y-170392444D01*
X136800063Y-159192444D02*
X136800063Y-159392444D01*
X139179937Y-164192444D02*
X139179937Y-164392444D01*
X137990000Y-175676888D02*
X137990000Y-176171298D01*
X137990000Y-164982444D02*
X137010063Y-164982444D01*
X137610000Y-169602444D02*
X138589947Y-169602444D01*
X138589937Y-164982444D02*
X137990000Y-164982444D01*
X138589947Y-170982444D02*
X137990000Y-170982444D01*
X136920000Y-153671298D02*
X137990000Y-154741298D01*
X137980000Y-177325000D02*
X137980000Y-177299036D01*
X139179937Y-166192444D02*
X139179937Y-166392444D01*
X138589937Y-168982444D02*
X137990000Y-168982444D01*
X136920000Y-153395000D02*
X136920000Y-153671298D01*
X136800063Y-167192444D02*
X136800063Y-167392444D01*
X137010063Y-169602444D02*
X137610000Y-169602444D01*
X139179937Y-162192444D02*
X139179937Y-162392444D01*
X138589937Y-160982444D02*
X137990000Y-160982444D01*
X138589947Y-172982444D02*
X138200000Y-172982444D01*
X136800063Y-169192444D02*
X136800063Y-169392444D01*
X136800063Y-157192444D02*
X136800063Y-157392444D01*
X136800063Y-161192444D02*
X136800063Y-161392444D01*
X137990000Y-160982444D02*
X137010063Y-160982444D01*
X138589937Y-156982444D02*
X138200000Y-156982444D01*
X136800063Y-161392444D02*
G75*
G03*
X137010063Y-161602437I210037J44D01*
G01*
X139179937Y-166392444D02*
G75*
G02*
X138589937Y-166982437I-590037J44D01*
G01*
X136800063Y-159392444D02*
G75*
G03*
X137010063Y-159602437I210037J44D01*
G01*
X137010063Y-166982444D02*
G75*
G03*
X136800144Y-167192444I37J-209956D01*
G01*
X138589947Y-171602444D02*
G75*
G02*
X139179856Y-172192444I-47J-589956D01*
G01*
X136800063Y-157392444D02*
G75*
G03*
X137010063Y-157602437I210037J44D01*
G01*
X137990000Y-155392444D02*
G75*
G03*
X138200000Y-155602400I210000J44D01*
G01*
X137010063Y-162982444D02*
G75*
G03*
X136800144Y-163192444I37J-209956D01*
G01*
X138589937Y-167602444D02*
G75*
G02*
X139179856Y-168192444I-37J-589956D01*
G01*
X139179937Y-156392444D02*
G75*
G02*
X138589937Y-156982437I-590037J44D01*
G01*
X136800063Y-165392444D02*
G75*
G03*
X137010063Y-165602437I210037J44D01*
G01*
X136800063Y-167392444D02*
G75*
G03*
X137010063Y-167602437I210037J44D01*
G01*
X138589937Y-161602444D02*
G75*
G02*
X139179856Y-162192444I-37J-589956D01*
G01*
X136800063Y-169392444D02*
G75*
G03*
X137010063Y-169602437I210037J44D01*
G01*
X138589937Y-159602444D02*
G75*
G02*
X139179856Y-160192444I-37J-589956D01*
G01*
X137010063Y-158982444D02*
G75*
G03*
X136800144Y-159192444I37J-209956D01*
G01*
X138589947Y-169602444D02*
G75*
G02*
X139179856Y-170192444I-47J-589956D01*
G01*
X139179937Y-160392444D02*
G75*
G02*
X138589937Y-160982437I-590037J44D01*
G01*
X136800053Y-171392444D02*
G75*
G03*
X137010053Y-171602447I210047J44D01*
G01*
X139179947Y-172392444D02*
G75*
G02*
X138589947Y-172982447I-590047J44D01*
G01*
X138589937Y-157602444D02*
G75*
G02*
X139179856Y-158192444I-37J-589956D01*
G01*
X137010063Y-156982444D02*
G75*
G03*
X136800144Y-157192444I37J-209956D01*
G01*
X139179937Y-158392444D02*
G75*
G02*
X138589937Y-158982437I-590037J44D01*
G01*
X139179937Y-164392444D02*
G75*
G02*
X138589937Y-164982437I-590037J44D01*
G01*
X137010063Y-160982444D02*
G75*
G03*
X136800144Y-161192444I37J-209956D01*
G01*
X138589937Y-165602444D02*
G75*
G02*
X139179856Y-166192444I-37J-589956D01*
G01*
X138200000Y-172982444D02*
G75*
G03*
X137990044Y-173192444I0J-209956D01*
G01*
X137010063Y-164982444D02*
G75*
G03*
X136800144Y-165192444I37J-209956D01*
G01*
X139179937Y-168392444D02*
G75*
G02*
X138589937Y-168982437I-590037J44D01*
G01*
X137010063Y-168982444D02*
G75*
G03*
X136800144Y-169192444I37J-209956D01*
G01*
X138589937Y-155602444D02*
G75*
G02*
X139179856Y-156192444I-37J-589956D01*
G01*
X136800063Y-163392444D02*
G75*
G03*
X137010063Y-163602437I210037J44D01*
G01*
X138589937Y-163602444D02*
G75*
G02*
X139179856Y-164192444I-37J-589956D01*
G01*
X139179937Y-162392444D02*
G75*
G02*
X138589937Y-162982437I-590037J44D01*
G01*
X139179947Y-170392444D02*
G75*
G02*
X138589947Y-170982447I-590047J44D01*
G01*
X137010053Y-170982444D02*
G75*
G03*
X136800144Y-171192444I47J-209956D01*
G01*
X138799937Y-156192444D02*
X138799937Y-156392444D01*
X137375000Y-181374902D02*
X138420000Y-180329902D01*
X138799937Y-166192444D02*
X138799937Y-166392444D01*
X138116298Y-176835000D02*
X138395000Y-176835000D01*
X137010063Y-167982444D02*
X137610000Y-167982444D01*
X138589937Y-158602444D02*
X137990000Y-158602444D01*
X137990000Y-164602444D02*
X137010063Y-164602444D01*
X138799947Y-172192444D02*
X138799947Y-172392444D01*
X138799937Y-160192444D02*
X138799937Y-160392444D01*
X136420063Y-167192444D02*
X136420063Y-167392444D01*
X137010063Y-169982444D02*
X137610000Y-169982444D01*
X137010063Y-159982444D02*
X137610000Y-159982444D01*
X137610000Y-173392444D02*
X137610000Y-175676888D01*
X138420000Y-180329902D02*
X138420000Y-178567501D01*
X137610000Y-176328702D02*
X138116298Y-176835000D01*
X136420063Y-161192444D02*
X136420063Y-161392444D01*
X137990000Y-158602444D02*
X137010063Y-158602444D01*
X136420063Y-169192444D02*
X136420063Y-169392444D01*
X137610000Y-171982444D02*
X138589947Y-171982444D01*
X137990000Y-160602444D02*
X137010063Y-160602444D01*
X136540000Y-153828702D02*
X137610000Y-154898702D01*
X137610000Y-159982444D02*
X138589937Y-159982444D01*
X137990000Y-170602444D02*
X137010053Y-170602444D01*
X138589947Y-170602444D02*
X137990000Y-170602444D01*
X137010063Y-163982444D02*
X137610000Y-163982444D01*
X137375000Y-182337500D02*
X137375000Y-181374902D01*
X136420063Y-163192444D02*
X136420063Y-163392444D01*
X137610000Y-157982444D02*
X138589937Y-157982444D01*
X138200000Y-155982444D02*
X138589937Y-155982444D01*
X138589937Y-162602444D02*
X137990000Y-162602444D01*
X138395000Y-176835000D02*
X138480000Y-176920000D01*
X138589937Y-160602444D02*
X137990000Y-160602444D01*
X138589937Y-164602444D02*
X137990000Y-164602444D01*
X136420063Y-159192444D02*
X136420063Y-159392444D01*
X137010053Y-171982444D02*
X137610000Y-171982444D01*
X137610000Y-169982444D02*
X138589947Y-169982444D01*
X138799937Y-158192444D02*
X138799937Y-158392444D01*
X136420053Y-171192444D02*
X136420053Y-171392444D01*
X137610000Y-165982444D02*
X138589937Y-165982444D01*
X138589937Y-156602444D02*
X138200000Y-156602444D01*
X138799937Y-162192444D02*
X138799937Y-162392444D01*
X138480000Y-176920000D02*
X138480000Y-177325000D01*
X135955000Y-152810000D02*
X136540000Y-153395000D01*
X137610000Y-154898702D02*
X137610000Y-155392444D01*
X137010063Y-157982444D02*
X137610000Y-157982444D01*
X138589937Y-168602444D02*
X137990000Y-168602444D01*
X138589947Y-172602444D02*
X138200000Y-172602444D01*
X137990000Y-166602444D02*
X137010063Y-166602444D01*
X137610000Y-161982444D02*
X138589937Y-161982444D01*
X137610000Y-167982444D02*
X138589937Y-167982444D01*
X138799947Y-170192444D02*
X138799947Y-170392444D01*
X136420063Y-157192444D02*
X136420063Y-157392444D01*
X137990000Y-162602444D02*
X137010063Y-162602444D01*
X138480000Y-177325000D02*
X138480000Y-178095000D01*
X138589937Y-166602444D02*
X137990000Y-166602444D01*
X137990000Y-168602444D02*
X137010063Y-168602444D01*
X138799937Y-168192444D02*
X138799937Y-168392444D01*
X136540000Y-153395000D02*
X136540000Y-153828702D01*
X138480000Y-178507501D02*
X138480000Y-178095000D01*
X136420063Y-165192444D02*
X136420063Y-165392444D01*
X137010063Y-161982444D02*
X137610000Y-161982444D01*
X137010063Y-165982444D02*
X137610000Y-165982444D01*
X137610000Y-175676888D02*
X137610000Y-176328702D01*
X138200000Y-156602444D02*
X137010063Y-156602444D01*
X138420000Y-178567501D02*
X138480000Y-178507501D01*
X137610000Y-173192444D02*
X137610000Y-173392444D01*
X137610000Y-163982444D02*
X138589937Y-163982444D01*
X138799937Y-164192444D02*
X138799937Y-164392444D01*
X138799947Y-170392444D02*
G75*
G02*
X138589947Y-170602447I-210047J44D01*
G01*
X137010063Y-158602444D02*
G75*
G03*
X136420144Y-159192444I37J-589956D01*
G01*
X138799937Y-160392444D02*
G75*
G02*
X138589937Y-160602437I-210037J44D01*
G01*
X137010063Y-168602444D02*
G75*
G03*
X136420144Y-169192444I37J-589956D01*
G01*
X138799937Y-156392444D02*
G75*
G02*
X138589937Y-156602437I-210037J44D01*
G01*
X137010063Y-164602444D02*
G75*
G03*
X136420144Y-165192444I37J-589956D01*
G01*
X138589937Y-163982444D02*
G75*
G02*
X138799856Y-164192444I-37J-209956D01*
G01*
X138589937Y-167982444D02*
G75*
G02*
X138799856Y-168192444I-37J-209956D01*
G01*
X137610000Y-155392444D02*
G75*
G03*
X138200000Y-155982400I590000J44D01*
G01*
X138799937Y-162392444D02*
G75*
G02*
X138589937Y-162602437I-210037J44D01*
G01*
X138589937Y-157982444D02*
G75*
G02*
X138799856Y-158192444I-37J-209956D01*
G01*
X137010063Y-160602444D02*
G75*
G03*
X136420144Y-161192444I37J-589956D01*
G01*
X137010063Y-166602444D02*
G75*
G03*
X136420144Y-167192444I37J-589956D01*
G01*
X136420063Y-159392444D02*
G75*
G03*
X137010063Y-159982437I590037J44D01*
G01*
X136420053Y-171392444D02*
G75*
G03*
X137010053Y-171982447I590047J44D01*
G01*
X138589937Y-155982444D02*
G75*
G02*
X138799856Y-156192444I-37J-209956D01*
G01*
X137010053Y-170602444D02*
G75*
G03*
X136420144Y-171192444I47J-589956D01*
G01*
X136420063Y-161392444D02*
G75*
G03*
X137010063Y-161982437I590037J44D01*
G01*
X136420063Y-169392444D02*
G75*
G03*
X137010063Y-169982437I590037J44D01*
G01*
X136420063Y-163392444D02*
G75*
G03*
X137010063Y-163982437I590037J44D01*
G01*
X137010063Y-162602444D02*
G75*
G03*
X136420144Y-163192444I37J-589956D01*
G01*
X138589937Y-161982444D02*
G75*
G02*
X138799856Y-162192444I-37J-209956D01*
G01*
X138589947Y-171982444D02*
G75*
G02*
X138799856Y-172192444I-47J-209956D01*
G01*
X138799937Y-166392444D02*
G75*
G02*
X138589937Y-166602437I-210037J44D01*
G01*
X138799947Y-172392444D02*
G75*
G02*
X138589947Y-172602447I-210047J44D01*
G01*
X138589947Y-169982444D02*
G75*
G02*
X138799856Y-170192444I-47J-209956D01*
G01*
X136420063Y-165392444D02*
G75*
G03*
X137010063Y-165982437I590037J44D01*
G01*
X136420063Y-157392444D02*
G75*
G03*
X137010063Y-157982437I590037J44D01*
G01*
X138200000Y-172602444D02*
G75*
G03*
X137610044Y-173192444I0J-589956D01*
G01*
X138799937Y-168392444D02*
G75*
G02*
X138589937Y-168602437I-210037J44D01*
G01*
X137010063Y-156602444D02*
G75*
G03*
X136420144Y-157192444I37J-589956D01*
G01*
X136420063Y-167392444D02*
G75*
G03*
X137010063Y-167982437I590037J44D01*
G01*
X138589937Y-159982444D02*
G75*
G02*
X138799856Y-160192444I-37J-209956D01*
G01*
X138799937Y-158392444D02*
G75*
G02*
X138589937Y-158602437I-210037J44D01*
G01*
X138799937Y-164392444D02*
G75*
G02*
X138589937Y-164602437I-210037J44D01*
G01*
X138589937Y-165982444D02*
G75*
G02*
X138799856Y-166192444I-37J-209956D01*
G01*
X140170000Y-175908702D02*
X143884441Y-172194262D01*
X142578000Y-153674262D02*
X142578000Y-153537000D01*
X139875000Y-181374902D02*
X139540000Y-181039902D01*
X143884441Y-172194262D02*
X144018000Y-172060703D01*
X144018000Y-155114262D02*
X142578000Y-153674262D01*
X144018000Y-172060703D02*
X144018000Y-155114262D01*
X139480000Y-178507501D02*
X139480000Y-178095000D01*
X139875000Y-182337500D02*
X139875000Y-181374902D01*
X142578000Y-153537000D02*
X143305000Y-152810000D01*
X139480000Y-176403117D02*
X139480000Y-177325000D01*
X139540000Y-181039902D02*
X139540000Y-178567501D01*
X139480000Y-178095000D02*
X139480000Y-177325000D01*
X139195500Y-176118617D02*
X139480000Y-176403117D01*
X139540000Y-178567501D02*
X139480000Y-178507501D01*
X140170000Y-176118617D02*
X140170000Y-175908702D01*
X139745000Y-176294658D02*
X139980000Y-176529658D01*
X143790000Y-155208702D02*
X143790000Y-171966262D01*
X142350000Y-153385000D02*
X142350000Y-153768702D01*
X139980000Y-178507501D02*
X139980000Y-178095000D01*
X139745000Y-175992073D02*
X139745000Y-176294658D01*
X142350000Y-153768702D02*
X143790000Y-155208702D01*
X139980000Y-176529658D02*
X139980000Y-177325000D01*
X140027645Y-175728617D02*
X140008456Y-175728617D01*
X139980000Y-178095000D02*
X139980000Y-177325000D01*
X139920000Y-180882500D02*
X139920000Y-178567501D01*
X140008456Y-175728617D02*
X139745000Y-175992073D01*
X141775000Y-152810000D02*
X142350000Y-153385000D01*
X141375000Y-182337500D02*
X139920000Y-180882500D01*
X143790000Y-171966262D02*
X140027645Y-175728617D01*
X139920000Y-178567501D02*
X139980000Y-178507501D01*
X132675000Y-152830000D02*
X134565000Y-154720000D01*
X133982989Y-166855944D02*
X134565000Y-166855944D01*
X135481990Y-161520944D02*
X134900000Y-161520944D01*
X135481990Y-159520944D02*
X135132500Y-159520944D01*
X133415510Y-172088444D02*
X133415510Y-172288444D01*
X133983010Y-170855944D02*
X134565000Y-170855944D01*
X133415510Y-170088444D02*
X133415510Y-170288444D01*
X135714511Y-167088444D02*
X135714511Y-167288444D01*
X134900000Y-165520944D02*
X133982989Y-165520944D01*
X133415510Y-168088444D02*
X133415510Y-168288444D01*
X133415489Y-164088444D02*
X133415489Y-164288444D01*
X134565000Y-164855944D02*
X135481990Y-164855944D01*
X135481990Y-163520944D02*
X134900000Y-163520944D01*
X134565000Y-175088444D02*
X134565000Y-175288444D01*
X134900000Y-167520944D02*
X133983010Y-167520944D01*
X135482011Y-169520944D02*
X134900000Y-169520944D01*
X135482011Y-173520944D02*
X134900000Y-173520944D01*
X135714511Y-171088444D02*
X135714511Y-171288444D01*
X134565000Y-160855944D02*
X135481990Y-160855944D01*
X135714490Y-165088444D02*
X135714490Y-165288444D01*
X134900000Y-169520944D02*
X133983010Y-169520944D01*
X134565000Y-176747111D02*
X134565000Y-179150000D01*
X135132500Y-158855944D02*
X135481990Y-158855944D01*
X135714490Y-161088444D02*
X135714490Y-161288444D01*
X133983010Y-168855944D02*
X134565000Y-168855944D01*
X135482011Y-171520944D02*
X134900000Y-171520944D01*
X133983010Y-162855944D02*
X134565000Y-162855944D01*
X134900000Y-163520944D02*
X133982989Y-163520944D01*
X133415510Y-174088444D02*
X133415510Y-174288444D01*
X133983010Y-174855944D02*
X134332500Y-174855944D01*
X135714490Y-159088444D02*
X135714490Y-159288444D01*
X133415510Y-160088444D02*
X133415510Y-160288444D01*
X134565000Y-175288444D02*
X134565000Y-176747111D01*
X135482011Y-167520944D02*
X134900000Y-167520944D01*
X135132500Y-156855944D02*
X135481990Y-156855944D01*
X134900000Y-171520944D02*
X133983010Y-171520944D01*
X135714511Y-169088444D02*
X135714511Y-169288444D01*
X135481990Y-157520944D02*
X135132500Y-157520944D01*
X133415510Y-162088444D02*
X133415510Y-162288444D01*
X134900000Y-161520944D02*
X133983010Y-161520944D01*
X135714511Y-173088444D02*
X135714511Y-173288444D01*
X134565000Y-172855944D02*
X135482011Y-172855944D01*
X134565000Y-170855944D02*
X135482011Y-170855944D01*
X135132500Y-159520944D02*
X133983010Y-159520944D01*
X134565000Y-179150000D02*
X134325000Y-179390000D01*
X134565000Y-166855944D02*
X135482011Y-166855944D01*
X133983010Y-160855944D02*
X134565000Y-160855944D01*
X133982989Y-164855944D02*
X134565000Y-164855944D01*
X135481990Y-165520944D02*
X134900000Y-165520944D01*
X134565000Y-154720000D02*
X134565000Y-156288444D01*
X133983010Y-172855944D02*
X134565000Y-172855944D01*
X134900000Y-173520944D02*
X133983010Y-173520944D01*
X134565000Y-162855944D02*
X135481990Y-162855944D01*
X135714490Y-163088444D02*
X135714490Y-163288444D01*
X134565000Y-168855944D02*
X135482011Y-168855944D01*
X134565000Y-158088444D02*
X134565000Y-158288444D01*
X135714490Y-157088444D02*
X135714490Y-157288444D01*
X133415489Y-166088444D02*
X133415489Y-166288444D01*
X133415510Y-172288444D02*
G75*
G03*
X133983010Y-172855890I567490J44D01*
G01*
X133982989Y-165520944D02*
G75*
G03*
X133415544Y-166088444I11J-567456D01*
G01*
X133415510Y-168288444D02*
G75*
G03*
X133983010Y-168855890I567490J44D01*
G01*
X135482011Y-166855944D02*
G75*
G02*
X135714456Y-167088444I-11J-232456D01*
G01*
X135482011Y-168855944D02*
G75*
G02*
X135714456Y-169088444I-11J-232456D01*
G01*
X134565000Y-158288444D02*
G75*
G03*
X135132500Y-158855900I567500J44D01*
G01*
X134332500Y-174855944D02*
G75*
G02*
X134564956Y-175088444I0J-232456D01*
G01*
X135481990Y-162855944D02*
G75*
G02*
X135714456Y-163088444I10J-232456D01*
G01*
X133415489Y-164288444D02*
G75*
G03*
X133982989Y-164855911I567511J44D01*
G01*
X135481990Y-156855944D02*
G75*
G02*
X135714456Y-157088444I10J-232456D01*
G01*
X135482011Y-170855944D02*
G75*
G02*
X135714456Y-171088444I-11J-232456D01*
G01*
X135714511Y-173288444D02*
G75*
G02*
X135482011Y-173520911I-232511J44D01*
G01*
X133983010Y-161520944D02*
G75*
G03*
X133415544Y-162088444I-10J-567456D01*
G01*
X133983010Y-171520944D02*
G75*
G03*
X133415544Y-172088444I-10J-567456D01*
G01*
X133983010Y-169520944D02*
G75*
G03*
X133415544Y-170088444I-10J-567456D01*
G01*
X133415510Y-170288444D02*
G75*
G03*
X133983010Y-170855890I567490J44D01*
G01*
X135481990Y-160855944D02*
G75*
G02*
X135714456Y-161088444I10J-232456D01*
G01*
X134565000Y-156288444D02*
G75*
G03*
X135132500Y-156855900I567500J44D01*
G01*
X135132500Y-157520944D02*
G75*
G03*
X134565044Y-158088444I0J-567456D01*
G01*
X135714511Y-169288444D02*
G75*
G02*
X135482011Y-169520911I-232511J44D01*
G01*
X135481990Y-158855944D02*
G75*
G02*
X135714456Y-159088444I10J-232456D01*
G01*
X135714490Y-157288444D02*
G75*
G02*
X135481990Y-157520890I-232490J44D01*
G01*
X133415510Y-174288444D02*
G75*
G03*
X133983010Y-174855890I567490J44D01*
G01*
X135714490Y-159288444D02*
G75*
G02*
X135481990Y-159520890I-232490J44D01*
G01*
X133415489Y-166288444D02*
G75*
G03*
X133982989Y-166855911I567511J44D01*
G01*
X133982989Y-163520944D02*
G75*
G03*
X133415544Y-164088444I11J-567456D01*
G01*
X133983010Y-159520944D02*
G75*
G03*
X133415544Y-160088444I-10J-567456D01*
G01*
X133983010Y-173520944D02*
G75*
G03*
X133415544Y-174088444I-10J-567456D01*
G01*
X135482011Y-172855944D02*
G75*
G02*
X135714456Y-173088444I-11J-232456D01*
G01*
X135714490Y-163288444D02*
G75*
G02*
X135481990Y-163520890I-232490J44D01*
G01*
X135481990Y-164855944D02*
G75*
G02*
X135714456Y-165088444I10J-232456D01*
G01*
X135714490Y-165288444D02*
G75*
G02*
X135481990Y-165520890I-232490J44D01*
G01*
X133415510Y-162288444D02*
G75*
G03*
X133983010Y-162855890I567490J44D01*
G01*
X133983010Y-167520944D02*
G75*
G03*
X133415544Y-168088444I-10J-567456D01*
G01*
X135714511Y-171288444D02*
G75*
G02*
X135482011Y-171520911I-232511J44D01*
G01*
X135714490Y-161288444D02*
G75*
G02*
X135481990Y-161520890I-232490J44D01*
G01*
X133415510Y-160288444D02*
G75*
G03*
X133983010Y-160855890I567490J44D01*
G01*
X135714511Y-167288444D02*
G75*
G02*
X135482011Y-167520911I-232511J44D01*
G01*
X133750510Y-160088444D02*
X133750510Y-160288444D01*
X134565000Y-164520944D02*
X135481990Y-164520944D01*
X135482011Y-173855944D02*
X134900000Y-173855944D01*
X134565000Y-166520944D02*
X135482011Y-166520944D01*
X134900000Y-161855944D02*
X133983010Y-161855944D01*
X134900000Y-163855944D02*
X133982989Y-163855944D01*
X136049490Y-165088444D02*
X136049490Y-165288444D01*
X133750489Y-164088444D02*
X133750489Y-164288444D01*
X133982989Y-166520944D02*
X134565000Y-166520944D01*
X133983010Y-168520944D02*
X134565000Y-168520944D01*
X136049490Y-157088444D02*
X136049490Y-157288444D01*
X135481990Y-157855944D02*
X135132500Y-157855944D01*
X134900000Y-165855944D02*
X133982989Y-165855944D01*
X134900000Y-154517598D02*
X134900000Y-156288444D01*
X136049490Y-161088444D02*
X136049490Y-161288444D01*
X135482011Y-169855944D02*
X134900000Y-169855944D01*
X134900000Y-175088444D02*
X134900000Y-175288444D01*
X133750510Y-162088444D02*
X133750510Y-162288444D01*
X134900000Y-176747111D02*
X134900000Y-177548702D01*
X133982989Y-164520944D02*
X134565000Y-164520944D01*
X134900000Y-173855944D02*
X133983010Y-173855944D01*
X135132500Y-156520944D02*
X135481990Y-156520944D01*
X134900000Y-177548702D02*
X134850000Y-177598702D01*
X135132500Y-158520944D02*
X135481990Y-158520944D01*
X134900000Y-169855944D02*
X133983010Y-169855944D01*
X134565000Y-172520944D02*
X135482011Y-172520944D01*
X135481990Y-165855944D02*
X134900000Y-165855944D01*
X133750510Y-168088444D02*
X133750510Y-168288444D01*
X135481990Y-161855944D02*
X134900000Y-161855944D01*
X134215000Y-152825000D02*
X134215000Y-153832598D01*
X134565000Y-170520944D02*
X135482011Y-170520944D01*
X135481990Y-163855944D02*
X134900000Y-163855944D01*
X135482011Y-167855944D02*
X134900000Y-167855944D01*
X134565000Y-160520944D02*
X135481990Y-160520944D01*
X136049511Y-167088444D02*
X136049511Y-167288444D01*
X133983010Y-174520944D02*
X134332500Y-174520944D01*
X135481990Y-159855944D02*
X135132500Y-159855944D01*
X133983010Y-160520944D02*
X134565000Y-160520944D01*
X136049490Y-163088444D02*
X136049490Y-163288444D01*
X133750510Y-170088444D02*
X133750510Y-170288444D01*
X134900000Y-171855944D02*
X133983010Y-171855944D01*
X133983010Y-170520944D02*
X134565000Y-170520944D01*
X136049511Y-169088444D02*
X136049511Y-169288444D01*
X133750489Y-166088444D02*
X133750489Y-166288444D01*
X134850000Y-177598702D02*
X134850000Y-179245000D01*
X135482011Y-171855944D02*
X134900000Y-171855944D01*
X134565000Y-168520944D02*
X135482011Y-168520944D01*
X133983010Y-162520944D02*
X134565000Y-162520944D01*
X134900000Y-175288444D02*
X134900000Y-176747111D01*
X134565000Y-162520944D02*
X135481990Y-162520944D01*
X133750510Y-172088444D02*
X133750510Y-172288444D01*
X136049490Y-159088444D02*
X136049490Y-159288444D01*
X134900000Y-158088444D02*
X134900000Y-158288444D01*
X133983010Y-172520944D02*
X134565000Y-172520944D01*
X134850000Y-179245000D02*
X134995000Y-179390000D01*
X134215000Y-153832598D02*
X134900000Y-154517598D01*
X135132500Y-159855944D02*
X133983010Y-159855944D01*
X134900000Y-167855944D02*
X133983010Y-167855944D01*
X133750510Y-174088444D02*
X133750510Y-174288444D01*
X136049511Y-173088444D02*
X136049511Y-173288444D01*
X136049511Y-171088444D02*
X136049511Y-171288444D01*
X135481990Y-158520944D02*
G75*
G02*
X136049456Y-159088444I10J-567456D01*
G01*
X133983010Y-173855944D02*
G75*
G03*
X133750544Y-174088444I-10J-232456D01*
G01*
X136049511Y-167288444D02*
G75*
G02*
X135482011Y-167855911I-567511J44D01*
G01*
X135482011Y-170520944D02*
G75*
G02*
X136049456Y-171088444I-11J-567456D01*
G01*
X135481990Y-160520944D02*
G75*
G02*
X136049456Y-161088444I10J-567456D01*
G01*
X133983010Y-171855944D02*
G75*
G03*
X133750544Y-172088444I-10J-232456D01*
G01*
X133750510Y-168288444D02*
G75*
G03*
X133983010Y-168520890I232490J44D01*
G01*
X134900000Y-156288444D02*
G75*
G03*
X135132500Y-156520900I232500J44D01*
G01*
X133750510Y-170288444D02*
G75*
G03*
X133983010Y-170520890I232490J44D01*
G01*
X135481990Y-156520944D02*
G75*
G02*
X136049456Y-157088444I10J-567456D01*
G01*
X135482011Y-168520944D02*
G75*
G02*
X136049456Y-169088444I-11J-567456D01*
G01*
X133983010Y-161855944D02*
G75*
G03*
X133750544Y-162088444I-10J-232456D01*
G01*
X135481990Y-162520944D02*
G75*
G02*
X136049456Y-163088444I10J-567456D01*
G01*
X135132500Y-157855944D02*
G75*
G03*
X134900044Y-158088444I0J-232456D01*
G01*
X136049490Y-163288444D02*
G75*
G02*
X135481990Y-163855890I-567490J44D01*
G01*
X133983010Y-159855944D02*
G75*
G03*
X133750544Y-160088444I-10J-232456D01*
G01*
X136049490Y-157288444D02*
G75*
G02*
X135481990Y-157855890I-567490J44D01*
G01*
X136049511Y-171288444D02*
G75*
G02*
X135482011Y-171855911I-567511J44D01*
G01*
X136049490Y-161288444D02*
G75*
G02*
X135481990Y-161855890I-567490J44D01*
G01*
X133982989Y-163855944D02*
G75*
G03*
X133750544Y-164088444I11J-232456D01*
G01*
X133750510Y-172288444D02*
G75*
G03*
X133983010Y-172520890I232490J44D01*
G01*
X135482011Y-166520944D02*
G75*
G02*
X136049456Y-167088444I-11J-567456D01*
G01*
X133750489Y-164288444D02*
G75*
G03*
X133982989Y-164520911I232511J44D01*
G01*
X133982989Y-165855944D02*
G75*
G03*
X133750544Y-166088444I11J-232456D01*
G01*
X134900000Y-158288444D02*
G75*
G03*
X135132500Y-158520900I232500J44D01*
G01*
X136049490Y-159288444D02*
G75*
G02*
X135481990Y-159855890I-567490J44D01*
G01*
X133750510Y-162288444D02*
G75*
G03*
X133983010Y-162520890I232490J44D01*
G01*
X133983010Y-167855944D02*
G75*
G03*
X133750544Y-168088444I-10J-232456D01*
G01*
X133750510Y-160288444D02*
G75*
G03*
X133983010Y-160520890I232490J44D01*
G01*
X136049511Y-169288444D02*
G75*
G02*
X135482011Y-169855911I-567511J44D01*
G01*
X136049490Y-165288444D02*
G75*
G02*
X135481990Y-165855890I-567490J44D01*
G01*
X133750510Y-174288444D02*
G75*
G03*
X133983010Y-174520890I232490J44D01*
G01*
X134332500Y-174520944D02*
G75*
G02*
X134899956Y-175088444I0J-567456D01*
G01*
X136049511Y-173288444D02*
G75*
G02*
X135482011Y-173855911I-567511J44D01*
G01*
X135482011Y-172520944D02*
G75*
G02*
X136049456Y-173088444I-11J-567456D01*
G01*
X135481990Y-164520944D02*
G75*
G02*
X136049456Y-165088444I10J-567456D01*
G01*
X133983010Y-169855944D02*
G75*
G03*
X133750544Y-170088444I-10J-232456D01*
G01*
X133750489Y-166288444D02*
G75*
G03*
X133982989Y-166520911I232511J44D01*
G01*
X145233000Y-154102000D02*
X145233000Y-170735225D01*
X145233000Y-170735225D02*
X145625277Y-171127502D01*
X146525000Y-152810000D02*
X145233000Y-154102000D01*
X145287399Y-171602400D02*
X145005000Y-171320001D01*
D45*
X141000000Y-177040000D02*
X141790816Y-177830816D01*
D48*
X145005000Y-171320001D02*
X145005000Y-152810000D01*
D45*
X140960000Y-177040000D02*
X141000000Y-177040000D01*
X146075400Y-171602400D02*
X145287399Y-171602400D01*
G04 #@! TA.AperFunction,Conductor*
G36*
X112588681Y-187536319D02*
G01*
X112625000Y-187624000D01*
X112625000Y-188402000D01*
X112588681Y-188489681D01*
X112501000Y-188526000D01*
X110749000Y-188526000D01*
X110661319Y-188489681D01*
X110625000Y-188402000D01*
X110625000Y-187624000D01*
X110661319Y-187536319D01*
X110749000Y-187500000D01*
X112501000Y-187500000D01*
X112588681Y-187536319D01*
G37*
G04 #@! TD.AperFunction*
D51*
X232127700Y-181375000D02*
X143775000Y-181375000D01*
X109975000Y-194125000D02*
X120175000Y-194125000D01*
X122575000Y-193625000D02*
X123075000Y-194125000D01*
X105825000Y-183200000D02*
G75*
G02*
X109475000Y-183200000I1825000J0D01*
G01*
X79475000Y-189625000D02*
X79475000Y-181375000D01*
X143275000Y-194125000D02*
X123075000Y-194125000D01*
X97825000Y-181375000D02*
X97825000Y-189625000D01*
X232125000Y-82975000D02*
X232127700Y-181375000D01*
X79475000Y-181375000D02*
X97825000Y-181375000D01*
X97825000Y-189625000D02*
X105825000Y-189625000D01*
X73575000Y-99375000D02*
G75*
G02*
X70375000Y-99375000I-1600000J0D01*
G01*
X70375000Y-99375000D02*
G75*
G02*
X73575000Y-99375000I1600000J0D01*
G01*
X64475000Y-82975000D02*
X232125000Y-82975000D01*
X122575000Y-186675000D02*
X122575000Y-193625000D01*
X120675000Y-193625000D02*
X120675000Y-186675000D01*
X109475000Y-193625000D02*
X109975000Y-194125000D01*
X120675000Y-186675000D02*
G75*
G02*
X122575000Y-186675000I950000J0D01*
G01*
X64475000Y-82975000D02*
X64475000Y-189625000D01*
X120175000Y-194125000D02*
X120675000Y-193625000D01*
X143775000Y-181375000D02*
X143775000Y-193625000D01*
X73575000Y-184775000D02*
G75*
G02*
X70375000Y-184775000I-1600000J0D01*
G01*
X70375000Y-184775000D02*
G75*
G02*
X73575000Y-184775000I1600000J0D01*
G01*
X143775000Y-193625000D02*
X143275000Y-194125000D01*
X64475000Y-189625000D02*
X79475000Y-189625000D01*
X105825000Y-189625000D02*
X105825000Y-183200000D01*
X109475000Y-183200000D02*
X109475000Y-193625000D01*
D52*
X111291666Y-194125000D02*
G75*
G02*
X107958334Y-194125000I-1666666J0D01*
G01*
X107958334Y-194125000D02*
G75*
G02*
X111291666Y-194125000I1666666J0D01*
G01*
X107125000Y-194125000D02*
X112125000Y-194125000D01*
X109625000Y-191625000D02*
X109625000Y-196625000D01*
M02*
