G04 #@! TF.GenerationSoftware,KiCad,Pcbnew,8.0.4*
G04 #@! TF.CreationDate,2024-08-19T13:54:33+02:00*
G04 #@! TF.ProjectId,ULX4M-PCIe-IO_x4_half,554c5834-4d2d-4504-9349-652d494f5f78,rev?*
G04 #@! TF.SameCoordinates,Original*
G04 #@! TF.FileFunction,Paste,Top*
G04 #@! TF.FilePolarity,Positive*
%FSLAX46Y46*%
G04 Gerber Fmt 4.6, Leading zero omitted, Abs format (unit mm)*
G04 Created by KiCad (PCBNEW 8.0.4) date 2024-08-19 13:54:33*
%MOMM*%
%LPD*%
G01*
G04 APERTURE LIST*
G04 Aperture macros list*
%AMRoundRect*
0 Rectangle with rounded corners*
0 $1 Rounding radius*
0 $2 $3 $4 $5 $6 $7 $8 $9 X,Y pos of 4 corners*
0 Add a 4 corners polygon primitive as box body*
4,1,4,$2,$3,$4,$5,$6,$7,$8,$9,$2,$3,0*
0 Add four circle primitives for the rounded corners*
1,1,$1+$1,$2,$3*
1,1,$1+$1,$4,$5*
1,1,$1+$1,$6,$7*
1,1,$1+$1,$8,$9*
0 Add four rect primitives between the rounded corners*
20,1,$1+$1,$2,$3,$4,$5,0*
20,1,$1+$1,$4,$5,$6,$7,0*
20,1,$1+$1,$6,$7,$8,$9,0*
20,1,$1+$1,$8,$9,$2,$3,0*%
G04 Aperture macros list end*
%ADD10C,0.100000*%
%ADD11RoundRect,0.218750X-0.218750X-0.256250X0.218750X-0.256250X0.218750X0.256250X-0.218750X0.256250X0*%
%ADD12RoundRect,0.218750X0.218750X0.256250X-0.218750X0.256250X-0.218750X-0.256250X0.218750X-0.256250X0*%
%ADD13R,1.100000X1.500000*%
%ADD14R,2.000000X0.500000*%
%ADD15R,0.850000X1.100000*%
%ADD16R,0.750000X1.100000*%
%ADD17R,1.200000X1.000000*%
%ADD18R,1.550000X1.350000*%
%ADD19R,1.900000X1.350000*%
%ADD20R,1.170000X1.800000*%
%ADD21R,1.500000X0.900000*%
%ADD22R,0.300000X0.550000*%
%ADD23R,0.400000X0.550000*%
%ADD24RoundRect,0.200000X0.275000X-0.200000X0.275000X0.200000X-0.275000X0.200000X-0.275000X-0.200000X0*%
%ADD25RoundRect,0.225000X-0.250000X0.225000X-0.250000X-0.225000X0.250000X-0.225000X0.250000X0.225000X0*%
%ADD26RoundRect,0.200000X0.200000X0.275000X-0.200000X0.275000X-0.200000X-0.275000X0.200000X-0.275000X0*%
%ADD27R,0.550000X0.300000*%
%ADD28R,0.550000X0.400000*%
%ADD29R,1.900000X0.300000*%
%ADD30R,0.200000X0.700000*%
%ADD31RoundRect,0.150000X-0.825000X-0.150000X0.825000X-0.150000X0.825000X0.150000X-0.825000X0.150000X0*%
%ADD32RoundRect,0.250000X0.375000X0.625000X-0.375000X0.625000X-0.375000X-0.625000X0.375000X-0.625000X0*%
%ADD33R,2.750000X3.050000*%
%ADD34R,1.200000X2.200000*%
G04 #@! TA.AperFunction,Profile*
%ADD35C,0.150000*%
G04 #@! TD*
G04 #@! TA.AperFunction,Profile*
%ADD36C,0.050000*%
G04 #@! TD*
G04 APERTURE END LIST*
D10*
X65800000Y-128650000D02*
X65800000Y-129250000D01*
X65300000Y-128950000D01*
X65000000Y-128450000D01*
X65600000Y-128450000D01*
X65800000Y-128650000D01*
G36*
X65800000Y-128650000D02*
G01*
X65800000Y-129250000D01*
X65300000Y-128950000D01*
X65000000Y-128450000D01*
X65600000Y-128450000D01*
X65800000Y-128650000D01*
G37*
X65800000Y-144350000D02*
X65800000Y-144950000D01*
X65300000Y-144650000D01*
X65000000Y-144150000D01*
X65600000Y-144150000D01*
X65800000Y-144350000D01*
G36*
X65800000Y-144350000D02*
G01*
X65800000Y-144950000D01*
X65300000Y-144650000D01*
X65000000Y-144150000D01*
X65600000Y-144150000D01*
X65800000Y-144350000D01*
G37*
X65800000Y-127850000D02*
X65600000Y-128050000D01*
X65000000Y-128050000D01*
X65300000Y-127550000D01*
X65800000Y-127250000D01*
X65800000Y-127850000D01*
G36*
X65800000Y-127850000D02*
G01*
X65600000Y-128050000D01*
X65000000Y-128050000D01*
X65300000Y-127550000D01*
X65800000Y-127250000D01*
X65800000Y-127850000D01*
G37*
X65800000Y-143550000D02*
X65600000Y-143750000D01*
X65000000Y-143750000D01*
X65300000Y-143250000D01*
X65800000Y-142950000D01*
X65800000Y-143550000D01*
G36*
X65800000Y-143550000D02*
G01*
X65600000Y-143750000D01*
X65000000Y-143750000D01*
X65300000Y-143250000D01*
X65800000Y-142950000D01*
X65800000Y-143550000D01*
G37*
X66700000Y-127550000D02*
X67000000Y-128050000D01*
X66400000Y-128050000D01*
X66200000Y-127850000D01*
X66200000Y-127250000D01*
X66700000Y-127550000D01*
G36*
X66700000Y-127550000D02*
G01*
X67000000Y-128050000D01*
X66400000Y-128050000D01*
X66200000Y-127850000D01*
X66200000Y-127250000D01*
X66700000Y-127550000D01*
G37*
X66700000Y-143250000D02*
X67000000Y-143750000D01*
X66400000Y-143750000D01*
X66200000Y-143550000D01*
X66200000Y-142950000D01*
X66700000Y-143250000D01*
G36*
X66700000Y-143250000D02*
G01*
X67000000Y-143750000D01*
X66400000Y-143750000D01*
X66200000Y-143550000D01*
X66200000Y-142950000D01*
X66700000Y-143250000D01*
G37*
X66700000Y-128950000D02*
X66200000Y-129250000D01*
X66200000Y-128650000D01*
X66400000Y-128450000D01*
X67000000Y-128450000D01*
X66700000Y-128950000D01*
G36*
X66700000Y-128950000D02*
G01*
X66200000Y-129250000D01*
X66200000Y-128650000D01*
X66400000Y-128450000D01*
X67000000Y-128450000D01*
X66700000Y-128950000D01*
G37*
X66700000Y-144650000D02*
X66200000Y-144950000D01*
X66200000Y-144350000D01*
X66400000Y-144150000D01*
X67000000Y-144150000D01*
X66700000Y-144650000D01*
G36*
X66700000Y-144650000D02*
G01*
X66200000Y-144950000D01*
X66200000Y-144350000D01*
X66400000Y-144150000D01*
X67000000Y-144150000D01*
X66700000Y-144650000D01*
G37*
X70700000Y-129250000D02*
X70700000Y-129850000D01*
X70200000Y-129550000D01*
X69900000Y-129050000D01*
X70500000Y-129050000D01*
X70700000Y-129250000D01*
G36*
X70700000Y-129250000D02*
G01*
X70700000Y-129850000D01*
X70200000Y-129550000D01*
X69900000Y-129050000D01*
X70500000Y-129050000D01*
X70700000Y-129250000D01*
G37*
X70700000Y-143750000D02*
X70700000Y-144350000D01*
X70200000Y-144050000D01*
X69900000Y-143550000D01*
X70500000Y-143550000D01*
X70700000Y-143750000D01*
G36*
X70700000Y-143750000D02*
G01*
X70700000Y-144350000D01*
X70200000Y-144050000D01*
X69900000Y-143550000D01*
X70500000Y-143550000D01*
X70700000Y-143750000D01*
G37*
X70700000Y-128450000D02*
X70500000Y-128650000D01*
X69900000Y-128650000D01*
X70200000Y-128150000D01*
X70700000Y-127850000D01*
X70700000Y-128450000D01*
G36*
X70700000Y-128450000D02*
G01*
X70500000Y-128650000D01*
X69900000Y-128650000D01*
X70200000Y-128150000D01*
X70700000Y-127850000D01*
X70700000Y-128450000D01*
G37*
X70700000Y-142950000D02*
X70500000Y-143150000D01*
X69900000Y-143150000D01*
X70200000Y-142650000D01*
X70700000Y-142350000D01*
X70700000Y-142950000D01*
G36*
X70700000Y-142950000D02*
G01*
X70500000Y-143150000D01*
X69900000Y-143150000D01*
X70200000Y-142650000D01*
X70700000Y-142350000D01*
X70700000Y-142950000D01*
G37*
X71600000Y-128150000D02*
X71900000Y-128650000D01*
X71300000Y-128650000D01*
X71100000Y-128450000D01*
X71100000Y-127850000D01*
X71600000Y-128150000D01*
G36*
X71600000Y-128150000D02*
G01*
X71900000Y-128650000D01*
X71300000Y-128650000D01*
X71100000Y-128450000D01*
X71100000Y-127850000D01*
X71600000Y-128150000D01*
G37*
X71600000Y-142650000D02*
X71900000Y-143150000D01*
X71300000Y-143150000D01*
X71100000Y-142950000D01*
X71100000Y-142350000D01*
X71600000Y-142650000D01*
G36*
X71600000Y-142650000D02*
G01*
X71900000Y-143150000D01*
X71300000Y-143150000D01*
X71100000Y-142950000D01*
X71100000Y-142350000D01*
X71600000Y-142650000D01*
G37*
X71600000Y-129550000D02*
X71100000Y-129850000D01*
X71100000Y-129250000D01*
X71300000Y-129050000D01*
X71900000Y-129050000D01*
X71600000Y-129550000D01*
G36*
X71600000Y-129550000D02*
G01*
X71100000Y-129850000D01*
X71100000Y-129250000D01*
X71300000Y-129050000D01*
X71900000Y-129050000D01*
X71600000Y-129550000D01*
G37*
X71600000Y-144050000D02*
X71100000Y-144350000D01*
X71100000Y-143750000D01*
X71300000Y-143550000D01*
X71900000Y-143550000D01*
X71600000Y-144050000D01*
G36*
X71600000Y-144050000D02*
G01*
X71100000Y-144350000D01*
X71100000Y-143750000D01*
X71300000Y-143550000D01*
X71900000Y-143550000D01*
X71600000Y-144050000D01*
G37*
D11*
X126337500Y-180625000D03*
X127912500Y-180625000D03*
D12*
X124912500Y-180625000D03*
X123337500Y-180625000D03*
D11*
X135337500Y-180625000D03*
X136912500Y-180625000D03*
D12*
X133912500Y-180625000D03*
X132337500Y-180625000D03*
D11*
X139337500Y-183875000D03*
X140912500Y-183875000D03*
D12*
X137912500Y-183875000D03*
X136337500Y-183875000D03*
X129912500Y-183875000D03*
X128337500Y-183875000D03*
D11*
X131337500Y-183875000D03*
X132912500Y-183875000D03*
D13*
X139675000Y-135165000D03*
X142215000Y-135165000D03*
X144755000Y-135165000D03*
X147295000Y-135165000D03*
X149835000Y-135165000D03*
X152375000Y-135165000D03*
X154915000Y-135165000D03*
X157455000Y-135165000D03*
X157455000Y-126265000D03*
X154915000Y-126265000D03*
X152375000Y-126265000D03*
X149835000Y-126265000D03*
X147295000Y-126265000D03*
X144755000Y-126265000D03*
X142215000Y-126265000D03*
X139675000Y-126265000D03*
X116535000Y-135195000D03*
X119075000Y-135195000D03*
X121615000Y-135195000D03*
X124155000Y-135195000D03*
X126695000Y-135195000D03*
X129235000Y-135195000D03*
X131775000Y-135195000D03*
X134315000Y-135195000D03*
X134315000Y-126295000D03*
X131775000Y-126295000D03*
X129235000Y-126295000D03*
X126695000Y-126295000D03*
X124155000Y-126295000D03*
X121615000Y-126295000D03*
X119075000Y-126295000D03*
X116535000Y-126295000D03*
D14*
X99610000Y-150795000D03*
X99610000Y-151595000D03*
X99610000Y-152395000D03*
X99610000Y-153195000D03*
X99610000Y-153995000D03*
X99610000Y-154795000D03*
X99610000Y-155595000D03*
X99610000Y-156395000D03*
X99610000Y-157195000D03*
X99610000Y-157995000D03*
X107810000Y-157595000D03*
X107810000Y-156795000D03*
X107810000Y-155995000D03*
X107810000Y-155195000D03*
X107810000Y-154395000D03*
X107810000Y-153595000D03*
X107810000Y-152795000D03*
X107810000Y-151995000D03*
X107810000Y-151195000D03*
X107810000Y-150395000D03*
X99600000Y-168175000D03*
X99600000Y-168975000D03*
X99600000Y-169775000D03*
X99600000Y-170575000D03*
X99600000Y-171375000D03*
X99600000Y-172175000D03*
X99600000Y-172975000D03*
X99600000Y-173775000D03*
X99600000Y-174575000D03*
X99600000Y-175375000D03*
X107800000Y-174975000D03*
X107800000Y-174175000D03*
X107800000Y-173375000D03*
X107800000Y-172575000D03*
X107800000Y-171775000D03*
X107800000Y-170975000D03*
X107800000Y-170175000D03*
X107800000Y-169375000D03*
X107800000Y-168575000D03*
X107800000Y-167775000D03*
D15*
X171600000Y-87135000D03*
X172700000Y-87135000D03*
X173800000Y-87135000D03*
X174900000Y-87135000D03*
X176000000Y-87135000D03*
X177100000Y-87135000D03*
X178200000Y-87135000D03*
D16*
X179250000Y-87135000D03*
D17*
X168965000Y-93285000D03*
X168965000Y-96985000D03*
D18*
X169140000Y-87260000D03*
D19*
X172465000Y-97960000D03*
X178435000Y-97960000D03*
D20*
X180460000Y-87485000D03*
D21*
X167975000Y-132795000D03*
X167975000Y-129495000D03*
X163075000Y-129495000D03*
X163075000Y-132795000D03*
D11*
X162627500Y-164825000D03*
X164202500Y-164825000D03*
D22*
X119060000Y-181090000D03*
X119060000Y-180320000D03*
X119560000Y-181090000D03*
X119560000Y-180320000D03*
D23*
X120060000Y-181090000D03*
X120060000Y-180320000D03*
D22*
X120560000Y-181090000D03*
X120560000Y-180320000D03*
X121060000Y-181090000D03*
X121060000Y-180320000D03*
D24*
X132675000Y-152830000D03*
X132675000Y-151180000D03*
D25*
X211995000Y-109070000D03*
X211995000Y-110620000D03*
D21*
X175965000Y-132795000D03*
X175965000Y-129495000D03*
X171065000Y-129495000D03*
X171065000Y-132795000D03*
X208725000Y-132785000D03*
X208725000Y-129485000D03*
X203825000Y-129485000D03*
X203825000Y-132785000D03*
X192435000Y-132775000D03*
X192435000Y-129475000D03*
X187535000Y-129475000D03*
X187535000Y-132775000D03*
D26*
X167420000Y-166545000D03*
X165770000Y-166545000D03*
D11*
X162617500Y-166535000D03*
X164192500Y-166535000D03*
D22*
X127230000Y-178285000D03*
X127230000Y-177515000D03*
X127730000Y-178285000D03*
X127730000Y-177515000D03*
D23*
X128230000Y-178285000D03*
X128230000Y-177515000D03*
D22*
X128730000Y-178285000D03*
X128730000Y-177515000D03*
X129230000Y-178285000D03*
X129230000Y-177515000D03*
D24*
X141775000Y-152800000D03*
X141775000Y-151150000D03*
D27*
X112660000Y-170375000D03*
X113430000Y-170375000D03*
X112660000Y-170875000D03*
X113430000Y-170875000D03*
D28*
X112660000Y-171375000D03*
X113430000Y-171375000D03*
D27*
X112660000Y-171875000D03*
X113430000Y-171875000D03*
X112660000Y-172375000D03*
X113430000Y-172375000D03*
D22*
X125410000Y-172770000D03*
X125410000Y-172000000D03*
X125910000Y-172770000D03*
X125910000Y-172000000D03*
D23*
X126410000Y-172770000D03*
X126410000Y-172000000D03*
D22*
X126910000Y-172770000D03*
X126910000Y-172000000D03*
X127410000Y-172770000D03*
X127410000Y-172000000D03*
X117680000Y-183435000D03*
X117680000Y-184205000D03*
X117180000Y-183435000D03*
X117180000Y-184205000D03*
D23*
X116680000Y-183435000D03*
X116680000Y-184205000D03*
D22*
X116180000Y-183435000D03*
X116180000Y-184205000D03*
X115680000Y-183435000D03*
X115680000Y-184205000D03*
X126580000Y-175565000D03*
X126580000Y-174795000D03*
X127080000Y-175565000D03*
X127080000Y-174795000D03*
D23*
X127580000Y-175565000D03*
X127580000Y-174795000D03*
D22*
X128080000Y-175565000D03*
X128080000Y-174795000D03*
X128580000Y-175565000D03*
X128580000Y-174795000D03*
D29*
X71900000Y-140850000D03*
X71900000Y-140350000D03*
X71900000Y-139850000D03*
X71900000Y-139350000D03*
X71900000Y-138850000D03*
X71900000Y-138350000D03*
X71900000Y-137850000D03*
X71900000Y-137350000D03*
X71900000Y-136850000D03*
X71900000Y-136350000D03*
X71900000Y-135850000D03*
X71900000Y-135350000D03*
X71900000Y-134850000D03*
X71900000Y-134350000D03*
X71900000Y-133850000D03*
X71900000Y-133350000D03*
X71900000Y-132850000D03*
X71900000Y-132350000D03*
X71900000Y-131850000D03*
D24*
X134215000Y-152825000D03*
X134215000Y-151175000D03*
D22*
X114900000Y-181145000D03*
X114900000Y-180375000D03*
X115400000Y-181145000D03*
X115400000Y-180375000D03*
D23*
X115900000Y-181145000D03*
X115900000Y-180375000D03*
D22*
X116400000Y-181145000D03*
X116400000Y-180375000D03*
X116900000Y-181145000D03*
X116900000Y-180375000D03*
D24*
X137495000Y-152810000D03*
X137495000Y-151160000D03*
D30*
X129715000Y-122415000D03*
X129715000Y-119335000D03*
X130115000Y-122415000D03*
X130115000Y-119335000D03*
X130515000Y-122415000D03*
X130515000Y-119335000D03*
X130915000Y-122415000D03*
X130915000Y-119335000D03*
X131315000Y-122415000D03*
X131315000Y-119335000D03*
X131715000Y-122415000D03*
X131715000Y-119335000D03*
X132115000Y-122415000D03*
X132115000Y-119335000D03*
X132515000Y-122415000D03*
X132515000Y-119335000D03*
X132915000Y-122415000D03*
X132915000Y-119335000D03*
X133315000Y-122415000D03*
X133315000Y-119335000D03*
X133715000Y-122415000D03*
X133715000Y-119335000D03*
X134115000Y-122415000D03*
X134115000Y-119335000D03*
X134515000Y-122415000D03*
X134515000Y-119335000D03*
X134915000Y-122415000D03*
X134915000Y-119335000D03*
X135315000Y-122415000D03*
X135315000Y-119335000D03*
X135715000Y-122415000D03*
X135715000Y-119335000D03*
X136115000Y-122415000D03*
X136115000Y-119335000D03*
X136515000Y-122415000D03*
X136515000Y-119335000D03*
X136915000Y-122415000D03*
X136915000Y-119335000D03*
X137315000Y-122415000D03*
X137315000Y-119335000D03*
X137715000Y-122415000D03*
X137715000Y-119335000D03*
X138115000Y-122415000D03*
X138115000Y-119335000D03*
X138515000Y-122415000D03*
X138515000Y-119335000D03*
X138915000Y-122415000D03*
X138915000Y-119335000D03*
X139315000Y-122415000D03*
X139315000Y-119335000D03*
X139715000Y-122415000D03*
X139715000Y-119335000D03*
X140115000Y-122415000D03*
X140115000Y-119335000D03*
X140515000Y-122415000D03*
X140515000Y-119335000D03*
X140915000Y-122415000D03*
X140915000Y-119335000D03*
X141315000Y-122415000D03*
X141315000Y-119335000D03*
X141715000Y-122415000D03*
X141715000Y-119335000D03*
X142115000Y-122415000D03*
X142115000Y-119335000D03*
X142515000Y-122415000D03*
X142515000Y-119335000D03*
X142915000Y-122415000D03*
X142915000Y-119335000D03*
X143315000Y-122415000D03*
X143315000Y-119335000D03*
X143715000Y-122415000D03*
X143715000Y-119335000D03*
X144115000Y-122415000D03*
X144115000Y-119335000D03*
X144515000Y-122415000D03*
X144515000Y-119335000D03*
X144915000Y-122415000D03*
X144915000Y-119335000D03*
X145315000Y-122415000D03*
X145315000Y-119335000D03*
X145715000Y-122415000D03*
X145715000Y-119335000D03*
X146115000Y-122415000D03*
X146115000Y-119335000D03*
X146515000Y-122415000D03*
X146515000Y-119335000D03*
X146915000Y-122415000D03*
X146915000Y-119335000D03*
X147315000Y-122415000D03*
X147315000Y-119335000D03*
X147715000Y-122415000D03*
X147715000Y-119335000D03*
X148115000Y-122415000D03*
X148115000Y-119335000D03*
X148515000Y-122415000D03*
X148515000Y-119335000D03*
X148915000Y-122415000D03*
X148915000Y-119335000D03*
X149315000Y-122415000D03*
X149315000Y-119335000D03*
X129715000Y-88495000D03*
X129715000Y-85415000D03*
X130115000Y-88495000D03*
X130115000Y-85415000D03*
X130515000Y-88495000D03*
X130515000Y-85415000D03*
X130915000Y-88495000D03*
X130915000Y-85415000D03*
X131315000Y-88495000D03*
X131315000Y-85415000D03*
X131715000Y-88495000D03*
X131715000Y-85415000D03*
X132115000Y-88495000D03*
X132115000Y-85415000D03*
X132515000Y-88495000D03*
X132515000Y-85415000D03*
X132915000Y-88495000D03*
X132915000Y-85415000D03*
X133315000Y-88495000D03*
X133315000Y-85415000D03*
X133715000Y-88495000D03*
X133715000Y-85415000D03*
X134115000Y-88495000D03*
X134115000Y-85415000D03*
X134515000Y-88495000D03*
X134515000Y-85415000D03*
X134915000Y-88495000D03*
X134915000Y-85415000D03*
X135315000Y-88495000D03*
X135315000Y-85415000D03*
X135715000Y-88495000D03*
X135715000Y-85415000D03*
X136115000Y-88495000D03*
X136115000Y-85415000D03*
X136515000Y-88495000D03*
X136515000Y-85415000D03*
X136915000Y-88495000D03*
X136915000Y-85415000D03*
X137315000Y-88495000D03*
X137315000Y-85415000D03*
X137715000Y-88495000D03*
X137715000Y-85415000D03*
X138115000Y-88495000D03*
X138115000Y-85415000D03*
X138515000Y-88495000D03*
X138515000Y-85415000D03*
X138915000Y-88495000D03*
X138915000Y-85415000D03*
X139315000Y-88495000D03*
X139315000Y-85415000D03*
X139715000Y-88495000D03*
X139715000Y-85415000D03*
X140115000Y-88495000D03*
X140115000Y-85415000D03*
X140515000Y-88495000D03*
X140515000Y-85415000D03*
X140915000Y-88495000D03*
X140915000Y-85415000D03*
X141315000Y-88495000D03*
X141315000Y-85415000D03*
X141715000Y-88495000D03*
X141715000Y-85415000D03*
X142115000Y-88495000D03*
X142115000Y-85415000D03*
X142515000Y-88495000D03*
X142515000Y-85415000D03*
X142915000Y-88495000D03*
X142915000Y-85415000D03*
X143315000Y-88495000D03*
X143315000Y-85415000D03*
X143715000Y-88495000D03*
X143715000Y-85415000D03*
X144115000Y-88495000D03*
X144115000Y-85415000D03*
X144515000Y-88495000D03*
X144515000Y-85415000D03*
X144915000Y-88495000D03*
X144915000Y-85415000D03*
X145315000Y-88495000D03*
X145315000Y-85415000D03*
X145715000Y-88495000D03*
X145715000Y-85415000D03*
X146115000Y-88495000D03*
X146115000Y-85415000D03*
X146515000Y-88495000D03*
X146515000Y-85415000D03*
X146915000Y-88495000D03*
X146915000Y-85415000D03*
X147315000Y-88495000D03*
X147315000Y-85415000D03*
X147715000Y-88495000D03*
X147715000Y-85415000D03*
X148115000Y-88495000D03*
X148115000Y-85415000D03*
X148515000Y-88495000D03*
X148515000Y-85415000D03*
X148915000Y-88495000D03*
X148915000Y-85415000D03*
X149315000Y-88495000D03*
X149315000Y-85415000D03*
D26*
X190430000Y-175055000D03*
X188780000Y-175055000D03*
D21*
X200485000Y-132785000D03*
X200485000Y-129485000D03*
X195585000Y-129485000D03*
X195585000Y-132785000D03*
D24*
X167485000Y-178670000D03*
X167485000Y-177020000D03*
D31*
X181760000Y-172640000D03*
X181760000Y-173910000D03*
X181760000Y-175180000D03*
X181760000Y-176450000D03*
X186710000Y-176450000D03*
X186710000Y-175180000D03*
X186710000Y-173910000D03*
X186710000Y-172640000D03*
D32*
X210705000Y-105785000D03*
X207905000Y-105785000D03*
D24*
X135955000Y-152810000D03*
X135955000Y-151160000D03*
D22*
X134600000Y-178050000D03*
X134600000Y-177280000D03*
X135100000Y-178050000D03*
X135100000Y-177280000D03*
D23*
X135600000Y-178050000D03*
X135600000Y-177280000D03*
D22*
X136100000Y-178050000D03*
X136100000Y-177280000D03*
X136600000Y-178050000D03*
X136600000Y-177280000D03*
D24*
X146545000Y-152810000D03*
X146545000Y-151160000D03*
D11*
X162637500Y-163155000D03*
X164212500Y-163155000D03*
D24*
X145015000Y-152810000D03*
X145015000Y-151160000D03*
X143295000Y-152800000D03*
X143295000Y-151150000D03*
X169055000Y-178650000D03*
X169055000Y-177000000D03*
D26*
X190430000Y-176595000D03*
X188780000Y-176595000D03*
D11*
X162642500Y-161465000D03*
X164217500Y-161465000D03*
D26*
X167420000Y-161475000D03*
X165770000Y-161475000D03*
D21*
X184195000Y-132815000D03*
X184195000Y-129515000D03*
X179295000Y-129515000D03*
X179295000Y-132815000D03*
D25*
X200825000Y-112080000D03*
X200825000Y-113630000D03*
D33*
X208670000Y-113035000D03*
X205620000Y-113035000D03*
X208670000Y-116385000D03*
X205620000Y-116385000D03*
D34*
X209425000Y-108410000D03*
X204865000Y-108410000D03*
D26*
X167420000Y-164825000D03*
X165770000Y-164825000D03*
D25*
X202385000Y-112080000D03*
X202385000Y-113630000D03*
D26*
X167435000Y-163145000D03*
X165785000Y-163145000D03*
D24*
X160805000Y-131920000D03*
X160805000Y-130270000D03*
D27*
X112665000Y-153055000D03*
X113435000Y-153055000D03*
X112665000Y-153555000D03*
X113435000Y-153555000D03*
D28*
X112665000Y-154055000D03*
X113435000Y-154055000D03*
D27*
X112665000Y-154555000D03*
X113435000Y-154555000D03*
X112665000Y-155055000D03*
X113435000Y-155055000D03*
D32*
X210695000Y-102135000D03*
X207895000Y-102135000D03*
D35*
X232127700Y-181375000D02*
X143775000Y-181375000D01*
X109975000Y-194125000D02*
X120175000Y-194125000D01*
X122575000Y-193625000D02*
X123075000Y-194125000D01*
X105825000Y-183200000D02*
G75*
G02*
X109475000Y-183200000I1825000J0D01*
G01*
X79475000Y-189625000D02*
X79475000Y-181375000D01*
X143275000Y-194125000D02*
X123075000Y-194125000D01*
X97825000Y-181375000D02*
X97825000Y-189625000D01*
X232125000Y-82975000D02*
X232127700Y-181375000D01*
X79475000Y-181375000D02*
X97825000Y-181375000D01*
X97825000Y-189625000D02*
X105825000Y-189625000D01*
X73575000Y-99375000D02*
G75*
G02*
X70375000Y-99375000I-1600000J0D01*
G01*
X70375000Y-99375000D02*
G75*
G02*
X73575000Y-99375000I1600000J0D01*
G01*
X64475000Y-82975000D02*
X232125000Y-82975000D01*
X122575000Y-186675000D02*
X122575000Y-193625000D01*
X120675000Y-193625000D02*
X120675000Y-186675000D01*
X109475000Y-193625000D02*
X109975000Y-194125000D01*
X120675000Y-186675000D02*
G75*
G02*
X122575000Y-186675000I950000J0D01*
G01*
X64475000Y-82975000D02*
X64475000Y-189625000D01*
X120175000Y-194125000D02*
X120675000Y-193625000D01*
X143775000Y-181375000D02*
X143775000Y-193625000D01*
X73575000Y-184775000D02*
G75*
G02*
X70375000Y-184775000I-1600000J0D01*
G01*
X70375000Y-184775000D02*
G75*
G02*
X73575000Y-184775000I1600000J0D01*
G01*
X143775000Y-193625000D02*
X143275000Y-194125000D01*
X64475000Y-189625000D02*
X79475000Y-189625000D01*
X105825000Y-189625000D02*
X105825000Y-183200000D01*
X109475000Y-183200000D02*
X109475000Y-193625000D01*
D36*
X111291666Y-194125000D02*
G75*
G02*
X107958334Y-194125000I-1666666J0D01*
G01*
X107958334Y-194125000D02*
G75*
G02*
X111291666Y-194125000I1666666J0D01*
G01*
X107125000Y-194125000D02*
X112125000Y-194125000D01*
X109625000Y-191625000D02*
X109625000Y-196625000D01*
M02*
