G04 #@! TF.GenerationSoftware,KiCad,Pcbnew,8.0.4*
G04 #@! TF.CreationDate,2024-08-19T13:54:33+02:00*
G04 #@! TF.ProjectId,ULX4M-PCIe-IO_x4_half,554c5834-4d2d-4504-9349-652d494f5f78,rev?*
G04 #@! TF.SameCoordinates,Original*
G04 #@! TF.FileFunction,Profile,NP*
%FSLAX46Y46*%
G04 Gerber Fmt 4.6, Leading zero omitted, Abs format (unit mm)*
G04 Created by KiCad (PCBNEW 8.0.4) date 2024-08-19 13:54:33*
%MOMM*%
%LPD*%
G01*
G04 APERTURE LIST*
G04 #@! TA.AperFunction,Profile*
%ADD10C,0.150000*%
G04 #@! TD*
G04 #@! TA.AperFunction,Profile*
%ADD11C,0.050000*%
G04 #@! TD*
G04 APERTURE END LIST*
D10*
X232127700Y-181375000D02*
X143775000Y-181375000D01*
X109975000Y-194125000D02*
X120175000Y-194125000D01*
X122575000Y-193625000D02*
X123075000Y-194125000D01*
X105825000Y-183200000D02*
G75*
G02*
X109475000Y-183200000I1825000J0D01*
G01*
X79475000Y-189625000D02*
X79475000Y-181375000D01*
X143275000Y-194125000D02*
X123075000Y-194125000D01*
X97825000Y-181375000D02*
X97825000Y-189625000D01*
X232125000Y-82975000D02*
X232127700Y-181375000D01*
X79475000Y-181375000D02*
X97825000Y-181375000D01*
X97825000Y-189625000D02*
X105825000Y-189625000D01*
X73575000Y-99375000D02*
G75*
G02*
X70375000Y-99375000I-1600000J0D01*
G01*
X70375000Y-99375000D02*
G75*
G02*
X73575000Y-99375000I1600000J0D01*
G01*
X64475000Y-82975000D02*
X232125000Y-82975000D01*
X122575000Y-186675000D02*
X122575000Y-193625000D01*
X120675000Y-193625000D02*
X120675000Y-186675000D01*
X109475000Y-193625000D02*
X109975000Y-194125000D01*
X120675000Y-186675000D02*
G75*
G02*
X122575000Y-186675000I950000J0D01*
G01*
X64475000Y-82975000D02*
X64475000Y-189625000D01*
X120175000Y-194125000D02*
X120675000Y-193625000D01*
X143775000Y-181375000D02*
X143775000Y-193625000D01*
X73575000Y-184775000D02*
G75*
G02*
X70375000Y-184775000I-1600000J0D01*
G01*
X70375000Y-184775000D02*
G75*
G02*
X73575000Y-184775000I1600000J0D01*
G01*
X143775000Y-193625000D02*
X143275000Y-194125000D01*
X64475000Y-189625000D02*
X79475000Y-189625000D01*
X105825000Y-189625000D02*
X105825000Y-183200000D01*
X109475000Y-183200000D02*
X109475000Y-193625000D01*
D11*
X111291666Y-194125000D02*
G75*
G02*
X107958334Y-194125000I-1666666J0D01*
G01*
X107958334Y-194125000D02*
G75*
G02*
X111291666Y-194125000I1666666J0D01*
G01*
X107125000Y-194125000D02*
X112125000Y-194125000D01*
X109625000Y-191625000D02*
X109625000Y-196625000D01*
M02*
